<svg width="33" height="32" viewBox="0 0 33 32" fill="none" xmlns="http://www.w3.org/2000/svg">
    <path
        d="M14.2834 15.8335C12.8167 15.8335 11.6167 15.3668 10.6834 14.4335C9.75003 13.5002 9.28337 12.3002 9.28337 10.8335C9.28337 9.36683 9.75003 8.16683 10.6834 7.2335C11.6167 6.30016 12.8167 5.8335 14.2834 5.8335C15.75 5.8335 16.95 6.30016 17.8834 7.2335C18.8167 8.16683 19.2834 9.36683 19.2834 10.8335C19.2834 12.3002 18.8167 13.5002 17.8834 14.4335C16.95 15.3668 15.75 15.8335 14.2834 15.8335ZM4.6167 26.5335C4.32781 26.5335 4.08892 26.4391 3.90003 26.2502C3.71114 26.0613 3.6167 25.8224 3.6167 25.5335V23.4002C3.6167 22.6224 3.81114 21.9224 4.20003 21.3002C4.58892 20.6779 5.15003 20.2002 5.88337 19.8668C7.48337 19.1557 8.9667 18.6446 10.3334 18.3335C11.7 18.0224 13.0167 17.8668 14.2834 17.8668H15.05C14.9167 18.1779 14.8167 18.4835 14.75 18.7835C14.6834 19.0835 14.6278 19.4446 14.5834 19.8668H14.2834C12.9945 19.8668 11.7334 20.0057 10.5 20.2835C9.2667 20.5613 7.99448 21.0224 6.68337 21.6668C6.32781 21.8446 6.06114 22.0946 5.88337 22.4168C5.70559 22.739 5.6167 23.0668 5.6167 23.4002V24.5335H14.5834C14.6945 24.9335 14.8278 25.2946 14.9834 25.6168C15.1389 25.9391 15.3278 26.2446 15.55 26.5335H4.6167ZM14.2834 13.8335C15.15 13.8335 15.8667 13.5502 16.4334 12.9835C17 12.4168 17.2834 11.7002 17.2834 10.8335C17.2834 9.96683 17 9.25016 16.4334 8.6835C15.8667 8.11683 15.15 7.8335 14.2834 7.8335C13.4167 7.8335 12.7 8.11683 12.1334 8.6835C11.5667 9.25016 11.2834 9.96683 11.2834 10.8335C11.2834 11.7002 11.5667 12.4168 12.1334 12.9835C12.7 13.5502 13.4167 13.8335 14.2834 13.8335Z"
        fill="currentColor" />
    <path
        d="M24.0833 23.9668C24.8167 23.9668 25.4444 23.7057 25.9667 23.1834C26.4889 22.6612 26.75 22.0334 26.75 21.3001C26.75 20.5668 26.4889 19.939 25.9667 19.4168C25.4444 18.8945 24.8167 18.6334 24.0833 18.6334C23.35 18.6334 22.7222 18.8945 22.2 19.4168C21.6778 19.939 21.4167 20.5668 21.4167 21.3001C21.4167 22.0334 21.6778 22.6612 22.2 23.1834C22.7222 23.7057 23.35 23.9668 24.0833 23.9668ZM22.85 25.8001C22.4722 25.689 22.0889 25.5279 21.7 25.3168C21.3111 25.1057 20.9833 24.8668 20.7167 24.6001L19.25 24.9334C19.1389 24.9779 19.0278 24.9779 18.9167 24.9334C18.8055 24.889 18.7278 24.8112 18.6833 24.7001L18.25 23.9334C18.1833 23.8445 18.1611 23.7445 18.1833 23.6334C18.2055 23.5223 18.2611 23.4223 18.35 23.3334L19.6167 22.1334C19.5722 21.9334 19.55 21.6557 19.55 21.3001C19.55 20.9445 19.5722 20.6668 19.6167 20.4668L18.35 19.2668C18.2611 19.1779 18.2055 19.0779 18.1833 18.9668C18.1611 18.8557 18.1833 18.7557 18.25 18.6668L18.6833 17.9001C18.7278 17.789 18.8055 17.7112 18.9167 17.6668C19.0278 17.6223 19.1389 17.6223 19.25 17.6668L20.7167 18.0001C20.9833 17.7334 21.3111 17.4945 21.7 17.2834C22.0889 17.0723 22.4722 16.9112 22.85 16.8001L23.1167 15.0334C23.1389 14.9001 23.1944 14.7945 23.2833 14.7168C23.3722 14.639 23.4833 14.6001 23.6167 14.6001H24.55C24.6833 14.6001 24.7944 14.639 24.8833 14.7168C24.9722 14.7945 25.0278 14.9001 25.05 15.0334L25.3167 16.8001C25.6944 16.9112 26.0778 17.0723 26.4667 17.2834C26.8555 17.4945 27.1833 17.7334 27.45 18.0001L28.9167 17.6668C29.0278 17.6223 29.1389 17.6223 29.25 17.6668C29.3611 17.7112 29.4389 17.789 29.4833 17.9001L29.9167 18.6668C29.9833 18.7557 30.0055 18.8557 29.9833 18.9668C29.9611 19.0779 29.9055 19.1779 29.8167 19.2668L28.55 20.4668C28.5944 20.6668 28.6167 20.9445 28.6167 21.3001C28.6167 21.6557 28.5944 21.9334 28.55 22.1334L29.8167 23.3334C29.9055 23.4223 29.9611 23.5223 29.9833 23.6334C30.0055 23.7445 29.9833 23.8445 29.9167 23.9334L29.4833 24.7001C29.4389 24.8112 29.3611 24.889 29.25 24.9334C29.1389 24.9779 29.0278 24.9779 28.9167 24.9334L27.45 24.6001C27.1833 24.8668 26.8555 25.1057 26.4667 25.3168C26.0778 25.5279 25.6944 25.689 25.3167 25.8001L25.05 27.5668C25.0278 27.7001 24.9722 27.8057 24.8833 27.8834C24.7944 27.9612 24.6833 28.0001 24.55 28.0001H23.6167C23.4833 28.0001 23.3722 27.9612 23.2833 27.8834C23.1944 27.8057 23.1389 27.7001 23.1167 27.5668L22.85 25.8001Z"
        fill="#01FF48" />
</svg>