<svg width="20" height="21" viewBox="0 0 20 21" fill="none" xmlns="http://www.w3.org/2000/svg">
    <path
        d="M6.46251 11.5838V17.2755C6.46251 17.6158 6.3273 17.9423 6.08663 18.1829C5.84596 18.4236 5.51954 18.5588 5.17918 18.5588H3.67084C3.50161 18.5599 3.33384 18.5275 3.17717 18.4635C3.02051 18.3995 2.87805 18.3052 2.758 18.1859C2.63795 18.0666 2.54267 17.9248 2.47766 17.7685C2.41264 17.6123 2.37917 17.4447 2.37918 17.2755V11.5838C2.37807 11.4139 2.41072 11.2454 2.47524 11.0882C2.53977 10.931 2.63487 10.7882 2.75503 10.668C2.87519 10.5478 3.01803 10.4527 3.17524 10.3882C3.33245 10.3237 3.50091 10.291 3.67084 10.2922H5.17918C5.34841 10.2922 5.51597 10.3256 5.67222 10.3906C5.82847 10.4556 5.97031 10.5509 6.08959 10.671C6.20887 10.791 6.30322 10.9335 6.36723 11.0902C6.43123 11.2468 6.46361 11.4146 6.46251 11.5838ZM17.6208 7.91715V17.2755C17.6208 17.6158 17.4856 17.9423 17.245 18.1829C17.0043 18.4236 16.6779 18.5588 16.3375 18.5588H14.8292C14.6599 18.5599 14.4922 18.5275 14.3355 18.4635C14.1788 18.3995 14.0364 18.3052 13.9163 18.1859C13.7963 18.0666 13.701 17.9248 13.636 17.7685C13.571 17.6123 13.5375 17.4447 13.5375 17.2755V7.91715C13.5375 7.74753 13.5709 7.57957 13.6358 7.42286C13.7007 7.26614 13.7959 7.12375 13.9158 7.00381C14.0358 6.88387 14.1782 6.78872 14.3349 6.72381C14.4916 6.6589 14.6596 6.62549 14.8292 6.62549H16.3708C16.7061 6.63631 17.0241 6.77716 17.2574 7.01823C17.4907 7.2593 17.621 7.58168 17.6208 7.91715Z"
        fill="white" />
    <path
        d="M12.0458 3.60026V17.2753C12.0458 17.4445 12.0123 17.6121 11.9473 17.7683C11.8823 17.9245 11.787 18.0664 11.6669 18.1857C11.5469 18.305 11.4044 18.3993 11.2478 18.4633C11.0911 18.5273 10.9233 18.5597 10.7541 18.5586H9.24577C8.90464 18.5586 8.57735 18.4237 8.33536 18.1832C8.09336 17.9428 7.9563 17.6164 7.9541 17.2753V3.60026C7.95629 3.25836 8.09307 2.93109 8.33484 2.68933C8.5766 2.44757 8.90387 2.31078 9.24577 2.30859H10.7541C11.0967 2.30859 11.4252 2.44468 11.6674 2.68691C11.9097 2.92915 12.0458 3.25769 12.0458 3.60026Z"
        fill="#01FF48" />
</svg>