<svg width="19" height="19" viewBox="0 0 19 19" fill="none" xmlns="http://www.w3.org/2000/svg">
<path d="M6.70622 5.7292L9.1252 16.0146C9.31009 16.8007 10.4153 16.8379 10.6526 16.0659L12.9838 8.48154L13.2886 9.69082C13.3772 10.0425 13.6935 10.289 14.0562 10.289H16.625C17.0623 10.289 17.4167 9.93455 17.4167 9.49733C17.4167 9.0601 17.0623 8.70566 16.625 8.70566H14.6731L13.8269 5.34816C13.6311 4.57148 12.5378 4.54343 12.3025 5.30905L9.99756 12.8079L7.50126 2.19374C7.31126 1.3859 6.16442 1.37756 5.96269 2.18255L4.32805 8.70566H2.37504C1.93782 8.70566 1.58337 9.0601 1.58337 9.49733C1.58337 9.93455 1.93782 10.289 2.37504 10.289H4.94581C5.30892 10.289 5.62547 10.042 5.71373 9.68976L6.70622 5.7292Z" fill="#00A1A1"/>
</svg>
