<svg width="34" height="29" viewBox="0 0 34 29" fill="none" xmlns="http://www.w3.org/2000/svg">
    <g clip-path="url(#clip0_5616_31855)">
        <path
            d="M13.377 14.792C12.6489 14.792 12.0586 15.387 12.0586 16.121C12.0586 16.855 12.6489 17.45 13.377 17.45C14.1052 17.45 14.6955 16.855 14.6955 16.121C14.6955 15.387 14.1052 14.792 13.377 14.792ZM13.0408 16.121C12.8516 16.1246 12.6952 15.9729 12.6915 15.7821C12.6879 15.5914 12.8384 15.4337 13.0277 15.43C13.2169 15.4264 13.3733 15.5781 13.377 15.7689C13.377 15.7711 13.377 15.7732 13.377 15.7754C13.377 15.9626 13.2265 16.1143 13.0408 16.1143V16.121Z"
            fill="#01FF48" />
        <path
            d="M20.6817 14.792C19.9536 14.792 19.3633 15.387 19.3633 16.121C19.3633 16.855 19.9536 17.45 20.6817 17.45C21.4099 17.45 22.0002 16.855 22.0002 16.121C22.0002 15.387 21.4099 14.792 20.6817 14.792ZM20.3389 16.121C20.1496 16.121 19.9961 15.9663 19.9961 15.7754C19.9961 15.5846 20.1496 15.4299 20.3389 15.4299C20.5283 15.4299 20.6817 15.5846 20.6817 15.7754C20.6818 15.9626 20.5313 16.1144 20.3456 16.1144C20.3434 16.1144 20.3412 16.1144 20.3389 16.1143V16.121Z"
            fill="#01FF48" />
        <path
            d="M18.4397 17.7021C18.2045 17.7057 18.0147 17.897 18.0112 18.1341C18.0112 18.6699 17.5804 19.1043 17.0488 19.1043C16.5173 19.1044 16.0863 18.6701 16.0862 18.1343C16.0862 18.1342 16.0862 18.1344 16.0862 18.1343C16.0567 17.8939 15.8395 17.723 15.601 17.7527C15.4031 17.7774 15.2472 17.9346 15.2227 18.1341C15.2221 19.1506 16.0392 19.9752 17.0477 19.9758C18.0562 19.9763 18.8742 19.1527 18.8748 18.1362C18.8748 18.1355 18.8748 18.1348 18.8748 18.1341C18.8712 17.8945 18.6774 17.7021 18.4397 17.7021Z"
            fill="#01FF48" />
        <path
            d="M21.7714 11.0312H12.3238C10.129 11.0347 8.35156 12.829 8.35156 15.0413V18.9296C8.35156 20.3925 9.50593 21.7961 10.9572 21.7995H23.0912C24.5434 21.7961 25.7402 20.3935 25.7436 18.9296V15.0413C25.7436 12.829 23.9661 11.0347 21.7714 11.0312ZM24.9588 18.9418C24.9588 19.9701 24.1114 21.0206 23.0912 21.0206H10.9572C9.93935 21.0173 9.13634 19.9678 9.13635 18.9418V15.0413C9.13634 13.2659 10.5624 11.8257 12.3238 11.8223H21.7714C23.5351 11.8223 24.9648 13.2635 24.9648 15.0413L24.9588 18.9418Z"
            fill="currentColor" stroke="currentColor" stroke-width="0.5" />
        <path
            d="M32.9822 8.36643C32.8574 7.428 32.0015 6.76927 31.0705 6.89512C30.1395 7.02097 29.4983 7.88216 29.6108 8.82218C29.7393 9.89518 30.6815 10.2111 30.8925 10.2669L31.0705 11.2769L30.3058 10.8981C30.1166 10.7956 29.8862 10.8702 29.7791 11.0579C29.7301 11.1436 29.5938 11.8085 29.5938 11.8085C29.2419 11.6449 28.8654 11.5416 28.4797 11.5028C28.001 9.13838 25.9296 7.44573 23.5355 7.46272H10.7136C8.32139 7.45094 6.25284 9.14124 5.7694 11.5028C5.30646 11.5516 4.85803 11.694 4.45095 11.9215L4.27295 11.144C4.22371 10.9021 3.99104 10.7613 3.71261 10.8849L2.97428 11.2636L3.13977 10.2886C4.5564 9.87825 4.59474 8.57816 4.33898 7.9133C3.92091 6.82652 2.47736 6.5506 1.67783 7.21666C0.924994 7.78291 0.779382 8.86964 1.34114 9.62849C1.58713 9.96078 1.9391 10.2092 2.3412 10.2964L1.98544 12.0278C1.90478 12.3718 2.30032 12.4734 2.55897 12.3667L3.6401 11.8085L3.76535 12.4132C3.0427 13.1056 2.63294 14.0661 2.63148 15.0712C2.60478 16.8654 3.89718 18.4037 5.65733 18.6727V19.6495C5.69352 22.4198 7.94531 24.6391 10.6938 24.6133H13.456C13.4479 25.6165 13.1773 26.5998 12.6715 27.4639C12.2045 28.1999 12.95 28.6777 13.4626 28.5471C15.6259 27.9957 17.2738 25.6747 17.8802 24.6212L23.5092 24.6133C26.2591 24.6428 28.5131 22.4214 28.5456 19.6495V18.7259C30.3278 18.478 31.6478 16.9309 31.6242 15.1177C31.6368 14.0074 31.1525 12.9505 30.3058 12.2404L30.3849 11.8284L31.466 12.3866C31.8122 12.5823 32.0824 12.3169 32.0461 12.0344L31.6638 10.3001C32.5347 10.1073 33.1101 9.26925 32.9822 8.37972V8.36643ZM2.00336 9.15178C1.70118 8.74625 1.77243 8.1753 2.17229 7.86744C2.58225 7.5518 3.17001 7.63115 3.4722 8.03667C3.6113 8.22804 3.68044 8.48339 3.65143 8.71882C3.58963 9.21877 3.14956 9.57307 2.6183 9.516C2.20854 9.45711 2.00336 9.15178 2.00336 9.15178ZM5.66392 12.4198V17.8354C4.17301 17.5099 3.22624 16.0276 3.54924 14.5248C3.77857 13.4578 4.60539 12.6244 5.66392 12.3933C5.66392 12.3933 5.67711 12.4132 5.67711 12.4198H5.66392ZM27.6689 19.7492C27.5532 21.9836 25.7223 23.7356 23.5026 23.7361H17.4362C17.3674 23.7361 17.3034 23.7718 17.2668 23.8305L16.6664 24.7927C16.3961 25.2578 14.102 27.7497 13.6669 27.5237C14.086 26.7093 14.3369 25.8243 14.4844 24.9189C14.5267 24.659 14.5476 23.935 14.5428 23.8771C14.5468 23.8042 14.4893 23.7428 14.4169 23.7428H10.6543C8.4293 23.6804 6.63918 21.8788 6.57365 19.6362V12.3733C6.67084 10.1281 8.48437 8.34663 10.7136 8.30662H23.5289C25.7794 8.39193 27.5842 10.2112 27.6689 12.4796V19.7492ZM30.787 15.0977C30.8053 16.4343 29.8634 17.5888 28.5588 17.8288V12.3866C30.6768 12.6056 30.787 15.0977 30.787 15.0977ZM31.4199 9.47613C31.1863 9.50537 30.9505 9.44357 30.7606 9.30336C30.36 8.99593 30.2805 8.42027 30.5827 8.01425C30.7248 7.81615 30.942 7.68625 31.1826 7.65542H31.3144C31.8204 7.6609 32.2363 8.07906 32.2208 8.58893C32.2011 9.24107 31.6594 9.44233 31.4199 9.47613Z"
            fill="currentColor" stroke="currentColor" stroke-width="0.5" />
        <path
            d="M27.9715 1.74142C28.2081 1.74142 28.4 1.54804 28.4 1.3095V0.432366C28.4002 0.193823 28.2086 0.000246563 27.9719 2.35314e-07C27.7353 -0.000246092 27.5432 0.192931 27.543 0.431474C27.543 0.431177 27.543 0.431771 27.543 0.431474V1.3095C27.5465 1.54655 27.7363 1.73785 27.9715 1.74142Z"
            fill="#01FF48" />
        <path
            d="M27.9715 4.62478C28.2081 4.62478 28.4 4.4314 28.4 4.19286V3.36889C28.4002 3.13035 28.2086 2.93677 27.9719 2.93652C27.7353 2.93628 27.5432 3.12945 27.543 3.368C27.543 3.3677 27.543 3.36829 27.543 3.368V4.19286C27.5465 4.42991 27.7363 4.62121 27.9715 4.62478Z"
            fill="#01FF48" />
        <path
            d="M28.9871 2.7447H29.8573C30.0939 2.7447 30.2858 2.55132 30.2858 2.31278C30.2858 2.07424 30.0939 1.88086 29.8573 1.88086H28.9871C28.7504 1.88086 28.5586 2.07424 28.5586 2.31278C28.5586 2.55132 28.7504 2.7447 28.9871 2.7447Z"
            fill="#01FF48" />
        <path
            d="M26.1121 2.7447H27.0086C27.2453 2.7447 27.4371 2.55132 27.4371 2.31278C27.4371 2.07424 27.2453 1.88086 27.0086 1.88086H26.1121C25.8754 1.88086 25.6836 2.07424 25.6836 2.31278C25.6836 2.55132 25.8754 2.7447 26.1121 2.7447Z"
            fill="#01FF48" />
        <path
            d="M23.0537 3.40976C23.2776 3.39944 23.4558 3.21694 23.4625 2.99113V2.55257C23.4622 2.31402 23.2702 2.12085 23.0335 2.12109C22.7972 2.12134 22.6057 2.31437 22.6055 2.55257V2.99113C22.6125 3.22957 22.8099 3.41712 23.0465 3.41004C23.0489 3.40997 23.0513 3.40988 23.0537 3.40976Z"
            fill="#01FF48" />
        <path
            d="M23.0535 5.78096C23.2901 5.78096 23.482 5.58759 23.482 5.34904V4.93041C23.4822 4.69187 23.2906 4.49829 23.0539 4.49805C22.8173 4.4978 22.6252 4.69098 22.625 4.92952C22.625 4.92923 22.625 4.92982 22.625 4.92952V5.34904C22.625 5.58759 22.8168 5.78096 23.0535 5.78096Z"
            fill="#01FF48" />
        <path
            d="M23.9585 4.41267H24.3738C24.6105 4.41267 24.8023 4.21929 24.8023 3.98075C24.8023 3.74221 24.6105 3.54883 24.3738 3.54883H23.9519C23.7153 3.54883 23.5234 3.74221 23.5234 3.98075C23.5234 4.21929 23.7153 4.41267 23.9519 4.41267H23.9585Z"
            fill="#01FF48" />
        <path
            d="M21.7351 4.41267H22.1505C22.3871 4.41267 22.5789 4.21929 22.5789 3.98075C22.5789 3.74221 22.3871 3.54883 22.1505 3.54883H21.7351C21.4985 3.54883 21.3066 3.74221 21.3066 3.98075C21.3066 4.21929 21.4985 4.41267 21.7351 4.41267Z"
            fill="#01FF48" />
    </g>
    <defs>
        <clipPath id="clip0_5616_31855">
            <rect width="34" height="29" fill="white" />
        </clipPath>
    </defs>
</svg>