<svg width="20" height="20" viewBox="0 0 20 20" fill="none" xmlns="http://www.w3.org/2000/svg">
    <path
        d="M7.50008 1.6665H2.50008C2.27907 1.6665 2.06711 1.7543 1.91083 1.91058C1.75455 2.06686 1.66675 2.27882 1.66675 2.49984V7.49984C1.66675 7.72085 1.75455 7.93281 1.91083 8.08909C2.06711 8.24537 2.27907 8.33317 2.50008 8.33317H7.50008C7.72109 8.33317 7.93306 8.24537 8.08934 8.08909C8.24562 7.93281 8.33341 7.72085 8.33341 7.49984V2.49984C8.33341 2.27882 8.24562 2.06686 8.08934 1.91058C7.93306 1.7543 7.72109 1.6665 7.50008 1.6665ZM7.50008 11.6665H2.50008C2.27907 11.6665 2.06711 11.7543 1.91083 11.9106C1.75455 12.0669 1.66675 12.2788 1.66675 12.4998V17.4998C1.66675 17.7209 1.75455 17.9328 1.91083 18.0891C2.06711 18.2454 2.27907 18.3332 2.50008 18.3332H7.50008C7.72109 18.3332 7.93306 18.2454 8.08934 18.0891C8.24562 17.9328 8.33341 17.7209 8.33341 17.4998V12.4998C8.33341 12.2788 8.24562 12.0669 8.08934 11.9106C7.93306 11.7543 7.72109 11.6665 7.50008 11.6665ZM17.5001 1.6665H12.5001C12.2791 1.6665 12.0671 1.7543 11.9108 1.91058C11.7545 2.06686 11.6667 2.27882 11.6667 2.49984V7.49984C11.6667 7.72085 11.7545 7.93281 11.9108 8.08909C12.0671 8.24537 12.2791 8.33317 12.5001 8.33317H17.5001C17.7211 8.33317 17.9331 8.24537 18.0893 8.08909C18.2456 7.93281 18.3334 7.72085 18.3334 7.49984V2.49984C18.3334 2.27882 18.2456 2.06686 18.0893 1.91058C17.9331 1.7543 17.7211 1.6665 17.5001 1.6665Z"
        stroke="white" stroke-width="1.5" stroke-linejoin="round" />
    <path d="M11.6667 11.6665H18.3334M15.0001 14.9998H18.3334M11.6667 18.3332H18.3334" stroke="#01FF48"
        stroke-width="1.5" stroke-linecap="round" stroke-linejoin="round" />
</svg>