<svg width="7" height="12" viewBox="0 0 7 12" fill="none" xmlns="http://www.w3.org/2000/svg">
<path d="M5.42172 4.91425C5.00751 4.91425 4.67172 5.25003 4.67172 5.66425C4.67172 6.07846 5.00751 6.41425 5.42172 6.41425L5.42172 4.91425ZM6.12451 6.19458C6.4174 5.90168 6.4174 5.42681 6.12451 5.13392L1.35153 0.360944C1.05864 0.068051 0.583768 0.0680509 0.290875 0.360944C-0.00201849 0.653838 -0.00201853 1.12871 0.290875 1.4216L4.53351 5.66425L0.290874 9.90689C-0.00201933 10.1998 -0.00201937 10.6747 0.290874 10.9675C0.583767 11.2604 1.05864 11.2604 1.35153 10.9675L6.12451 6.19458ZM5.42172 6.41425L5.59418 6.41425L5.59418 4.91425L5.42172 4.91425L5.42172 6.41425Z" fill="#BFBFBF"/>
</svg>
