<svg width="56" height="45" viewBox="0 0 56 45" fill="none" xmlns="http://www.w3.org/2000/svg">
<rect width="56" height="45" rx="5" fill="transparent"/>
<path d="M39 23C39.5523 23 40 22.5523 40 22C40 21.4477 39.5523 21 39 21V23ZM17.2929 21.2929C16.9024 21.6834 16.9024 22.3166 17.2929 22.7071L23.6569 29.0711C24.0474 29.4616 24.6805 29.4616 25.0711 29.0711C25.4616 28.6805 25.4616 28.0474 25.0711 27.6569L19.4142 22L25.0711 16.3431C25.4616 15.9526 25.4616 15.3195 25.0711 14.9289C24.6805 14.5384 24.0474 14.5384 23.6569 14.9289L17.2929 21.2929ZM39 21L18 21V23L39 23V21Z" fill="#00A1A1"/>
</svg>
