<svg width="33" height="32" viewBox="0 0 33 32" fill="none" xmlns="http://www.w3.org/2000/svg">
    <path
        d="M7.7247 21.2149C5.58604 19.4242 4.35004 16.9829 4.35004 14.3669C4.35004 9.02287 9.45937 4.74951 15.698 4.74951C21.938 4.74951 27.0487 9.02154 27.0487 14.3669C27.0487 19.7109 21.938 23.9829 15.698 23.9829C14.9967 23.9829 14.3056 23.9295 13.6247 23.8229C13.3314 23.8909 12.1554 24.5802 10.462 25.8002C9.8487 26.2429 8.97937 25.8162 8.97937 25.0709V22.1202C8.5402 21.8486 8.12132 21.5457 7.72604 21.2135M13.666 22.0029C13.7176 22.0029 13.7696 22.0069 13.822 22.0149C14.4354 22.1162 15.0607 22.1673 15.698 22.1682C20.9687 22.1682 25.186 18.6415 25.186 14.3655C25.186 10.0909 20.9687 6.56418 15.6994 6.56418C10.43 6.56418 6.21004 10.0935 6.21004 14.3669C6.21004 16.4335 7.1967 18.3802 8.93804 19.8375C9.37715 20.2038 9.85537 20.5326 10.3727 20.8242C10.5131 20.9021 10.6302 21.0158 10.7122 21.1538C10.7941 21.2918 10.838 21.449 10.8394 21.6095V23.3109C12.1794 22.4242 13.0607 22.0029 13.666 22.0029Z"
        fill="currentColor" />
    <path
        d="M16.6868 24.6748C17.5307 24.6171 18.3675 24.4824 19.1868 24.2721C20.1987 24.5763 21.2668 24.6452 22.3094 24.4735C22.351 24.4684 22.3929 24.4653 22.4348 24.4641C22.8068 24.4641 23.2948 24.6775 24.0068 25.1268V24.3881C24.0071 24.2595 24.0419 24.1332 24.1076 24.0225C24.1732 23.9119 24.2673 23.8208 24.3801 23.7588C24.6903 23.5837 24.977 23.3868 25.2401 23.1681C26.2774 22.3015 26.8628 21.1441 26.8628 19.9201C26.8628 19.5161 26.7988 19.1135 26.6721 18.7295C26.9868 18.1508 27.2374 17.5468 27.4241 16.9175C28.0241 17.8041 28.3468 18.8508 28.3508 19.9201C28.3508 21.5841 27.5668 23.1361 26.2081 24.2708C25.9805 24.4601 25.7428 24.6344 25.4948 24.7935V26.5241C25.4948 27.1188 24.7988 27.4615 24.3081 27.1068C23.8432 26.7648 23.3627 26.4444 22.8681 26.1468C22.7253 26.0644 22.5773 25.991 22.4254 25.9268C22.0127 25.988 21.596 26.0187 21.1788 26.0188C19.4854 26.0188 17.9201 25.5161 16.6868 24.6748Z"
        fill="#01FF48" />
    <path
        d="M11.0983 16C11.4961 16 11.8776 15.842 12.1589 15.5606C12.4402 15.2794 12.5983 14.8979 12.5983 14.5C12.5983 14.1021 12.4402 13.7206 12.1589 13.4394C11.8776 13.158 11.4961 13 11.0983 13C10.7004 13 10.3189 13.158 10.0376 13.4394C9.75631 13.7206 9.59827 14.1021 9.59827 14.5C9.59827 14.8979 9.75631 15.2794 10.0376 15.5606C10.3189 15.842 10.7004 16 11.0983 16ZM15.9743 16C16.372 16 16.7536 15.842 17.0349 15.5606C17.3162 15.2794 17.4743 14.8979 17.4743 14.5C17.4743 14.1021 17.3162 13.7206 17.0349 13.4394C16.7536 13.158 16.372 13 15.9743 13C15.5764 13 15.1949 13.158 14.9136 13.4394C14.6323 13.7206 14.4743 14.1021 14.4743 14.5C14.4743 14.8979 14.6323 15.2794 14.9136 15.5606C15.1949 15.842 15.5764 16 15.9743 16ZM20.8489 16C21.2467 16 21.6283 15.842 21.9096 15.5606C22.1909 15.2794 22.3489 14.8979 22.3489 14.5C22.3489 14.1021 22.1909 13.7206 21.9096 13.4394C21.6283 13.158 21.2467 13 20.8489 13C20.4511 13 20.0696 13.158 19.7883 13.4394C19.507 13.7206 19.3489 14.1021 19.3489 14.5C19.3489 14.8979 19.507 15.2794 19.7883 15.5606C20.0696 15.842 20.4511 16 20.8489 16Z"
        fill="#01FF48" />
</svg>