<svg width="25" height="24" viewBox="0 0 25 24" fill="none" xmlns="http://www.w3.org/2000/svg">
    <path
        d="M12.5 2C18.023 2 22.5 6.477 22.5 12C22.5 14.6522 21.4464 17.1957 19.5711 19.0711C17.6957 20.9464 15.1522 22 12.5 22C9.84784 22 7.3043 20.9464 5.42893 19.0711C3.55357 17.1957 2.5 14.6522 2.5 12L2.504 11.72C2.652 6.327 7.07 2 12.5 2ZM15.5 14.12C15.2348 14.12 14.9804 14.2254 14.7929 14.4129C14.6054 14.6004 14.5 14.8548 14.5 15.12V15.135C14.5 15.4002 14.6054 15.6546 14.7929 15.8421C14.9804 16.0296 15.2348 16.135 15.5 16.135C15.7652 16.135 16.0196 16.0296 16.2071 15.8421C16.3946 15.6546 16.5 15.4002 16.5 15.135V15.12C16.5 14.8548 16.3946 14.6004 16.2071 14.4129C16.0196 14.2254 15.7652 14.12 15.5 14.12ZM16.207 8.368C16.0195 8.18053 15.7652 8.07521 15.5 8.07521C15.2348 8.07521 14.9805 8.18053 14.793 8.368L8.793 14.368C8.61084 14.5566 8.51005 14.8092 8.51233 15.0714C8.5146 15.3336 8.61977 15.5844 8.80518 15.7698C8.99059 15.9552 9.2414 16.0604 9.5036 16.0627C9.7658 16.065 10.0184 15.9642 10.207 15.782L16.207 9.782C16.3945 9.59447 16.4998 9.34016 16.4998 9.075C16.4998 8.80984 16.3945 8.55553 16.207 8.368ZM9.5 8.105C9.23478 8.105 8.98043 8.21036 8.79289 8.39789C8.60536 8.58543 8.5 8.83978 8.5 9.105V9.12C8.5 9.38522 8.60536 9.63957 8.79289 9.82711C8.98043 10.0146 9.23478 10.12 9.5 10.12C9.76522 10.12 10.0196 10.0146 10.2071 9.82711C10.3946 9.63957 10.5 9.38522 10.5 9.12V9.105C10.5 8.83978 10.3946 8.58543 10.2071 8.39789C10.0196 8.21036 9.76522 8.105 9.5 8.105Z"
        fill="#022213" />
</svg>