<svg width="20" height="20" viewBox="0 0 20 20" fill="none" xmlns="http://www.w3.org/2000/svg">
    <path
        d="M13.2501 15.375C14.3751 15.375 15.2918 14.4583 15.2918 13.3333C15.2918 12.2083 14.3751 11.2917 13.2501 11.2917C12.1168 11.2917 11.2084 12.2083 11.2084 13.3333C11.2084 14.4583 12.1168 15.375 13.2501 15.375ZM17.5834 13.9L18.8168 14.8667C18.9251 14.9583 18.9584 15.1083 18.8834 15.2417L17.7168 17.2583C17.6818 17.3185 17.6264 17.3642 17.5607 17.3871C17.495 17.41 17.4232 17.4087 17.3584 17.3833L15.9084 16.8C15.6084 17.0333 15.2751 17.225 14.9251 17.375L14.7001 18.9167C14.6834 19.0583 14.5584 19.1667 14.4168 19.1667H12.0834C11.9334 19.1667 11.8168 19.0583 11.7918 18.9167L11.5751 17.375C11.2168 17.225 10.8918 17.0333 10.5918 16.8L9.13343 17.3833C9.00843 17.4333 8.85009 17.3833 8.78343 17.2583L7.61676 15.2417C7.58109 15.1815 7.56819 15.1106 7.58043 15.0418C7.59267 14.973 7.62922 14.9108 7.68343 14.8667L8.91676 13.9L8.87509 13.3333L8.91676 12.7583L7.68343 11.8C7.62922 11.7559 7.59267 11.6937 7.58043 11.6249C7.56819 11.5561 7.58109 11.4851 7.61676 11.425L8.78343 9.40833C8.85009 9.275 9.00843 9.225 9.13343 9.275L10.5918 9.86667C10.8918 9.63333 11.2168 9.43333 11.5751 9.29167L11.7918 7.74167C11.8168 7.60833 11.9334 7.5 12.0834 7.5H14.4168C14.5584 7.5 14.6834 7.60833 14.7001 7.74167L14.9251 9.29167C15.2751 9.43333 15.6084 9.63333 15.9084 9.86667L17.3584 9.275C17.5001 9.225 17.6418 9.275 17.7168 9.40833L18.8834 11.425C18.9584 11.55 18.9251 11.7083 18.8168 11.8L17.5834 12.7583L17.6251 13.3333L17.5834 13.9Z"
        fill="white" />
    <path
        d="M5.57522 6.72533C6.30022 6.72533 6.88356 6.14199 6.88356 5.41699C6.88356 4.69199 6.30022 4.10033 5.57522 4.10033C5.22602 4.10033 4.89112 4.23905 4.6442 4.48597C4.39728 4.73289 4.25856 5.06779 4.25856 5.41699C4.25856 6.14199 4.85022 6.72533 5.57522 6.72533ZM8.35856 5.78366L9.16689 6.40033C9.22523 6.45866 9.24189 6.55866 9.19189 6.64199L8.44189 7.94199C8.40022 8.02533 8.30022 8.05866 8.21689 8.02533L7.28356 7.65033L6.66689 8.01699L6.50856 9.00866C6.49189 9.10033 6.41689 9.16699 6.32522 9.16699H4.82522C4.72522 9.16699 4.65022 9.10033 4.63356 9.00866L4.50022 8.01699L3.86689 7.65033L2.91689 8.02533C2.84189 8.05866 2.75022 8.02533 2.70022 7.94199L1.95022 6.64199C1.90022 6.55866 1.92522 6.45866 1.99189 6.40033L2.78356 5.78366L2.75856 5.41699L2.78356 5.05033L1.99189 4.43366C1.9578 4.4046 1.93496 4.36451 1.92735 4.32036C1.91974 4.27621 1.92783 4.23079 1.95022 4.19199L2.70022 2.89199C2.75022 2.80866 2.84189 2.77533 2.91689 2.80866L3.85856 3.18366L4.50022 2.81699L4.63356 1.82533C4.65022 1.73366 4.72522 1.66699 4.82522 1.66699H6.32522C6.41689 1.66699 6.49189 1.73366 6.50856 1.82533L6.66689 2.81699L7.28356 3.18366L8.21689 2.80866C8.30022 2.77533 8.40022 2.80866 8.44189 2.89199L9.19189 4.19199C9.24189 4.27533 9.22523 4.37533 9.16689 4.43366L8.35856 5.05033L8.38356 5.41699L8.35856 5.78366Z"
        fill="#01FF48" />
</svg>