<svg width="28" height="29" viewBox="0 0 23 23" fill="none" xmlns="http://www.w3.org/2000/svg">
    <circle cx="11.5" cy="11.5" r="11.5" fill="#449ADF" fill-opacity="0.13" />
    <path
        d="M16.5 8H7.16667C6.525 8 6.00583 8.5625 6.00583 9.25L6 15.5C6 16.1875 6.525 16.75 7.16667 16.75H16.5C17.1417 16.75 17.6667 16.1875 17.6667 15.5V9.25C17.6667 8.5625 17.1417 8 16.5 8ZM11.25 9.875H12.4167V11.125H11.25V9.875ZM11.25 11.75H12.4167V13H11.25V11.75ZM9.5 9.875H10.6667V11.125H9.5V9.875ZM9.5 11.75H10.6667V13H9.5V11.75ZM8.91667 13H7.75V11.75H8.91667V13ZM8.91667 11.125H7.75V9.875H8.91667V11.125ZM14.1667 15.5H9.5V14.25H14.1667V15.5ZM14.1667 13H13V11.75H14.1667V13ZM14.1667 11.125H13V9.875H14.1667V11.125ZM15.9167 13H14.75V11.75H15.9167V13ZM15.9167 11.125H14.75V9.875H15.9167V11.125Z"
        fill="#449ADF" />
</svg>