<svg width="18" height="16" viewBox="0 0 18 16" fill="none" xmlns="http://www.w3.org/2000/svg">
    <path
        d="M8.79175 15.5C8.61466 15.5 8.46623 15.4398 8.34644 15.3193C8.22664 15.1988 8.16675 15.0495 8.16675 14.8714C8.16675 14.6932 8.22664 14.5451 8.34644 14.4271C8.46623 14.309 8.61466 14.25 8.79175 14.25H15.2501V7.91667C15.2501 7.11111 15.0765 6.33681 14.7292 5.59375C14.382 4.85069 13.9167 4.19444 13.3334 3.625C12.7501 3.05556 12.0834 2.60069 11.3334 2.26042C10.5834 1.92014 9.80564 1.75 9.00008 1.75C8.19453 1.75 7.41675 1.92014 6.66675 2.26042C5.91675 2.60069 5.25008 3.05556 4.66675 3.625C4.08341 4.19444 3.61814 4.85069 3.27091 5.59375C2.92369 6.33681 2.75008 7.11111 2.75008 7.91667V12.5833C2.75008 12.7014 2.71015 12.8003 2.63029 12.8802C2.55043 12.9601 2.45147 13 2.33341 13C1.87508 13 1.48272 12.8368 1.15633 12.5104C0.829942 12.184 0.666748 11.7917 0.666748 11.3333V9.66667C0.666748 9.34722 0.743137 9.06597 0.895915 8.82292C1.04869 8.57986 1.25008 8.38194 1.50008 8.22917L1.56258 7.125C1.68758 6.11111 1.97578 5.19444 2.42716 4.375C2.87855 3.55556 3.44105 2.86111 4.11466 2.29167C4.78828 1.72222 5.54522 1.28125 6.3855 0.96875C7.22578 0.65625 8.0973 0.5 9.00008 0.5C9.91675 0.5 10.7952 0.65625 11.6355 0.96875C12.4758 1.28125 13.2292 1.72569 13.8959 2.30208C14.5626 2.87847 15.1216 3.57292 15.573 4.38542C16.0244 5.19792 16.3126 6.10417 16.4376 7.10417L16.5001 8.1875C16.7501 8.3125 16.9515 8.49653 17.1042 8.73958C17.257 8.98264 17.3334 9.25 17.3334 9.54167V11.4583C17.3334 11.7639 17.257 12.0347 17.1042 12.2708C16.9515 12.5069 16.7501 12.6875 16.5001 12.8125V14.25C16.5001 14.5938 16.3777 14.888 16.1329 15.1328C15.8881 15.3776 15.5938 15.5 15.2501 15.5H8.79175ZM6.50008 9.45833C6.33341 9.45833 6.18758 9.39583 6.06258 9.27083C5.93758 9.14583 5.87508 8.99653 5.87508 8.82292C5.87508 8.64931 5.93758 8.50347 6.06258 8.38542C6.18758 8.26736 6.33689 8.20833 6.5105 8.20833C6.68411 8.20833 6.82994 8.26823 6.948 8.38802C7.06605 8.50781 7.12508 8.65625 7.12508 8.83333C7.12508 9 7.06519 9.14583 6.94539 9.27083C6.8256 9.39583 6.67716 9.45833 6.50008 9.45833ZM11.5001 9.45833C11.3334 9.45833 11.1876 9.39583 11.0626 9.27083C10.9376 9.14583 10.8751 8.99653 10.8751 8.82292C10.8751 8.64931 10.9376 8.50347 11.0626 8.38542C11.1876 8.26736 11.3369 8.20833 11.5105 8.20833C11.6841 8.20833 11.8299 8.26823 11.948 8.38802C12.0661 8.50781 12.1251 8.65625 12.1251 8.83333C12.1251 9 12.0652 9.14583 11.9454 9.27083C11.8256 9.39583 11.6772 9.45833 11.5001 9.45833ZM4.02091 8.375C3.96536 7.55556 4.07994 6.8125 4.36466 6.14583C4.64939 5.47917 5.03133 4.91319 5.5105 4.44792C5.98966 3.98264 6.54175 3.625 7.16675 3.375C7.79175 3.125 8.41675 3 9.04175 3C10.3056 3 11.3681 3.39931 12.2292 4.19792C13.0904 4.99653 13.6181 5.99306 13.8126 7.1875C12.507 7.17361 11.3577 6.82292 10.3647 6.13542C9.37161 5.44792 8.60425 4.55556 8.06258 3.45833C7.84036 4.58333 7.37161 5.57986 6.65633 6.44792C5.94105 7.31597 5.06258 7.95833 4.02091 8.375Z"
        fill="white" />
    <path
        d="M6.5001 9.45833C6.33343 9.45833 6.1876 9.39583 6.0626 9.27083C5.9376 9.14583 5.8751 8.99653 5.8751 8.82292C5.8751 8.64931 5.9376 8.50347 6.0626 8.38542C6.1876 8.26736 6.3369 8.20833 6.51051 8.20833C6.68412 8.20833 6.82996 8.26823 6.94801 8.38802C7.06607 8.50781 7.1251 8.65625 7.1251 8.83333C7.1251 9 7.0652 9.14583 6.94541 9.27083C6.82562 9.39583 6.67718 9.45833 6.5001 9.45833ZM11.5001 9.45833C11.3334 9.45833 11.1876 9.39583 11.0626 9.27083C10.9376 9.14583 10.8751 8.99653 10.8751 8.82292C10.8751 8.64931 10.9376 8.50347 11.0626 8.38542C11.1876 8.26736 11.3369 8.20833 11.5105 8.20833C11.6841 8.20833 11.83 8.26823 11.948 8.38802C12.0661 8.50781 12.1251 8.65625 12.1251 8.83333C12.1251 9 12.0652 9.14583 11.9454 9.27083C11.8256 9.39583 11.6772 9.45833 11.5001 9.45833ZM4.02093 8.375C3.96537 7.55556 4.07996 6.8125 4.36468 6.14583C4.6494 5.47917 5.03135 4.91319 5.51051 4.44792C5.98968 3.98264 6.54176 3.625 7.16676 3.375C7.79176 3.125 8.41676 3 9.04176 3C10.3057 3 11.3682 3.39931 12.2293 4.19792C13.0904 4.99653 13.6182 5.99306 13.8126 7.1875C12.507 7.17361 11.3577 6.82292 10.3647 6.13542C9.37162 5.44792 8.60426 4.55556 8.0626 3.45833C7.84037 4.58333 7.37162 5.57986 6.65635 6.44792C5.94107 7.31597 5.0626 7.95833 4.02093 8.375Z"
        fill="#01FF48" />
</svg>