<svg width="38" height="38" viewBox="0 0 38 38" fill="none" xmlns="http://www.w3.org/2000/svg">
    <rect width="38" height="38" fill="#1E1E1E" />
    <g id="All icons">
        <rect width="1680" height="630" transform="translate(-1339 -427)" fill="white" />
        <g id="Create-server 1">
            <g id="Group 29">
                <g id="Group">
                    <g id="Group_2">
                        <g id="Group_3">
                            <path id="Vector"
                                d="M31.2609 17.2781V13.7453H24.2695V6.75391H20.7367V13.7453H13.7453V17.2781H20.7367V24.2695H24.2695V17.2781H31.2609ZM33.057 1.48438C33.9922 1.48438 34.7938 1.82578 35.4914 2.50859C36.1742 3.19141 36.5156 3.99297 36.5156 4.92813V25.9766C36.5156 26.9117 36.1742 27.7281 35.4914 28.4406C34.8086 29.1531 33.9922 29.5094 33.057 29.5094H12.0086C11.0734 29.5094 10.257 29.1531 9.54453 28.4406C8.83203 27.7281 8.47578 26.9117 8.47578 25.9766V4.94297C8.47578 4.00781 8.83203 3.20625 9.54453 2.50859C10.257 1.82578 11.0734 1.48438 12.0086 1.48438H33.057ZM4.94297 8.47578V33.057H29.5242V36.5156H4.94297C4.00781 36.5156 3.20625 36.1742 2.50859 35.4914C1.82578 34.8086 1.48438 34.007 1.48438 33.0719V8.47578H4.94297Z"
                                fill="black" />
                        </g>
                    </g>
                </g>
                <path id="Vector_2" d="M5 8.5H1.5V33.5C1.5 35.1569 2.84315 36.5 4.5 36.5H29.5V33H5V8.5Z"
                    fill="#449B9C" />
            </g>
        </g>
    </g>
</svg>