<svg width="20" height="21" viewBox="0 0 20 21" fill="none" xmlns="http://www.w3.org/2000/svg">
    <path
        d="M10.0001 2.1001C8.90575 2.1001 7.82208 2.31565 6.81104 2.73444C5.8 3.15322 4.88133 3.76705 4.10752 4.54087C2.54472 6.10368 1.66675 8.22331 1.66675 10.4334C1.66675 12.6436 2.54472 14.7632 4.10752 16.326C4.88133 17.0998 5.8 17.7136 6.81104 18.1324C7.82208 18.5512 8.90575 18.7668 10.0001 18.7668C12.2102 18.7668 14.3298 17.8888 15.8926 16.326C17.4555 14.7632 18.3334 12.6436 18.3334 10.4334C18.3334 9.3391 18.1179 8.25543 17.6991 7.24439C17.2803 6.23335 16.6665 5.31468 15.8926 4.54087C15.1188 3.76705 14.2002 3.15322 13.1891 2.73444C12.1781 2.31565 11.0944 2.1001 10.0001 2.1001ZM10.0001 3.76676C11.7682 3.76676 13.4639 4.46914 14.7141 5.71939C15.9644 6.96964 16.6667 8.66531 16.6667 10.4334C16.6667 12.4334 15.8334 14.1834 14.4167 15.4334C13.2501 14.3501 11.6667 13.7668 10.0001 13.7668C8.33341 13.7668 6.83341 14.3501 5.58341 15.4334C4.16675 14.1834 3.33341 12.4334 3.33341 10.4334C3.33341 8.66531 4.03579 6.96964 5.28604 5.71939C6.53629 4.46914 8.23196 3.76676 10.0001 3.76676ZM8.33341 5.43343C8.11241 5.43343 7.90046 5.52122 7.74416 5.67751C7.58787 5.83381 7.50008 6.04576 7.50008 6.26676C7.50008 6.48776 7.58787 6.69972 7.74416 6.85601C7.90046 7.01231 8.11241 7.1001 8.33341 7.1001C8.55441 7.1001 8.76637 7.01231 8.92266 6.85601C9.07896 6.69972 9.16675 6.48776 9.16675 6.26676C9.16675 6.04576 9.07896 5.83381 8.92266 5.67751C8.76637 5.52122 8.55441 5.43343 8.33341 5.43343ZM5.83341 7.93343C5.61241 7.93343 5.40046 8.02122 5.24416 8.17751C5.08787 8.33381 5.00008 8.54576 5.00008 8.76676C5.00008 8.98776 5.08787 9.19972 5.24416 9.35601C5.40046 9.51231 5.61241 9.6001 5.83341 9.6001C6.05441 9.6001 6.26637 9.51231 6.42266 9.35601C6.57896 9.19972 6.66675 8.98776 6.66675 8.76676C6.66675 8.54576 6.57896 8.33381 6.42266 8.17751C6.26637 8.02122 6.05441 7.93343 5.83341 7.93343ZM14.1667 7.93343C13.9457 7.93343 13.7338 8.02122 13.5775 8.17751C13.4212 8.33381 13.3334 8.54576 13.3334 8.76676C13.3334 8.98776 13.4212 9.19972 13.5775 9.35601C13.7338 9.51231 13.9457 9.6001 14.1667 9.6001C14.3877 9.6001 14.5997 9.51231 14.756 9.35601C14.9123 9.19972 15.0001 8.98776 15.0001 8.76676C15.0001 8.54576 14.9123 8.33381 14.756 8.17751C14.5997 8.02122 14.3877 7.93343 14.1667 7.93343Z"
        fill="white" />
    <path
        d="M11.6668 5.34229C11.3502 5.35062 11.0502 5.55895 10.9168 5.88395L9.84183 8.57562L9.7585 8.76728C9.16683 8.87562 8.67517 9.26728 8.45017 9.81729C8.1085 10.6756 8.52517 11.6423 9.3835 11.984C10.2418 12.3256 11.2085 11.909 11.5502 11.0506C11.7668 10.5006 11.6668 9.86728 11.3085 9.40062L11.3918 9.18395L12.4668 6.50895L12.4752 6.48395C12.6418 6.05895 12.4335 5.57562 12.0085 5.40062C11.9002 5.35895 11.7918 5.34229 11.6668 5.34229Z"
        fill="#01FF48" />
</svg>