<svg width="23" height="23" viewBox="0 0 23 23" fill="none" xmlns="http://www.w3.org/2000/svg">
<g clip-path="url(#clip0_11_738)">
<path d="M11.5 0C5.14874 0 0 5.14874 0 11.5C0 17.8513 5.14874 23 11.5 23C17.8513 23 23 17.8513 23 11.5C23 5.14874 17.8513 0 11.5 0ZM15.3887 13.611C15.8796 14.102 15.8796 14.8978 15.3887 15.3888C15.1433 15.6342 14.8216 15.7569 14.4999 15.7569C14.1782 15.7569 13.8565 15.6342 13.611 15.3888L11.5 13.2777L9.38901 15.3888C9.14358 15.6342 8.82188 15.7569 8.50018 15.7569C8.17848 15.7569 7.85678 15.6342 7.61135 15.3888C7.12043 14.8979 7.12043 14.102 7.61135 13.611L9.72239 11.5L7.61135 9.38896C7.12043 8.89804 7.12043 8.10216 7.61135 7.61125C8.10226 7.12033 8.89814 7.12033 9.38906 7.61125L11.5001 9.72229L13.611 7.61125C14.102 7.12033 14.8978 7.12033 15.3888 7.61125C15.8797 8.10211 15.8797 8.89804 15.3888 9.38896L13.2777 11.5L15.3887 13.611Z"/>
</g>
<defs>
<clipPath id="clip0_11_738">
<rect width="23" height="23" fill="white"/>
</clipPath>
</defs>
</svg>
