<svg width="14" height="18" viewBox="0 0 14 18" fill="none" xmlns="http://www.w3.org/2000/svg">
    <path
        d="M4.27075 13.7915H9.72909C9.90617 13.7915 10.0546 13.7313 10.1744 13.6108C10.2942 13.4903 10.3541 13.341 10.3541 13.1629C10.3541 12.9847 10.2942 12.8366 10.1744 12.7186C10.0546 12.6005 9.90617 12.5415 9.72909 12.5415H4.27075C4.09367 12.5415 3.94523 12.6017 3.82544 12.7222C3.70565 12.8427 3.64575 12.992 3.64575 13.1701C3.64575 13.3483 3.70565 13.4964 3.82544 13.6144C3.94523 13.7325 4.09367 13.7915 4.27075 13.7915ZM4.27075 10.2498H9.72909C9.90617 10.2498 10.0546 10.1896 10.1744 10.0691C10.2942 9.94861 10.3541 9.7993 10.3541 9.62119C10.3541 9.44307 10.2942 9.29498 10.1744 9.17692C10.0546 9.05886 9.90617 8.99984 9.72909 8.99984H4.27075C4.09367 8.99984 3.94523 9.06008 3.82544 9.18057C3.70565 9.30107 3.64575 9.45037 3.64575 9.62848C3.64575 9.80661 3.70565 9.9547 3.82544 10.0728C3.94523 10.1908 4.09367 10.2498 4.27075 10.2498ZM1.58325 17.3332C1.24992 17.3332 0.958252 17.2082 0.708252 16.9582C0.458252 16.7082 0.333252 16.4165 0.333252 16.0832V1.9165C0.333252 1.58317 0.458252 1.2915 0.708252 1.0415C0.958252 0.791504 1.24992 0.666504 1.58325 0.666504H8.58325C8.75609 0.666504 8.92082 0.701226 9.07746 0.770671C9.2341 0.840115 9.36798 0.930393 9.47909 1.0415L13.2916 4.854C13.4027 4.96511 13.493 5.09899 13.5624 5.25563C13.6319 5.41227 13.6666 5.577 13.6666 5.74984V16.0832C13.6666 16.4165 13.5416 16.7082 13.2916 16.9582C13.0416 17.2082 12.7499 17.3332 12.4166 17.3332H1.58325ZM8.47909 5.1665V1.9165H1.58325V16.0832H12.4166V5.7915H9.10409C8.927 5.7915 8.77857 5.73161 8.65877 5.61182C8.53898 5.49202 8.47909 5.34359 8.47909 5.1665Z"
        fill="white" />
    <path
        d="M4.27075 13.7917H9.72909C9.90617 13.7917 10.0546 13.7314 10.1744 13.6109C10.2942 13.4904 10.3541 13.3411 10.3541 13.163C10.3541 12.9849 10.2942 12.8368 10.1744 12.7188C10.0546 12.6007 9.90617 12.5417 9.72909 12.5417H4.27075C4.09367 12.5417 3.94523 12.6019 3.82544 12.7224C3.70565 12.8429 3.64575 12.9922 3.64575 13.1703C3.64575 13.3484 3.70565 13.4965 3.82544 13.6146C3.94523 13.7326 4.09367 13.7917 4.27075 13.7917ZM4.27075 10.25H9.72909C9.90617 10.25 10.0546 10.1898 10.1744 10.0693C10.2942 9.94877 10.3541 9.79947 10.3541 9.62135C10.3541 9.44323 10.2942 9.29514 10.1744 9.17708C10.0546 9.05903 9.90617 9 9.72909 9H4.27075C4.09367 9 3.94523 9.06024 3.82544 9.18073C3.70565 9.30123 3.64575 9.45053 3.64575 9.62864C3.64575 9.80677 3.70565 9.95486 3.82544 10.0729C3.94523 10.191 4.09367 10.25 4.27075 10.25Z"
        fill="#01FF48" />
</svg>