<svg width="36" height="34" viewBox="0 0 36 34" fill="none" xmlns="http://www.w3.org/2000/svg">
    <rect width="35.619" height="34" rx="4" fill="#E6F2E6" />
    <path
        d="M9 17C9 18.1819 9.23279 19.3522 9.68508 20.4442C10.1374 21.5361 10.8003 22.5282 11.636 23.364C12.4718 24.1997 13.4639 24.8626 14.5558 25.3149C15.6478 25.7672 16.8181 26 18 26C19.1819 26 20.3522 25.7672 21.4442 25.3149C22.5361 24.8626 23.5282 24.1997 24.364 23.364C25.1997 22.5282 25.8626 21.5361 26.3149 20.4442C26.7672 19.3522 27 18.1819 27 17C27 14.6131 26.0518 12.3239 24.364 10.636C22.6761 8.94821 20.3869 8 18 8C15.6131 8 13.3239 8.94821 11.636 10.636C9.94821 12.3239 9 14.6131 9 17Z"
        fill="#009600" stroke="#009600" stroke-width="2" stroke-linecap="round" stroke-linejoin="round" />
    <path d="M21.5 15L16.5 20L14 17.5" stroke="white" stroke-width="1.5" stroke-linecap="round"
        stroke-linejoin="round" />
</svg>