<svg width="28" height="29" viewBox="0 0 28 29" fill="none" xmlns="http://www.w3.org/2000/svg">
    <circle cx="14" cy="14.5884" r="14" fill="#022213" fill-opacity="0.15" />
    <path
        d="M9.56903 20.6976C9.23302 20.6976 8.94537 20.5782 8.70609 20.3392C8.46681 20.1002 8.34717 19.8129 8.34717 19.4773V10.9349C8.34717 10.5993 8.46681 10.3121 8.70609 10.0731C8.94537 9.83409 9.23302 9.7146 9.56903 9.7146H15.0216L13.7997 10.9349H9.56903V19.4773H18.1221V15.2366L19.3439 14.0163V19.4773C19.3439 19.8129 19.2243 20.1002 18.985 20.3392C18.7457 20.5782 18.4581 20.6976 18.1221 20.6976H9.56903ZM12.0128 17.0366V14.4434L17.6181 8.84511C17.7402 8.72307 17.8777 8.63155 18.0304 8.57053C18.1832 8.50951 18.3359 8.479 18.4886 8.479C18.6516 8.479 18.8068 8.50951 18.9545 8.57053C19.1021 8.63155 19.237 8.72307 19.3592 8.84511L20.2145 9.7146C20.3265 9.83663 20.4131 9.97138 20.4742 10.1188C20.5353 10.2663 20.5658 10.4163 20.5658 10.5688C20.5658 10.7214 20.5378 10.8714 20.4818 11.0188C20.4258 11.1663 20.3367 11.301 20.2145 11.4231L14.6092 17.0366H12.0128ZM13.2346 15.8163H14.0899L17.6333 12.2773L17.2057 11.8502L16.7628 11.4231L13.2346 14.9468V15.8163Z"
        fill="#022213" />
</svg>