<svg width="36" height="34" viewBox="0 0 36 34" fill="none" xmlns="http://www.w3.org/2000/svg">
    <rect width="35.619" height="34" rx="4" fill="#F9E4E4" />
    <path
        d="M16.5751 10.217L9.51705 22C9.37163 22.252 9.29472 22.5377 9.29395 22.8287C9.29319 23.1197 9.3686 23.4058 9.51269 23.6586C9.65679 23.9114 9.86454 24.1221 10.1153 24.2697C10.3661 24.4173 10.6511 24.4967 10.9421 24.5H25.0581C25.3491 24.497 25.6343 24.4178 25.8853 24.2702C26.1362 24.1227 26.3441 23.912 26.4883 23.6591C26.6324 23.4062 26.7078 23.1199 26.7069 22.8288C26.706 22.5377 26.6288 22.252 26.4831 22L19.4261 10.217C19.2776 9.9719 19.0685 9.76925 18.8189 9.6286C18.5692 9.48796 18.2876 9.41406 18.0011 9.41406C17.7145 9.41406 17.4329 9.48796 17.1832 9.6286C16.9336 9.76925 16.7235 9.9719 16.5751 10.217Z"
        fill="#D94B4B" stroke="#D94B4B" stroke-width="2" stroke-miterlimit="10" stroke-linecap="round"
        stroke-linejoin="round" />
    <path d="M18 21H18.008M18 15V18" stroke="white" stroke-width="2" stroke-miterlimit="10" stroke-linecap="round"
        stroke-linejoin="round" />
</svg>