<svg width="19" height="19" viewBox="0 0 19 19" fill="none" xmlns="http://www.w3.org/2000/svg">
<g clip-path="url(#clip0_13_1826)">
<path d="M8.46346 13.719L8.53431 13.7899L8.60502 13.7189L13.9092 8.39361L13.9094 8.39381L13.9143 8.38809C14.0171 8.26799 14.0709 8.11351 14.0648 7.95551C14.0587 7.79752 13.9932 7.64764 13.8814 7.53584C13.7696 7.42403 13.6197 7.35854 13.4617 7.35243C13.3037 7.34633 13.1492 7.40007 13.0291 7.50292L13.0289 7.50269L13.0235 7.50816L8.53381 11.9978L6.51979 10.0042L6.51998 10.004L6.51449 9.99931C6.39439 9.89646 6.23991 9.84272 6.08192 9.84882C5.92392 9.85492 5.77405 9.92042 5.66224 10.0322C5.55044 10.144 5.48494 10.2939 5.47884 10.4519C5.47273 10.6099 5.52648 10.7644 5.62932 10.8845L5.6291 10.8847L5.63457 10.8901L8.46346 13.719Z" fill="#00A1A1" stroke="#00A1A1" stroke-width="0.2"/>
<path d="M17.0233 3.01671L17.0233 3.01669H17.0208H15.3056H15.1556V3.16669V4.22224V4.37224H15.3056H16.7389V15.6834H2.26111V4.37224H3.69444H3.84444V4.22224V3.16669V3.01669H3.69444H1.97917V3.01667L1.97666 3.01671C1.83359 3.0191 1.69238 3.04965 1.56112 3.10662C1.42986 3.16359 1.3111 3.24586 1.21164 3.34874C1.11218 3.45161 1.03395 3.57307 0.981438 3.70618C0.929085 3.83888 0.903305 3.98057 0.905556 4.12319V15.9324C0.903305 16.075 0.929085 16.2167 0.981438 16.3494L1.12077 16.2944L0.981438 16.3494C1.03395 16.4825 1.11218 16.604 1.21164 16.7069C1.3111 16.8097 1.42986 16.892 1.56112 16.949C1.69239 17.0059 1.83359 17.0365 1.97666 17.0389L1.97666 17.0389H1.97917H17.0208V17.0389L17.0233 17.0389C17.1664 17.0365 17.3076 17.0059 17.4389 16.949C17.5701 16.892 17.6889 16.8097 17.7884 16.7069C17.8878 16.604 17.966 16.4825 18.0186 16.3494C18.0709 16.2167 18.0967 16.075 18.0944 15.9324V4.12323C18.0967 3.98059 18.0709 3.83889 18.0186 3.70618C17.966 3.57307 17.8878 3.45161 17.7884 3.34874L17.6805 3.453L17.7884 3.34874C17.6889 3.24586 17.5701 3.16359 17.4389 3.10662L17.3792 3.24411L17.4389 3.10662C17.3076 3.04965 17.1664 3.0191 17.0233 3.01671Z" fill="#00A1A1" stroke="#00A1A1" stroke-width="0.3"/>
<path d="M5.27778 5.42776C5.45754 5.42776 5.62993 5.35636 5.75704 5.22925C5.88415 5.10214 5.95556 4.92974 5.95556 4.74999V1.58332C5.95556 1.40356 5.88415 1.23117 5.75704 1.10406C5.62993 0.97695 5.45754 0.905542 5.27778 0.905542C5.09802 0.905542 4.92562 0.97695 4.79852 1.10406C4.67141 1.23117 4.6 1.40356 4.6 1.58332V4.74999C4.6 4.92974 4.67141 5.10214 4.79852 5.22925C4.92562 5.35636 5.09802 5.42776 5.27778 5.42776Z" fill="#00A1A1" stroke="#00A1A1" stroke-width="0.3"/>
<path d="M13.7222 5.42776C13.902 5.42776 14.0744 5.35636 14.2015 5.22925C14.3286 5.10214 14.4 4.92974 14.4 4.74999V1.58332C14.4 1.40356 14.3286 1.23117 14.2015 1.10406C14.0744 0.97695 13.902 0.905542 13.7222 0.905542C13.5425 0.905542 13.3701 0.97695 13.243 1.10406C13.1159 1.23117 13.0445 1.40356 13.0445 1.58332V4.74999C13.0445 4.92974 13.1159 5.10214 13.243 5.22925C13.3701 5.35636 13.5425 5.42776 13.7222 5.42776Z" fill="#00A1A1" stroke="#00A1A1" stroke-width="0.3"/>
<path d="M12.2889 3.16669V3.01669H12.1389H6.86108H6.71108V3.16669V4.22224V4.37224H6.86108H12.1389H12.2889V4.22224V3.16669Z" fill="#00A1A1" stroke="#00A1A1" stroke-width="0.3"/>
</g>
<defs>
<clipPath id="clip0_13_1826">
<rect width="19" height="19" fill="white"/>
</clipPath>
</defs>
</svg>

