<svg width="48" height="48" viewBox="0 0 48 48" fill="none" xmlns="http://www.w3.org/2000/svg">
    <path
        d="M9 42C8.2 42 7.5 41.7 6.9 41.1C6.3 40.5 6 39.8 6 39V9C6 8.2 6.3 7.5 6.9 6.9C7.5 6.3 8.2 6 9 6H39C39.8 6 40.5 6.3 41.1 6.9C41.7 7.5 42 8.2 42 9V39C42 39.8 41.7 40.5 41.1 41.1C40.5 41.7 39.8 42 39 42H9ZM9 39H39V9H9V39ZM15.7087 34.15C16.1362 34.15 16.4917 34.0063 16.775 33.7188C17.0583 33.4312 17.2 33.075 17.2 32.65V25.4C17.2 24.975 17.0554 24.6187 16.7663 24.3313C16.4771 24.0438 16.1187 23.9 15.6913 23.9C15.2638 23.9 14.9083 24.0438 14.625 24.3313C14.3417 24.6187 14.2 24.975 14.2 25.4V32.65C14.2 33.075 14.3446 33.4312 14.6337 33.7188C14.9229 34.0063 15.2813 34.15 15.7087 34.15ZM32.3088 34.15C32.7362 34.15 33.0917 34.0063 33.375 33.7188C33.6583 33.4312 33.8 33.075 33.8 32.65V14.65C33.8 14.225 33.6554 13.8688 33.3663 13.5813C33.0771 13.2938 32.7187 13.15 32.2913 13.15C31.8638 13.15 31.5083 13.2938 31.225 13.5813C30.9417 13.8688 30.8 14.225 30.8 14.65V32.65C30.8 33.075 30.9446 33.4312 31.2337 33.7188C31.5229 34.0063 31.8813 34.15 32.3088 34.15ZM24.0087 34.15C24.4362 34.15 24.7917 34.0063 25.075 33.7188C25.3583 33.4312 25.5 33.075 25.5 32.65V29.75C25.5 29.325 25.3554 28.9688 25.0663 28.6812C24.7771 28.3938 24.4187 28.25 23.9913 28.25C23.5638 28.25 23.2083 28.3938 22.925 28.6812C22.6417 28.9688 22.5 29.325 22.5 29.75V32.65C22.5 33.075 22.6446 33.4312 22.9338 33.7188C23.2229 34.0063 23.5813 34.15 24.0087 34.15ZM24.025 23.9C24.4417 23.9 24.7917 23.7563 25.075 23.4688C25.3583 23.1812 25.5 22.825 25.5 22.4V22.35C25.5 21.9392 25.35 21.5948 25.05 21.3169C24.75 21.039 24.3917 20.9 23.975 20.9C23.5583 20.9 23.2083 21.0437 22.925 21.3313C22.6417 21.6188 22.5 21.975 22.5 22.4V22.45C22.5 22.8608 22.65 23.2052 22.95 23.4831C23.25 23.761 23.6083 23.9 24.025 23.9Z"
        fill="black" />
    <path
        d="M15.7087 34.15C16.1362 34.15 16.4916 34.0063 16.775 33.7188C17.0583 33.4313 17.2 33.075 17.2 32.65V25.4C17.2 24.975 17.0554 24.6188 16.7662 24.3313C16.477 24.0438 16.1187 23.9 15.6912 23.9C15.2637 23.9 14.9083 24.0438 14.625 24.3313C14.3416 24.6188 14.2 24.975 14.2 25.4V32.65C14.2 33.075 14.3445 33.4313 14.6337 33.7188C14.9229 34.0063 15.2812 34.15 15.7087 34.15ZM32.3087 34.15C32.7362 34.15 33.0916 34.0063 33.375 33.7188C33.6583 33.4313 33.8 33.075 33.8 32.65V14.65C33.8 14.225 33.6554 13.8688 33.3662 13.5813C33.077 13.2938 32.7187 13.15 32.2912 13.15C31.8637 13.15 31.5083 13.2938 31.225 13.5813C30.9416 13.8688 30.8 14.225 30.8 14.65V32.65C30.8 33.075 30.9445 33.4313 31.2337 33.7188C31.5229 34.0063 31.8812 34.15 32.3087 34.15ZM24.0087 34.15C24.4362 34.15 24.7916 34.0063 25.075 33.7188C25.3583 33.4313 25.5 33.075 25.5 32.65V29.75C25.5 29.325 25.3554 28.9688 25.0662 28.6813C24.777 28.3938 24.4187 28.25 23.9912 28.25C23.5637 28.25 23.2083 28.3938 22.925 28.6813C22.6416 28.9688 22.5 29.325 22.5 29.75V32.65C22.5 33.075 22.6445 33.4313 22.9337 33.7188C23.2229 34.0063 23.5812 34.15 24.0087 34.15ZM24.025 23.9C24.4416 23.9 24.7916 23.7563 25.075 23.4688C25.3583 23.1813 25.5 22.825 25.5 22.4V22.35C25.5 21.9392 25.35 21.5948 25.05 21.3169C24.75 21.039 24.3916 20.9 23.975 20.9C23.5583 20.9 23.2083 21.0438 22.925 21.3313C22.6416 21.6188 22.5 21.975 22.5 22.4V22.45C22.5 22.8609 22.65 23.2052 22.95 23.4831C23.25 23.7611 23.6083 23.9 24.025 23.9Z"
        fill="#449B9C" />
</svg>