<svg width="16" height="12" viewBox="0 0 16 12" fill="none" xmlns="http://www.w3.org/2000/svg">
    <path
        d="M6.3095 1.22125H6.25867C5.42863 1.22125 4.63533 1.37796 3.90692 1.66396L3.95046 1.649C3.28604 1.89059 2.68892 2.28634 2.20854 2.80359L2.20563 2.80646C1.79977 3.2295 1.56857 3.78921 1.55803 4.37438V4.37675C1.56261 4.84725 1.71719 5.30413 1.99945 5.68134L1.99509 5.67555C2.31667 6.11592 2.72929 6.4825 3.20508 6.75055L3.22396 6.76017L4.0245 7.22221L3.73558 7.9128C3.92237 7.80317 4.09292 7.69625 4.24717 7.59209L4.61017 7.33746L5.04721 7.41946C5.42621 7.4918 5.86229 7.53375 6.30854 7.53521H6.36033C7.19037 7.53521 7.98367 7.37846 8.71208 7.09246L8.66854 7.10742C9.33296 6.86588 9.93008 6.47009 10.4105 5.95284L10.4134 5.94996C10.8137 5.54675 11.061 4.99217 11.061 4.37967C11.061 3.76717 10.8137 3.21255 10.4134 2.80938C9.94067 2.29767 9.35325 1.90455 8.69904 1.66205L8.66854 1.65192C7.92996 1.36371 7.14333 1.21725 6.35017 1.2203H6.30658H6.309L6.3095 1.22125ZM6.3095 0.168921L6.38258 0.16842C7.40821 0.16842 8.38542 0.375337 9.27404 0.750046L9.22512 0.731712C10.0451 1.05617 10.7703 1.5803 11.3344 2.25621L11.3412 2.26488C11.8233 2.83109 12.1166 3.56992 12.1166 4.37725C12.1166 5.18459 11.8233 5.92392 11.3373 6.49446L11.3412 6.48963C10.7846 7.16013 10.0696 7.68246 9.26046 8.00975L9.22512 8.0223C8.38492 8.37871 7.40721 8.58609 6.38162 8.58609L6.30562 8.58559H6.3095C5.80521 8.58434 5.30204 8.53767 4.80617 8.44621L4.8575 8.45392C4.17833 8.9335 3.41737 9.28613 2.61171 9.49467L2.56329 9.5053C2.37504 9.5535 2.13448 9.59934 1.89006 9.63263L1.85425 9.63646H1.82956C1.76704 9.6355 1.70693 9.61221 1.66016 9.57088C1.60818 9.52763 1.57434 9.46655 1.56529 9.39967V9.39821C1.55943 9.38167 1.55664 9.36417 1.55707 9.34663V9.34371C1.55707 9.32542 1.55852 9.30725 1.56142 9.28921L1.56094 9.29117C1.56425 9.27375 1.56995 9.25688 1.57788 9.241L1.57739 9.24196L1.59772 9.2005L1.62676 9.15517L1.65968 9.11367L1.6984 9.07221L1.73131 9.03363C1.75906 9.00084 1.8223 8.93234 1.92104 8.82817C2.01978 8.724 2.09125 8.64313 2.13545 8.58559C2.17967 8.52805 2.24146 8.44863 2.32083 8.34734C2.39437 8.25521 2.46263 8.15155 2.52167 8.04205L2.527 8.03096C2.58475 7.92134 2.64125 7.80075 2.69642 7.66925C2.06173 7.31521 1.5153 6.82313 1.09775 6.22967L1.08758 6.21425C0.706796 5.67634 0.501625 5.03455 0.5 4.3763V4.37534C0.502242 3.60025 0.777904 2.85067 1.27876 2.25767L1.27441 2.26296C1.83103 1.59246 2.546 1.07013 3.35512 0.742837L3.39046 0.730296C4.23071 0.373879 5.20837 0.166504 6.234 0.166504L6.31192 0.167004H6.30804L6.3095 0.168921Z"
        fill="white" />
    <path
        d="M13.1766 9.84848C13.2315 9.97998 13.2879 10.1005 13.346 10.2102C13.4104 10.3307 13.4786 10.4344 13.5556 10.5309L13.5522 10.5266C13.6319 10.6278 13.6937 10.7072 13.7375 10.7648C13.7815 10.8224 13.8529 10.9032 13.952 11.0074C14.0507 11.1103 14.114 11.1787 14.1417 11.2128C14.1472 11.2183 14.1582 11.2311 14.1746 11.2514C14.1911 11.2716 14.204 11.2855 14.2133 11.2929C14.2247 11.3056 14.2353 11.319 14.2453 11.3329L14.2463 11.3339C14.2564 11.3478 14.2658 11.3623 14.2743 11.3773L14.2753 11.3792L14.2956 11.4207L14.3121 11.4699L14.3164 11.5229L14.3082 11.576C14.2953 11.6468 14.2575 11.7107 14.2017 11.7564L14.2013 11.7568C14.1763 11.7783 14.1473 11.7944 14.1159 11.8043C14.0846 11.8141 14.0515 11.8175 14.0188 11.8142H14.0198C12.9279 11.6733 11.889 11.2617 10.9981 10.6172L11.017 10.6302C10.5809 10.7127 10.079 10.7604 9.56592 10.7619H9.56496C8.17654 10.7966 6.80996 10.4129 5.64404 9.66086L5.67117 9.67727C5.99025 9.6991 6.23225 9.71006 6.39717 9.71006H6.42959C7.32742 9.71006 8.19329 9.57502 9.00788 9.32373L8.94592 9.34015C9.73484 9.10852 10.4785 8.74502 11.1453 8.26515L11.124 8.27961C11.7625 7.82356 12.297 7.23794 12.6921 6.56127L12.7062 6.53473C13.0705 5.89931 13.2611 5.17977 13.2589 4.44794C13.2589 4.00136 13.1897 3.57115 13.0609 3.16748L13.0692 3.1974C13.7299 3.54769 14.302 4.04311 14.7424 4.64615L14.752 4.66015C15.1556 5.20848 15.3724 5.87115 15.3706 6.55115C15.3717 7.21581 15.1646 7.86423 14.7782 8.40598L14.785 8.39585C14.3699 8.98636 13.8285 9.47773 13.1998 9.83448L13.1756 9.84702L13.1766 9.84848Z"
        fill="#01FF48" />
</svg>