<svg width="42" height="42" viewBox="0 0 42 42" fill="none" xmlns="http://www.w3.org/2000/svg">
    <path
        d="M37.8082 14.998L35.6125 14L37.8082 13.002L38.8063 10.8062L39.8043 13.002L42 14L39.8043 14.998L38.8063 17.1937L37.8082 14.998ZM31.7188 6.3L28.4812 4.76875L31.7188 3.2375L33.25 0L34.7812 3.2375L38.0187 4.76875L34.7812 6.3L33.25 9.5375L31.7188 6.3ZM15.75 38.5C14.7583 38.5 13.9198 38.1573 13.2344 37.4719C12.549 36.7865 12.2062 35.9479 12.2062 34.9562H19.2937C19.2937 35.9479 18.951 36.7865 18.2656 37.4719C17.5802 38.1573 16.7417 38.5 15.75 38.5ZM9.975 32.2437C9.60312 32.2437 9.29141 32.1172 9.03984 31.8642C8.78828 31.6112 8.6625 31.2976 8.6625 30.9236C8.6625 30.5495 8.78828 30.2385 9.03984 29.9906C9.29141 29.7427 9.60312 29.6187 9.975 29.6187H21.525C21.8969 29.6187 22.2086 29.7453 22.4602 29.9983C22.7117 30.2513 22.8375 30.5649 22.8375 30.9389C22.8375 31.313 22.7117 31.624 22.4602 31.8719C22.2086 32.1198 21.8969 32.2437 21.525 32.2437H9.975ZM8.88125 26.95C6.95625 25.6958 5.43229 24.1281 4.30938 22.2469C3.18646 20.3656 2.625 18.2437 2.625 15.8812C2.625 12.3229 3.92292 9.24583 6.51875 6.65C9.11458 4.05417 12.1917 2.75625 15.75 2.75625C19.3083 2.75625 22.3854 4.05417 24.9813 6.65C27.5771 9.24583 28.875 12.3229 28.875 15.8812C28.875 18.2437 28.3208 20.3656 27.2125 22.2469C26.1042 24.1281 24.5729 25.6958 22.6187 26.95H8.88125ZM9.84375 24.325H21.6854C23.0951 23.3917 24.2083 22.1794 25.025 20.6881C25.8417 19.1969 26.25 17.5946 26.25 15.8812C26.25 12.9937 25.2219 10.5219 23.1656 8.46562C21.1094 6.40937 18.6375 5.38125 15.75 5.38125C12.8625 5.38125 10.3906 6.40937 8.33437 8.46562C6.27812 10.5219 5.25 12.9937 5.25 15.8812C5.25 17.5946 5.65833 19.1969 6.475 20.6881C7.29167 22.1794 8.41458 23.3917 9.84375 24.325Z"
        fill="currentColor" />
    <path
        d="M37.8082 14.998L35.6125 14L37.8082 13.002L38.8062 10.8062L39.8042 13.002L42 14L39.8042 14.998L38.8062 17.1937L37.8082 14.998ZM31.7187 6.3L28.4812 4.76875L31.7187 3.2375L33.25 0L34.7812 3.2375L38.0187 4.76875L34.7812 6.3L33.25 9.5375L31.7187 6.3Z"
        fill="#01FF48" />
</svg>