<svg width="21" height="21" viewBox="0 0 21 21" fill="none" xmlns="http://www.w3.org/2000/svg">
    <g clip-path="url(#clip0_14_3)">
        <path
            d="M18.9861 7.15901L17.9405 6.68376L18.9861 6.20851L19.4613 5.16292L19.9366 6.20851L20.9822 6.68376L19.9366 7.15901L19.4613 8.20459L18.9861 7.15901ZM16.0863 3.01709L14.5447 2.28792L16.0863 1.55876L16.8155 0.0170898L17.5447 1.55876L19.0863 2.28792L17.5447 3.01709L16.8155 4.55876L16.0863 3.01709ZM8.48218 18.3504C8.00996 18.3504 7.61065 18.1872 7.28426 17.8608C6.95787 17.5344 6.79468 17.1351 6.79468 16.6629H10.1697C10.1697 17.1351 10.0065 17.5344 9.68009 17.8608C9.35371 18.1872 8.9544 18.3504 8.48218 18.3504ZM5.73218 15.3713C5.55509 15.3713 5.40666 15.311 5.28687 15.1905C5.16707 15.07 5.10718 14.9207 5.10718 14.7426C5.10718 14.5645 5.16707 14.4164 5.28687 14.2983C5.40666 14.1803 5.55509 14.1213 5.73218 14.1213H11.2322C11.4093 14.1213 11.5577 14.1815 11.6775 14.302C11.7973 14.4225 11.8572 14.5718 11.8572 14.7499C11.8572 14.928 11.7973 15.0761 11.6775 15.1942C11.5577 15.3122 11.4093 15.3713 11.2322 15.3713H5.73218ZM5.21134 12.8504C4.29468 12.2532 3.56898 11.5067 3.03426 10.6108C2.49954 9.71501 2.23218 8.70459 2.23218 7.57959C2.23218 5.88515 2.85023 4.41987 4.08634 3.18376C5.32246 1.94765 6.78773 1.32959 8.48218 1.32959C10.1766 1.32959 11.6419 1.94765 12.878 3.18376C14.1141 4.41987 14.7322 5.88515 14.7322 7.57959C14.7322 8.70459 14.4683 9.71501 13.9405 10.6108C13.4127 11.5067 12.6836 12.2532 11.753 12.8504H5.21134ZM5.66968 11.6004H11.3086C11.9799 11.156 12.51 10.5787 12.8988 9.86859C13.2877 9.15846 13.4822 8.39546 13.4822 7.57959C13.4822 6.20459 12.9926 5.02751 12.0134 4.04834C11.0343 3.06917 9.85718 2.57959 8.48218 2.57959C7.10718 2.57959 5.93009 3.06917 4.95093 4.04834C3.97176 5.02751 3.48218 6.20459 3.48218 7.57959C3.48218 8.39546 3.67662 9.15846 4.06551 9.86859C4.4544 10.5787 4.98912 11.156 5.66968 11.6004Z"
            fill="black" />
    </g>
    <g clip-path="url(#clip1_14_3)">
        <path
            d="M18.9861 7.15901L17.9405 6.68376L18.9861 6.20851L19.4613 5.16292L19.9366 6.20851L20.9822 6.68376L19.9366 7.15901L19.4613 8.20459L18.9861 7.15901ZM16.0863 3.01709L14.5447 2.28792L16.0863 1.55876L16.8155 0.0170898L17.5447 1.55876L19.0863 2.28792L17.5447 3.01709L16.8155 4.55876L16.0863 3.01709Z"
            fill="#449B9C" />
    </g>
    <defs>
        <clipPath id="clip0_14_3">
            <rect width="20" height="20" fill="white" transform="translate(0.982178 0.0170898)" />
        </clipPath>
        <clipPath id="clip1_14_3">
            <rect width="20" height="20" fill="white" transform="translate(0.982178 0.0170898)" />
        </clipPath>
    </defs>
</svg>