<svg width="20" height="21" viewBox="0 0 20 21" fill="none" xmlns="http://www.w3.org/2000/svg">
    <path
        d="M10.0001 18.7668C8.86121 18.7668 7.78479 18.5479 6.77091 18.1101C5.75704 17.6723 4.87175 17.0751 4.11508 16.3184C3.35841 15.5618 2.76119 14.6765 2.32341 13.6626C1.88564 12.6487 1.66675 11.5723 1.66675 10.4334C1.66675 9.28064 1.88564 8.20093 2.32341 7.19426C2.76119 6.1876 3.35841 5.30564 4.11508 4.54843C4.87175 3.79121 5.75704 3.19399 6.77091 2.75676C7.78479 2.31954 8.86121 2.10065 10.0001 2.1001C11.1529 2.1001 12.2329 2.31899 13.2401 2.75676C14.2473 3.19454 15.129 3.79176 15.8851 4.54843C16.6412 5.3051 17.2384 6.18706 17.6767 7.19426C18.1151 8.20147 18.334 9.28122 18.3334 10.4334C18.3334 11.5723 18.1145 12.6487 17.6767 13.6626C17.239 14.6765 16.6417 15.5621 15.8851 16.3193C15.1284 17.0765 14.2465 17.6737 13.2392 18.1109C12.232 18.5481 11.1523 18.7668 10.0001 18.7668ZM10.0001 17.0584C10.3612 16.5584 10.6737 16.0376 10.9376 15.4959C11.2015 14.9543 11.4167 14.3779 11.5834 13.7668H8.41675C8.58342 14.3779 8.79871 14.9543 9.06258 15.4959C9.32646 16.0376 9.63896 16.5584 10.0001 17.0584ZM7.83341 16.7251C7.58341 16.2668 7.36479 15.7909 7.17758 15.2976C6.99037 14.8043 6.83396 14.294 6.70841 13.7668H4.25008C4.65287 14.4612 5.15646 15.0654 5.76091 15.5793C6.36537 16.0931 7.05621 16.4751 7.83341 16.7251ZM12.1667 16.7251C12.9445 16.4751 13.6356 16.0931 14.2401 15.5793C14.8445 15.0654 15.3479 14.4612 15.7501 13.7668H13.2917C13.1667 14.2946 13.0106 14.8051 12.8234 15.2984C12.6362 15.7918 12.4173 16.2673 12.1667 16.7251ZM3.54175 12.1001H6.37508C6.33341 11.8223 6.30229 11.5481 6.28175 11.2776C6.26121 11.0071 6.25062 10.7256 6.25008 10.4334C6.24954 10.1412 6.26008 9.8601 6.28175 9.5901C6.30341 9.3201 6.33454 9.04564 6.37508 8.76676H3.54175C3.4723 9.04456 3.42036 9.31897 3.38591 9.5901C3.35147 9.86122 3.33397 10.1423 3.33341 10.4334C3.33286 10.7246 3.35036 11.0059 3.38591 11.2776C3.42147 11.5493 3.47341 11.8234 3.54175 12.1001ZM8.04175 12.1001H11.9584C12.0001 11.8223 12.0315 11.5481 12.0526 11.2776C12.0737 11.0071 12.084 10.7256 12.0834 10.4334C12.0829 10.1412 12.0723 9.8601 12.0517 9.5901C12.0312 9.3201 12.0001 9.04564 11.9584 8.76676H8.04175C8.00008 9.04456 7.96896 9.31897 7.94841 9.5901C7.92787 9.86122 7.91729 10.1423 7.91675 10.4334C7.91621 10.7246 7.92675 11.0059 7.94841 11.2776C7.97008 11.5493 8.00121 11.8234 8.04175 12.1001ZM13.6251 12.1001H16.4584C16.5279 11.8223 16.5801 11.5481 16.6151 11.2776C16.6501 11.0071 16.6673 10.7256 16.6667 10.4334C16.6662 10.1412 16.649 9.8601 16.6151 9.5901C16.5812 9.3201 16.529 9.04564 16.4584 8.76676H13.6251C13.6667 9.04456 13.6981 9.31897 13.7192 9.5901C13.7404 9.86122 13.7506 10.1423 13.7501 10.4334C13.7495 10.7246 13.739 11.0059 13.7184 11.2776C13.6979 11.5493 13.6667 11.8234 13.6251 12.1001ZM13.2917 7.1001H15.7501C15.3473 6.40564 14.844 5.80147 14.2401 5.2876C13.6362 4.77372 12.9451 4.39176 12.1667 4.14176C12.4167 4.6001 12.6356 5.07593 12.8234 5.56926C13.0112 6.0626 13.1673 6.57289 13.2917 7.1001ZM8.41675 7.1001H11.5834C11.4167 6.48897 11.2015 5.9126 10.9376 5.37093C10.6737 4.82926 10.3612 4.30843 10.0001 3.80843C9.63896 4.30843 9.32646 4.82926 9.06258 5.37093C8.79871 5.9126 8.58342 6.48897 8.41675 7.1001ZM4.25008 7.1001H6.70841C6.83341 6.57231 6.98979 6.06176 7.17758 5.56843C7.36537 5.0751 7.58396 4.59954 7.83341 4.14176C7.05562 4.39176 6.36454 4.77372 5.76008 5.2876C5.15562 5.80147 4.65229 6.40564 4.25008 7.1001Z"
        fill="white" />
</svg>