<svg width="48" height="48" viewBox="0 0 48 48" fill="none" xmlns="http://www.w3.org/2000/svg">
    <path
        d="M24 46L18 40H9C8.2 40 7.5 39.6917 6.9 39.075C6.3 38.4583 6 37.7667 6 37V7C6 6.2 6.3 5.5 6.9 4.9C7.5 4.3 8.2 4 9 4H39C39.7667 4 40.4583 4.3 41.075 4.9C41.6917 5.5 42 6.2 42 7V37C42 37.7667 41.6917 38.4583 41.075 39.075C40.4583 39.6917 39.7667 40 39 40H30L24 46ZM9 37H19.2L24 41.8L28.8 37H39V7H9V37Z"
        fill="black" />
    <path
        d="M23.7926 30.5986C24.2117 30.5986 24.5655 30.4539 24.8541 30.1646C25.1427 29.8752 25.287 29.521 25.287 29.102C25.287 28.6829 25.1423 28.3291 24.853 28.0404C24.5636 27.7518 24.2094 27.6075 23.7904 27.6075C23.3713 27.6075 23.0175 27.7522 22.7289 28.0416C22.4403 28.3309 22.296 28.6851 22.296 29.1042C22.296 29.5232 22.4406 29.8771 22.73 30.1657C23.0193 30.4543 23.3735 30.5986 23.7926 30.5986ZM24.736 24.7739C24.736 23.9606 24.8672 23.2981 25.1296 22.7865C25.392 22.2748 25.8474 21.6947 26.4961 21.0461C27.3692 20.173 27.9763 19.4019 28.3174 18.7328C28.6585 18.0638 28.829 17.3619 28.829 16.6273C28.829 15.2367 28.383 14.1348 27.4909 13.3214C26.5989 12.5081 25.3982 12.1014 23.889 12.1014C22.5282 12.1014 21.3715 12.4228 20.4189 13.0656C19.4664 13.7084 18.7671 14.5939 18.321 15.7221L20.4069 16.5879C20.7742 15.8533 21.2491 15.2958 21.8316 14.9153C22.414 14.5349 23.0936 14.3447 23.8702 14.3447C24.7098 14.3447 25.3723 14.5546 25.8577 14.9743C26.3431 15.3941 26.5857 15.9726 26.5857 16.7099C26.5857 17.232 26.4414 17.7358 26.1528 18.2212C25.8642 18.7066 25.3788 19.2772 24.6967 19.9332C23.7259 20.8515 23.1159 21.6386 22.8666 22.2945C22.6174 22.9504 22.4928 23.7769 22.4928 24.7739H24.736Z"
        fill="#449B9C" />
</svg>