<svg width="33" height="32" viewBox="0 0 33 32" fill="none" xmlns="http://www.w3.org/2000/svg">
    <path
        d="M7.8833 26H12.8833V17.6667H20.2166V26H25.2166V13L16.55 6.5L7.8833 13V26ZM7.8833 28C7.3333 28 6.86247 27.8042 6.4708 27.4125C6.07913 27.0208 5.8833 26.55 5.8833 26V13C5.8833 12.6833 5.95413 12.3833 6.0958 12.1C6.23747 11.8167 6.4333 11.5833 6.6833 11.4L15.35 4.9C15.5343 4.76667 15.727 4.66667 15.9281 4.6C16.1292 4.53333 16.3387 4.5 16.5565 4.5C16.7744 4.5 16.9824 4.53333 17.1804 4.6C17.3786 4.66667 17.5684 4.76667 17.75 4.9L26.4166 11.4C26.6666 11.5833 26.8625 11.8167 27.0041 12.1C27.1458 12.3833 27.2166 12.6833 27.2166 13V26C27.2166 26.55 27.0208 27.0208 26.6291 27.4125C26.2375 27.8042 25.7666 28 25.2166 28H18.2166V19.6667H14.8833V28H7.8833Z"
        fill="currentColor" />
    <path d="M12.8833 17.6665V25.9998V27.9998H14.8833V19.6665H18.2166V27.9998H20.2166V25.9998V17.6665H12.8833Z"
        fill="#01FF48" />
</svg>