<svg width="29" height="29" viewBox="0 0 29 29" fill="none" xmlns="http://www.w3.org/2000/svg">
    <circle cx="14.3198" cy="14.7498" r="14" fill="#E5F3F3" />
    <g clip-path="url(#clip0_904_651)">
        <path
            d="M14.0897 8.3858L7.96147 14.5141C7.31187 15.1637 7.31187 16.2215 7.96147 16.8711L10.1615 19.0711C10.6277 19.5373 11.3023 19.6632 11.8869 19.4605L13.3487 20.9223C13.7357 21.3094 14.3655 21.3094 14.753 20.9219L20.4985 15.1764C20.8855 14.7894 20.886 14.1591 20.4989 13.7721L19.0371 12.3102C19.2384 11.7262 19.1125 11.0516 18.6468 10.5858L16.4468 8.3858C15.7972 7.7362 14.7393 7.7362 14.0897 8.3858ZM18.6859 12.9037L20.0266 14.2444C20.1539 14.3717 20.1534 14.5786 20.0261 14.7059L18.9216 15.8104L17.9001 14.7889C17.77 14.6588 17.5588 14.6588 17.4287 14.7889C17.2986 14.919 17.2986 15.1302 17.4287 15.2603L18.4502 16.2818L17.3896 17.3425L16.368 16.3209C16.2379 16.1908 16.0267 16.1908 15.8966 16.3209C15.7665 16.4511 15.7665 16.6622 15.8966 16.7924L16.9182 17.8139L15.8575 18.8745L14.836 17.853C14.7059 17.7229 14.4947 17.7229 14.3646 17.853C14.2344 17.9831 14.2344 18.1943 14.3646 18.3244L15.3861 19.346L14.2811 20.4509C14.1538 20.5782 13.9464 20.5782 13.8196 20.4514L12.4789 19.1107L12.5185 19.0711L18.6468 12.9429L18.6859 12.9037ZM18.1754 11.0572C18.5652 11.4471 18.5652 12.0816 18.1754 12.4715L12.0471 18.5997C11.6573 18.9896 11.0228 18.9896 10.6329 18.5997L8.43287 16.3997C8.04302 16.0098 8.04302 15.3753 8.43287 14.9855L14.5611 8.8572C14.951 8.46735 15.5855 8.46735 15.9753 8.8572L18.1754 11.0572Z"
            fill="#00A1A1" />
        <path
            d="M10.1612 14.3962L9.23814 15.3192C9.10804 15.4493 9.10804 15.6605 9.23814 15.7906L11.2218 17.7743C11.3519 17.9044 11.5631 17.9044 11.6932 17.7743L12.6162 16.8513C12.7463 16.7212 12.7463 16.51 12.6162 16.3799L10.6326 14.3962C10.5025 14.2661 10.2917 14.2656 10.1612 14.3962ZM11.9096 16.6161L11.458 17.0677L9.94525 15.5549L10.3969 15.1033L11.9096 16.6161Z"
            fill="#00A1A1" />
        <path
            d="M12.5279 12.0293L11.6048 12.9523C11.4747 13.0824 11.4747 13.2936 11.6048 13.4237L13.5885 15.4074C13.7186 15.5375 13.9298 15.5375 14.0599 15.4074L14.9829 14.4844C15.113 14.3542 15.113 14.1431 14.9829 14.0129L12.9993 12.0293C12.8691 11.8992 12.658 11.8992 12.5279 12.0293ZM14.2763 14.2491L13.8247 14.7007L12.3119 13.188L12.7636 12.7364L14.2763 14.2491Z"
            fill="#00A1A1" />
        <path
            d="M14.8948 9.66233L13.9718 10.5853C13.8417 10.7155 13.8417 10.9266 13.9718 11.0567L15.9555 13.0404C16.0856 13.1705 16.2968 13.1705 16.4269 13.0404L17.3499 12.1174C17.48 11.9873 17.48 11.7761 17.3499 11.646L15.3662 9.66233C15.2361 9.53222 15.0249 9.53222 14.8948 9.66233ZM16.6432 11.8822L16.1916 12.3338L14.6789 10.821L15.1305 10.3694L16.6432 11.8822Z"
            fill="#00A1A1" />
    </g>
    <defs>
        <clipPath id="clip0_904_651">
            <rect width="16" height="16" fill="white" transform="translate(3.01172 14.7498) rotate(-45)" />
        </clipPath>
    </defs>
</svg>