<svg width="29" height="29" viewBox="0 0 29 29" fill="none" xmlns="http://www.w3.org/2000/svg">
    <circle cx="14.3198" cy="14.8376" r="14" fill="#E5F3F3" />
    <path
        d="M14.3214 14.671C14.6426 14.671 14.9171 14.5566 15.1449 14.3278C15.3727 14.0991 15.4866 13.8241 15.4866 13.5028C15.4866 13.1816 15.3722 12.9071 15.1434 12.6793C14.9147 12.4515 14.6397 12.3376 14.3184 12.3376C13.9972 12.3376 13.7227 12.452 13.4949 12.6808C13.2671 12.9095 13.1532 13.1845 13.1532 13.5058C13.1532 13.827 13.2676 14.1015 13.4964 14.3293C13.7251 14.5571 14.0001 14.671 14.3214 14.671ZM14.3199 20.1876C15.7977 18.8432 16.8894 17.6237 17.5949 16.5293C18.3005 15.4348 18.6532 14.471 18.6532 13.6376C18.6532 12.3288 18.235 11.2572 17.3984 10.4227C16.5618 9.58821 15.5357 9.17096 14.3199 9.17096C13.1042 9.17096 12.078 9.58821 11.2414 10.4227C10.4049 11.2572 9.98657 12.3288 9.98657 13.6376C9.98657 14.471 10.3477 15.4348 11.0699 16.5293C11.7921 17.6237 12.8755 18.8432 14.3199 20.1876ZM14.3282 21.3043C14.256 21.3043 14.1866 21.2932 14.1199 21.271C14.0532 21.2487 13.9921 21.2154 13.9366 21.171C12.281 19.7154 11.0421 18.366 10.2199 17.1227C9.39768 15.8794 8.98657 14.7177 8.98657 13.6376C8.98657 11.971 9.52268 10.6432 10.5949 9.65429C11.6671 8.6654 12.9088 8.17096 14.3199 8.17096C15.731 8.17096 16.9727 8.6654 18.0449 9.65429C19.1171 10.6432 19.6532 11.971 19.6532 13.6376C19.6532 14.7154 19.2421 15.8765 18.4199 17.121C17.5977 18.3654 16.3588 19.7154 14.7032 21.171C14.6477 21.2154 14.5894 21.2487 14.5282 21.271C14.4671 21.2932 14.4005 21.3043 14.3282 21.3043Z"
        fill="#00A1A1" />
</svg>