<svg width="29" height="29" viewBox="0 0 29 29" fill="none" xmlns="http://www.w3.org/2000/svg">
    <circle cx="14.3198" cy="14.7791" r="14" fill="#E5F3F3" />
    <path
        d="M9.65308 11.4457H18.9864C20.0516 11.4457 20.9222 12.2784 20.983 13.3282L20.9864 13.4457V16.1124C20.9864 17.1776 20.1538 18.0482 19.1039 18.109L18.9864 18.1124H9.65308C8.58796 18.1124 7.7173 17.2798 7.65647 16.2299L7.65308 16.1124V13.4457C7.65308 12.3806 8.48569 11.51 9.53556 11.4491L9.65308 11.4457ZM18.9864 12.4457H9.65308C9.10079 12.4457 8.65308 12.8935 8.65308 13.4457V16.1124C8.65308 16.6647 9.10079 17.1124 9.65308 17.1124H18.9864C19.5387 17.1124 19.9864 16.6647 19.9864 16.1124V13.4457C19.9864 12.8935 19.5387 12.4457 18.9864 12.4457ZM18.3197 13.4457C18.6879 13.4457 18.9864 13.7442 18.9864 14.1124C18.9864 14.4806 18.6879 14.7791 18.3197 14.7791C17.9515 14.7791 17.6531 14.4806 17.6531 14.1124C17.6531 13.7442 17.9515 13.4457 18.3197 13.4457ZM15.6531 13.4457C16.0213 13.4457 16.3197 13.7442 16.3197 14.1124C16.3197 14.4806 16.0213 14.7791 15.6531 14.7791C15.2849 14.7791 14.9864 14.4806 14.9864 14.1124C14.9864 13.7442 15.2849 13.4457 15.6531 13.4457Z"
        fill="#00A1A1" />
</svg>