<svg width="29" height="29" viewBox="0 0 29 29" fill="none" xmlns="http://www.w3.org/2000/svg">
    <circle cx="14.3198" cy="14.8083" r="14" fill="#E5F3F3" />
    <g clip-path="url(#clip0_6_2)">
        <path
            d="M9.96047 16.2458C9.82506 16.1104 9.75475 15.9464 9.74954 15.7537C9.74433 15.561 9.81464 15.4021 9.96047 15.2771C10.6167 14.7042 11.3042 14.2745 12.023 13.988C12.7417 13.7016 13.5074 13.5583 14.3199 13.5583C15.1324 13.5583 15.898 13.7016 16.6167 13.988C17.3355 14.2745 18.023 14.7042 18.6792 15.2771C18.8251 15.4021 18.898 15.5583 18.898 15.7458C18.898 15.9333 18.8251 16.1 18.6792 16.2458C18.5438 16.3813 18.3823 16.449 18.1948 16.449C18.0073 16.449 17.8407 16.3865 17.6948 16.2615C17.1323 15.7927 16.5725 15.4594 16.0152 15.2615C15.4579 15.0636 14.8928 14.9646 14.3199 14.9646C13.7469 14.9646 13.1818 15.0636 12.6245 15.2615C12.0672 15.4594 11.5073 15.7927 10.9448 16.2615C10.799 16.3865 10.6323 16.449 10.4448 16.449C10.2573 16.449 10.0959 16.3813 9.96047 16.2458ZM7.31985 13.6052C7.18443 13.4698 7.11412 13.3031 7.10891 13.1052C7.1037 12.9073 7.17402 12.7458 7.31985 12.6208C8.26777 11.7667 9.33808 11.0844 10.5308 10.574C11.7235 10.0636 12.9865 9.80835 14.3199 9.80835C15.6532 9.80835 16.9162 10.0636 18.1089 10.574C19.3016 11.0844 20.3719 11.7667 21.3199 12.6208C21.4657 12.7458 21.5386 12.9047 21.5386 13.0974C21.5386 13.2901 21.4657 13.4594 21.3199 13.6052C21.1844 13.7406 21.0204 13.8083 20.8277 13.8083C20.635 13.8083 20.4657 13.7458 20.3199 13.6208C19.4553 12.8813 18.523 12.2953 17.523 11.863C16.523 11.4307 15.4553 11.2146 14.3199 11.2146C13.1844 11.2146 12.1167 11.4307 11.1167 11.863C10.1167 12.2953 9.18443 12.8813 8.31985 13.6208C8.17402 13.7458 8.00475 13.8083 7.81204 13.8083C7.61933 13.8083 7.45527 13.7406 7.31985 13.6052ZM14.3199 20.324C13.9449 20.324 13.6167 20.1833 13.3355 19.9021C13.0542 19.6208 12.9136 19.2927 12.9136 18.9177C12.9136 18.5427 13.0542 18.2146 13.3355 17.9333C13.6167 17.6521 13.9449 17.5115 14.3199 17.5115C14.6949 17.5115 15.023 17.6521 15.3042 17.9333C15.5855 18.2146 15.7261 18.5427 15.7261 18.9177C15.7261 19.2927 15.5855 19.6208 15.3042 19.9021C15.023 20.1833 14.6949 20.324 14.3199 20.324Z"
            fill="#00A1A1" />
    </g>
    <defs>
        <clipPath id="clip0_6_2">
            <rect width="15" height="15" fill="white" transform="translate(6.81982 7.30835)" />
        </clipPath>
    </defs>
</svg>