<svg width="29" height="29" viewBox="0 0 29 29" fill="none" xmlns="http://www.w3.org/2000/svg">
    <circle cx="14.3198" cy="14.7205" r="14" fill="#E5F3F3" />
    <path
        d="M11.3252 11.4504C11.06 11.4504 10.8056 11.5558 10.6181 11.7433C10.4306 11.9309 10.3252 12.1852 10.3252 12.4504V18.4504C10.3252 18.7157 10.4306 18.97 10.6181 19.1575C10.8056 19.3451 11.06 19.4504 11.3252 19.4504H17.3252C17.5904 19.4504 17.8448 19.3451 18.0323 19.1575C18.2198 18.97 18.3252 18.7157 18.3252 18.4504V12.4504C18.3252 12.1852 18.2198 11.9309 18.0323 11.7433C17.8448 11.5558 17.5904 11.4504 17.3252 11.4504H11.3252ZM11.3252 10.4504H17.3252C17.8556 10.4504 18.3643 10.6612 18.7394 11.0362C19.1145 11.4113 19.3252 11.92 19.3252 12.4504V18.4504C19.3252 18.9809 19.1145 19.4896 18.7394 19.8647C18.3643 20.2397 17.8556 20.4504 17.3252 20.4504H11.3252C10.7948 20.4504 10.2861 20.2397 9.91098 19.8647C9.53591 19.4896 9.3252 18.9809 9.3252 18.4504V12.4504C9.3252 11.92 9.53591 11.4113 9.91098 11.0362C10.2861 10.6612 10.7948 10.4504 11.3252 10.4504Z"
        fill="#00A1A1" />
    <path
        d="M14.3252 8.45044C14.4578 8.45044 14.585 8.50312 14.6787 8.59689C14.7725 8.69065 14.8252 8.81783 14.8252 8.95044V10.9504H13.8252V8.95044C13.8252 8.81783 13.8779 8.69065 13.9716 8.59689C14.0654 8.50312 14.1926 8.45044 14.3252 8.45044ZM16.8252 8.45044C16.9578 8.45044 17.085 8.50312 17.1787 8.59689C17.2725 8.69065 17.3252 8.81783 17.3252 8.95044V10.9504H16.3252V8.95044C16.3252 8.81783 16.3779 8.69065 16.4716 8.59689C16.5654 8.50312 16.6926 8.45044 16.8252 8.45044ZM11.8252 8.45044C11.9578 8.45044 12.085 8.50312 12.1787 8.59689C12.2725 8.69065 12.3252 8.81783 12.3252 8.95044V10.9504H11.3252V8.95044C11.3252 8.81783 11.3779 8.69065 11.4716 8.59689C11.5654 8.50312 11.6926 8.45044 11.8252 8.45044ZM14.3252 22.4504C14.1926 22.4504 14.0654 22.3978 13.9716 22.304C13.8779 22.2102 13.8252 22.083 13.8252 21.9504V19.9504H14.8252V21.9504C14.8252 22.083 14.7725 22.2102 14.6787 22.304C14.585 22.3978 14.4578 22.4504 14.3252 22.4504ZM16.8252 22.4504C16.6926 22.4504 16.5654 22.3978 16.4716 22.304C16.3779 22.2102 16.3252 22.083 16.3252 21.9504V19.9504H17.3252V21.9504C17.3252 22.083 17.2725 22.2102 17.1787 22.304C17.085 22.3978 16.9578 22.4504 16.8252 22.4504ZM11.8252 22.4504C11.6926 22.4504 11.5654 22.3978 11.4716 22.304C11.3779 22.2102 11.3252 22.083 11.3252 21.9504V19.9504H12.3252V21.9504C12.3252 22.083 12.2725 22.2102 12.1787 22.304C12.085 22.3978 11.9578 22.4504 11.8252 22.4504ZM7.3252 15.4504C7.3252 15.3178 7.37787 15.1907 7.47164 15.0969C7.56541 15.0031 7.69259 14.9504 7.8252 14.9504H9.8252V15.9504H7.8252C7.69259 15.9504 7.56541 15.8978 7.47164 15.804C7.37787 15.7102 7.3252 15.583 7.3252 15.4504ZM7.3252 12.9504C7.3252 12.8178 7.37787 12.6907 7.47164 12.5969C7.56541 12.5031 7.69259 12.4504 7.8252 12.4504H9.8252V13.4504H7.8252C7.69259 13.4504 7.56541 13.3978 7.47164 13.304C7.37787 13.2102 7.3252 13.083 7.3252 12.9504ZM7.3252 17.9504C7.3252 17.8178 7.37787 17.6907 7.47164 17.5969C7.56541 17.5031 7.69259 17.4504 7.8252 17.4504H9.8252V18.4504H7.8252C7.69259 18.4504 7.56541 18.3978 7.47164 18.304C7.37787 18.2102 7.3252 18.083 7.3252 17.9504ZM21.3252 15.4504C21.3252 15.583 21.2725 15.7102 21.1787 15.804C21.085 15.8978 20.9578 15.9504 20.8252 15.9504H18.8252V14.9504H20.8252C20.9578 14.9504 21.085 15.0031 21.1787 15.0969C21.2725 15.1907 21.3252 15.3178 21.3252 15.4504ZM21.3252 12.9504C21.3252 13.083 21.2725 13.2102 21.1787 13.304C21.085 13.3978 20.9578 13.4504 20.8252 13.4504H18.8252V12.4504H20.8252C20.9578 12.4504 21.085 12.5031 21.1787 12.5969C21.2725 12.6907 21.3252 12.8178 21.3252 12.9504ZM21.3252 17.9504C21.3252 18.083 21.2725 18.2102 21.1787 18.304C21.085 18.3978 20.9578 18.4504 20.8252 18.4504H18.8252V17.4504H20.8252C20.9578 17.4504 21.085 17.5031 21.1787 17.5969C21.2725 17.6907 21.3252 17.8178 21.3252 17.9504Z"
        fill="#00A1A1" />
</svg>