<svg xmlns:xlink="http://www.w3.org/1999/xlink" xmlns="http://www.w3.org/2000/svg" viewBox="0 0 1536.29 1536" width="1536.29"  height="1536" ><title>icon-ram2</title><rect x="0.29" width="1536" height="1536" style="fill:none"/><line x1="909.61" y1="891.65" x2="971.79" y2="953.83" style="fill:none;stroke:#787878;stroke-linecap:round;stroke-miterlimit:10;stroke-width:103.93282935492046px"/><line x1="1128.36" y1="752.17" x2="1165.62" y2="789.44" style="fill:none;stroke:#787878;stroke-linecap:round;stroke-miterlimit:10;stroke-width:80.45986147716921px"/><line x1="770.13" y1="1110.4" x2="807.4" y2="1147.66" style="fill:none;stroke:#787878;stroke-linecap:round;stroke-miterlimit:10;stroke-width:80.45986147716921px"/><line x1="591.02" y1="1289.51" x2="628.28" y2="1326.78" style="fill:none;stroke:#787878;stroke-linecap:round;stroke-miterlimit:10;stroke-width:80.45986147716921px"/><line x1="1307.47" y1="573.06" x2="1344.73" y2="610.32" style="fill:none;stroke:#787878;stroke-linecap:round;stroke-miterlimit:10;stroke-width:80.45986147716921px"/><path d="M1178.16,136.49l.37-.37-53.18-53.18c-40.62-40.62-107.1-40.62-147.72,0L82.43,978.13c-40.62,40.63-40.62,107.1,0,147.73L135.61,1179A97.15,97.15,0,0,1,273,1316.42l136.64,136.64c40.62,40.62,107.1,40.62,147.72,0l895.19-895.19c40.63-40.63,40.63-107.1,0-147.73L1315.91,273.5l-.37.37a97.14,97.14,0,1,1-137.38-137.38Z" style="fill:none;stroke:#787878;stroke-linecap:round;stroke-miterlimit:10;stroke-width:103.93282935492046px"/><rect x="519.59" y="750.92" width="130.57" height="194.81" transform="translate(-428.55 662.04) rotate(-45)" style="fill:#787878"/><rect x="369.65" y="900.86" width="130.57" height="194.81" transform="translate(-578.49 599.93) rotate(-45)" style="fill:#787878"/><rect x="951.67" y="318.83" width="130.57" height="194.81" transform="translate(3.54 841.01) rotate(-45)" style="fill:#787878"/><rect x="801.74" y="468.77" width="130.57" height="194.81" transform="translate(-146.4 778.91) rotate(-45)" style="fill:#787878"/></svg>