<svg xmlns:xlink="http://www.w3.org/1999/xlink" xmlns="http://www.w3.org/2000/svg" viewBox="0 0 1536 1536" width="1536"  height="1536" ><title>icon-cpu</title><rect width="1536" height="1536" style="fill:none"/><rect x="365.23" y="362.63" width="808.42" height="808.42" rx="100" style="fill:none;stroke:#787878;stroke-linecap:round;stroke-miterlimit:10;stroke-width:99.5px"/><line x1="1195.96" y1="772.64" x2="1408.82" y2="772.64" style="fill:none;stroke:#787878;stroke-linecap:round;stroke-miterlimit:10;stroke-width:99.5px"/><line x1="1195.96" y1="545.15" x2="1408.82" y2="545.15" style="fill:none;stroke:#787878;stroke-linecap:round;stroke-miterlimit:10;stroke-width:99.5px"/><line x1="1195.96" y1="990.85" x2="1408.82" y2="990.85" style="fill:none;stroke:#787878;stroke-linecap:round;stroke-miterlimit:10;stroke-width:99.5px"/><line x1="129.28" y1="772.64" x2="342.14" y2="772.64" style="fill:none;stroke:#787878;stroke-linecap:round;stroke-miterlimit:10;stroke-width:99.5px"/><line x1="129.28" y1="545.15" x2="342.14" y2="545.15" style="fill:none;stroke:#787878;stroke-linecap:round;stroke-miterlimit:10;stroke-width:99.5px"/><line x1="129.28" y1="990.85" x2="342.14" y2="990.85" style="fill:none;stroke:#787878;stroke-linecap:round;stroke-miterlimit:10;stroke-width:99.5px"/><rect x="514.6" y="512" width="509.68" height="509.68" rx="100" style="fill:#787878"/><line x1="773.69" y1="341.09" x2="773.69" y2="128.23" style="fill:none;stroke:#787878;stroke-linecap:round;stroke-miterlimit:10;stroke-width:99.5px"/><line x1="546.2" y1="341.09" x2="546.2" y2="128.23" style="fill:none;stroke:#787878;stroke-linecap:round;stroke-miterlimit:10;stroke-width:99.5px"/><line x1="991.9" y1="341.09" x2="991.9" y2="128.23" style="fill:none;stroke:#787878;stroke-linecap:round;stroke-miterlimit:10;stroke-width:99.5px"/><line x1="773.69" y1="1407.77" x2="773.69" y2="1194.91" style="fill:none;stroke:#787878;stroke-linecap:round;stroke-miterlimit:10;stroke-width:99.5px"/><line x1="546.2" y1="1407.77" x2="546.2" y2="1194.91" style="fill:none;stroke:#787878;stroke-linecap:round;stroke-miterlimit:10;stroke-width:99.5px"/><line x1="991.9" y1="1407.77" x2="991.9" y2="1194.91" style="fill:none;stroke:#787878;stroke-linecap:round;stroke-miterlimit:10;stroke-width:99.5px"/></svg>