<svg xmlns:xlink="http://www.w3.org/1999/xlink" xmlns="http://www.w3.org/2000/svg" viewBox="0 0 1536.48 1536.52" width="1536.48"  height="1536.52" ><title>icon-storage</title><path d="M1040.34,960q0,33-23.48,56.51T960.37,1040q-33,0-56.51-23.48T880.34,960q0-33,23.48-56.5T960.32,880q33,0,56.5,23.48T1040.34,960Zm256-.08q0,33-23.48,56.51t-56.49,23.52q-33,0-56.51-23.48T1136.34,960q0-33,23.48-56.5t56.5-23.52q33,0,56.5,23.48T1296.34,959.91Zm112.05,160-.1-320a32.45,32.45,0,0,0-32-32l-1216,.38a32.45,32.45,0,0,0-32,32l.1,320a32.45,32.45,0,0,0,32,32l1216-.38a32.45,32.45,0,0,0,32-32ZM178.24,640.26l1180-.37L1201.09,157.94q-4-13-16-21.49a44,44,0,0,0-26-8.49l-782,.24a44.14,44.14,0,0,0-26,8.51q-12,8.5-16,21.51ZM1536.29,799.84l.1,320q0,66-47,113t-113,47l-1216,.38q-66,0-113-47t-47-113l-.1-320q0-25,16-75L213.08,119.25q17-53,63-86T377,.2L1159,0q55,0,101,33t63,86l197.19,605.93Q1536.28,774.83,1536.29,799.84Z" transform="translate(0 0.04)" style="fill:#787878"/><rect x="0.24" y="0.28" width="1536" height="1536" style="fill:none"/></svg>