<svg width="20" height="20" viewBox="0 0 20 20" fill="none" xmlns="http://www.w3.org/2000/svg">
    <path
        d="M5 18.3337C4.30556 18.3337 3.71528 18.0906 3.22917 17.6045C2.74306 17.1184 2.5 16.5281 2.5 15.8337V15.0003C2.5 14.542 2.66333 14.1498 2.99 13.8237C3.31667 13.4975 3.70889 13.3342 4.16667 13.3337H5V3.33366C5 2.87533 5.16333 2.4831 5.49 2.15699C5.81667 1.83088 6.20889 1.66755 6.66667 1.66699H15.8333C16.2917 1.66699 16.6842 1.83033 17.0108 2.15699C17.3375 2.48366 17.5006 2.87588 17.5 3.33366V15.8337C17.5 16.5281 17.2569 17.1184 16.7708 17.6045C16.2847 18.0906 15.6944 18.3337 15 18.3337H5ZM15 16.667C15.2361 16.667 15.4342 16.587 15.5942 16.427C15.7542 16.267 15.8339 16.0692 15.8333 15.8337V3.33366H6.66667V13.3337H12.5C12.9583 13.3337 13.3508 13.497 13.6775 13.8237C14.0042 14.1503 14.1672 14.5425 14.1667 15.0003V15.8337C14.1667 16.0698 14.2467 16.2678 14.4067 16.4278C14.5667 16.5878 14.7644 16.6675 15 16.667ZM5 16.667H12.5V15.0003H4.16667V15.8337C4.16667 16.0698 4.24667 16.2678 4.40667 16.4278C4.56667 16.5878 4.76444 16.6675 5 16.667ZM5 16.667H4.16667H12.5H5Z"
        fill="white" />
    <path
        d="M8.33334 7.49967C8.09723 7.49967 7.89945 7.41967 7.74 7.25967C7.58056 7.09967 7.50056 6.9019 7.5 6.66634C7.49945 6.43079 7.57945 6.23301 7.74 6.07301C7.90056 5.91301 8.09834 5.83301 8.33334 5.83301H14.1667C14.4028 5.83301 14.6008 5.91301 14.7608 6.07301C14.9208 6.23301 15.0006 6.43079 15 6.66634C14.9994 6.9019 14.9194 7.09995 14.76 7.26051C14.6006 7.42106 14.4028 7.50079 14.1667 7.49967H8.33334ZM8.33334 9.99967C8.09723 9.99967 7.89945 9.91967 7.74 9.75967C7.58056 9.59967 7.50056 9.4019 7.5 9.16634C7.49945 8.93079 7.57945 8.73301 7.74 8.57301C7.90056 8.41301 8.09834 8.33301 8.33334 8.33301H14.1667C14.4028 8.33301 14.6008 8.41301 14.7608 8.57301C14.9208 8.73301 15.0006 8.93079 15 9.16634C14.9994 9.4019 14.9194 9.59995 14.76 9.76051C14.6006 9.92106 14.4028 10.0008 14.1667 9.99967H8.33334Z"
        fill="#01FF48" />
</svg>