<svg width="20" height="20" viewBox="0 0 7 7" fill="none" xmlns="http://www.w3.org/2000/svg">
<path d="M6.16504 2.58716H5.78384V1.06235H4.25903V0.681152H6.16504V2.58716Z" fill="#00A1A1"/>
<path d="M5.83879 0.737762L6.1083 1.00746L3.2512 3.86456L2.98169 3.59505L5.83879 0.737762Z" fill="#00A1A1"/>
<path d="M5.21206 6.01796H1.40005C1.07603 6.01796 0.828247 5.77018 0.828247 5.44616V1.63415C0.828247 1.31013 1.07603 1.06235 1.40005 1.06235H3.49665V1.44355H1.40005C1.28569 1.44355 1.20945 1.51979 1.20945 1.63415V5.44616C1.20945 5.56052 1.28569 5.63676 1.40005 5.63676H5.21206C5.32642 5.63676 5.40266 5.56052 5.40266 5.44616V3.34955H5.78386V5.44616C5.78386 5.77018 5.53608 6.01796 5.21206 6.01796Z" fill="#00A1A1"/>
</svg>
