<svg xmlns:xlink="http://www.w3.org/1999/xlink" xmlns="http://www.w3.org/2000/svg" width="305" height="50" viewBox="0 0 305 50" fill="none">
<g clip-path="url(#clip0)">
<path d="M62.6301 0H61.1701C60.9561 0.00114679 60.7471 0.0652992 60.5692 0.184448C60.3914 0.303597 60.2526 0.47247 60.1701 0.670002L40.4201 48.12C40.3511 48.2852 40.3239 48.4648 40.3408 48.6431C40.3577 48.8213 40.4183 48.9926 40.5172 49.1419C40.616 49.2911 40.7501 49.4137 40.9076 49.4989C41.0651 49.584 41.2411 49.629 41.4201 49.63H49.6301C51.4563 49.6305 53.2418 49.0904 54.7615 48.0779C56.2813 47.0653 57.4673 45.6255 58.1701 43.94L71.1701 12.8C71.7542 11.3946 71.9825 9.86676 71.8348 8.35198C71.687 6.83721 71.1678 5.38229 70.3231 4.11625C69.4784 2.8502 68.3343 1.81215 66.9924 1.09412C65.6505 0.376087 64.1521 0.000273549 62.6301 0V0Z" fill="white"/>
<path d="M55.6301 0H41.9301C41.7161 0.00114679 41.5071 0.0652992 41.3292 0.184448C41.1514 0.303597 41.0126 0.47247 40.9301 0.670002L21.1701 48.12C21.1011 48.2852 21.0739 48.4648 21.0908 48.6431C21.1077 48.8213 21.1683 48.9926 21.2672 49.1419C21.366 49.2911 21.5001 49.4137 21.6576 49.4989C21.8151 49.584 21.9911 49.629 22.1701 49.63H35.8601C36.0742 49.6289 36.2831 49.5647 36.461 49.4456C36.6388 49.3264 36.7776 49.1575 36.8601 48.96L56.6301 1.49C56.6949 1.3258 56.7189 1.14832 56.6999 0.972824C56.6809 0.797325 56.6196 0.629061 56.5213 0.482491C56.4229 0.33592 56.2904 0.21543 56.1352 0.131386C55.9799 0.0473413 55.8066 0.00225389 55.6301 0V0Z" fill="white"/>
<path d="M36.3502 3.84006L35.0302 0.660064C34.9484 0.462832 34.8095 0.294588 34.6313 0.176971C34.453 0.0593527 34.2437 -0.00225926 34.0302 6.39206e-05H20.3102C20.1332 -0.00187067 19.9585 0.0401361 19.8017 0.122317C19.645 0.204499 19.511 0.324288 19.4119 0.470954C19.3128 0.617619 19.2517 0.786577 19.2339 0.962691C19.2162 1.13881 19.2424 1.31658 19.3102 1.48007L27.5002 21.1501C27.5774 21.3528 27.7143 21.5273 27.8929 21.6504C28.0715 21.7735 28.2833 21.8394 28.5002 21.8394C28.7171 21.8394 28.9289 21.7735 29.1075 21.6504C29.2861 21.5273 29.423 21.3528 29.5002 21.1501L36.3602 4.66006C36.4125 4.52944 36.4386 4.38978 36.4369 4.24907C36.4352 4.10836 36.4057 3.96937 36.3502 3.84006V3.84006Z" fill="white"/>
<path d="M15.78 0.660064C15.6982 0.462832 15.5592 0.294588 15.381 0.176971C15.2028 0.0593527 14.9935 -0.00225926 14.78 6.39206e-05H1.06998C0.89298 -0.00187067 0.718268 0.0401361 0.561496 0.122317C0.404724 0.204499 0.270789 0.324288 0.171691 0.470954C0.0725926 0.617619 0.0114278 0.786577 -0.0063239 0.962691C-0.0240756 1.13881 0.00214034 1.31658 0.0699758 1.48007L17.89 44.2701C17.9671 44.4728 18.1041 44.6473 18.2827 44.7704C18.4613 44.8935 18.6731 44.9594 18.89 44.9594C19.1069 44.9594 19.3187 44.8935 19.4973 44.7704C19.6759 44.6473 19.8128 44.4728 19.89 44.2701L26.73 27.7801C26.7839 27.6501 26.8116 27.5108 26.8116 27.3701C26.8116 27.2294 26.7839 27.09 26.73 26.9601L15.78 0.660064Z" fill="white"/>
<path d="M114.01 11.27H118.01L122.42 22.87L126.88 11.27H130.88L125.11 25.78L130.81 39.49L142.08 11.04H146.63L132.74 44.41H129.08L122.46 28.68L115.79 44.41H112.13L98.23 11.08H102.78L114.1 39.49L119.78 25.74L114.01 11.27Z" fill="white"/>
<path d="M156.84 44.8798C155.099 44.9035 153.372 44.5629 151.77 43.8798C150.285 43.2381 148.945 42.3027 147.83 41.1298C146.723 39.9544 145.854 38.5757 145.27 37.0698C144.655 35.5062 144.343 33.8399 144.35 32.1598C144.342 30.4893 144.655 28.8328 145.27 27.2798C145.864 25.7922 146.74 24.4338 147.85 23.2798C148.987 22.1057 150.347 21.1707 151.85 20.5298C153.452 19.8461 155.179 19.5054 156.92 19.5298C159.39 19.4852 161.812 20.2089 163.853 21.6008C165.893 22.9928 167.451 24.9842 168.31 27.2998C168.888 28.8064 169.182 30.4064 169.18 32.0198C169.18 32.3664 169.18 32.6798 169.18 32.9598C169.172 33.1811 169.148 33.4016 169.11 33.6198H148.72C148.799 34.7722 149.087 35.9007 149.57 36.9498C150.019 37.9016 150.639 38.7626 151.4 39.4898C152.143 40.2047 153.011 40.7775 153.96 41.1798C154.909 41.5837 155.929 41.7912 156.96 41.7898C157.708 41.7894 158.452 41.6851 159.17 41.4798C159.866 41.2829 160.537 41.0078 161.17 40.6598C161.788 40.3227 162.351 39.8946 162.84 39.3898C163.314 38.9038 163.688 38.3296 163.94 37.6998L167.51 38.6998C167.097 39.6173 166.532 40.459 165.84 41.1898C165.123 41.9518 164.302 42.6084 163.4 43.1398C162.439 43.7038 161.406 44.1376 160.33 44.4298C159.192 44.7358 158.019 44.8872 156.84 44.8798ZM165.25 30.4898C165.167 29.371 164.872 28.2782 164.38 27.2698C163.927 26.3293 163.307 25.4789 162.55 24.7598C161.389 23.6955 159.952 22.9793 158.403 22.6928C156.854 22.4064 155.255 22.5613 153.79 23.1398C152.84 23.5178 151.971 24.0745 151.23 24.7798C150.486 25.4983 149.882 26.3496 149.45 27.2898C148.987 28.2985 148.709 29.3825 148.63 30.4898H165.25Z" fill="white"/>
<path d="M185.63 44.8801C183.802 44.9044 182.002 44.4234 180.43 43.4901C178.909 42.5965 177.634 41.3388 176.72 39.8301V44.4301H173.06V10.1401H177.19V24.7901C178.167 23.25 179.463 21.9371 180.99 20.9401C182.461 20.0558 184.131 19.5573 185.846 19.4909C187.561 19.4244 189.265 19.7922 190.8 20.5601C192.129 21.2664 193.302 22.2321 194.25 23.4001C195.229 24.6178 195.978 26.0038 196.46 27.4901C196.972 29.0249 197.232 30.6323 197.23 32.2501C197.24 33.918 196.938 35.5731 196.34 37.1301C195.779 38.6018 194.952 39.9577 193.9 41.1301C192.863 42.2734 191.609 43.1982 190.21 43.8501C188.78 44.5318 187.215 44.8838 185.63 44.8801ZM184.63 41.3101C185.799 41.3221 186.956 41.0655 188.01 40.5601C189.027 40.0775 189.938 39.3977 190.69 38.5601C191.444 37.7126 192.034 36.7327 192.43 35.6701C192.837 34.583 193.044 33.431 193.04 32.2701C193.041 31.0949 192.842 29.9282 192.45 28.8201C192.083 27.7533 191.527 26.761 190.81 25.8901C190.103 25.0627 189.24 24.383 188.27 23.8901C187.263 23.3704 186.143 23.106 185.01 23.1201C184.158 23.1155 183.312 23.2751 182.52 23.5901C181.74 23.9013 181.006 24.3186 180.34 24.8301C179.667 25.3491 179.068 25.9581 178.56 26.6401C178.042 27.3309 177.593 28.0712 177.22 28.8501V35.9401C177.377 36.7294 177.72 37.4699 178.22 38.1001C178.74 38.7596 179.357 39.3362 180.05 39.8101C180.746 40.2913 181.502 40.678 182.3 40.9601C183.051 41.2076 183.839 41.326 184.63 41.3101V41.3101Z" fill="white"/>
<path d="M211.81 44.8801C210.191 44.9042 208.588 44.5624 207.12 43.8801C205.71 43.2148 204.448 42.2728 203.41 41.1101C202.364 39.9372 201.543 38.5811 200.99 37.1101C200.408 35.5633 200.113 33.923 200.12 32.2701C200.11 30.5986 200.388 28.9378 200.94 27.3601C201.45 25.8769 202.23 24.5006 203.24 23.3001C204.207 22.1307 205.405 21.174 206.76 20.4901C208.155 19.8139 209.689 19.4716 211.24 19.4901C213.116 19.4624 214.957 20.0027 216.52 21.0401C218.008 22.0105 219.268 23.2936 220.21 24.8001V10.1401H224.34V39.3401C224.34 40.3135 224.78 40.8135 225.66 40.8401V44.4101L224.6 44.5501C224.343 44.5647 224.086 44.5647 223.83 44.5501C223.038 44.5602 222.272 44.2668 221.69 43.7301C221.407 43.5002 221.178 43.2108 221.019 42.8825C220.86 42.5541 220.775 42.1949 220.77 41.8301V39.8101C219.83 41.3559 218.509 42.6341 216.933 43.522C215.357 44.4099 213.579 44.8775 211.77 44.8801H211.81ZM212.81 41.3101C213.601 41.3023 214.386 41.1603 215.13 40.8901C215.931 40.6083 216.689 40.2144 217.38 39.7201C218.075 39.2289 218.692 38.6355 219.21 37.9601C219.701 37.3318 220.043 36.6001 220.21 35.8201V28.8201C219.913 28.0118 219.483 27.2583 218.94 26.5901C218.39 25.8989 217.751 25.2836 217.04 24.7601C216.353 24.2335 215.596 23.806 214.79 23.4901C214.033 23.1993 213.23 23.0468 212.42 23.0401C211.27 23.021 210.133 23.2855 209.11 23.8101C208.131 24.3201 207.267 25.0245 206.57 25.8801C205.851 26.7725 205.302 27.7894 204.95 28.8801C204.578 29.9751 204.389 31.1238 204.39 32.2801C204.386 33.4781 204.61 34.6659 205.05 35.7801C205.458 36.8458 206.062 37.826 206.83 38.6701C207.58 39.4844 208.479 40.1465 209.48 40.6201C210.517 41.0964 211.649 41.3323 212.79 41.3101H212.81Z" fill="white"/>
<path d="M240.98 44.8801C239.307 44.9048 237.648 44.5795 236.108 43.9251C234.569 43.2707 233.183 42.3016 232.04 41.08C230.956 39.9191 230.104 38.5613 229.53 37.08C228.934 35.5364 228.632 33.8948 228.64 32.2401C228.632 30.5696 228.944 28.913 229.56 27.3601C230.15 25.8804 231.012 24.5238 232.1 23.3601C233.203 22.1864 234.528 21.2447 236 20.5901C237.576 19.9024 239.281 19.5613 241 19.5901C242.671 19.5726 244.329 19.9012 245.867 20.5552C247.406 21.2092 248.792 22.1743 249.94 23.3901C251.028 24.5538 251.889 25.9104 252.48 27.3901C253.095 28.9432 253.407 30.5996 253.4 32.2701C253.408 33.9248 253.106 35.5664 252.51 37.1101C251.937 38.616 251.071 39.9934 249.962 41.1623C248.853 42.3313 247.523 43.2686 246.05 43.9201C244.449 44.6012 242.719 44.9286 240.98 44.8801V44.8801ZM232.86 32.2501C232.847 33.4688 233.06 34.6794 233.49 35.8201C233.888 36.8727 234.478 37.8424 235.23 38.6801C235.955 39.4841 236.831 40.1366 237.81 40.6001C238.802 41.0637 239.884 41.3039 240.98 41.3039C242.075 41.3039 243.157 41.0637 244.15 40.6001C245.14 40.1286 246.027 39.4659 246.76 38.6501C247.524 37.7991 248.121 36.8119 248.52 35.7401C248.948 34.5921 249.161 33.3752 249.15 32.1501C249.158 30.9415 248.944 29.7416 248.52 28.6101C248.121 27.5383 247.524 26.5511 246.76 25.7001C246.027 24.8844 245.14 24.2217 244.15 23.7501C243.159 23.2808 242.076 23.0415 240.98 23.0501C239.881 23.0444 238.796 23.2943 237.81 23.7801C236.827 24.2707 235.95 24.9503 235.23 25.7801C234.477 26.6359 233.888 27.6221 233.49 28.6901C233.065 29.8286 232.852 31.035 232.86 32.2501V32.2501Z" fill="white"/>
<path d="M256.09 32.11C256.08 30.4421 256.382 28.7871 256.98 27.23C257.552 25.7411 258.416 24.3813 259.52 23.23C260.634 22.0676 261.966 21.1364 263.44 20.49C265.047 19.8024 266.782 19.4616 268.53 19.49C270.743 19.4315 272.929 19.9926 274.84 21.11C276.56 22.1453 277.948 23.6513 278.84 25.45L274.84 26.72C274.239 25.5875 273.326 24.6507 272.21 24.02C271.067 23.3599 269.77 23.0149 268.45 23.02C267.35 23.0127 266.26 23.2419 265.256 23.6922C264.252 24.1425 263.356 24.8034 262.63 25.63C261.904 26.4758 261.336 27.4443 260.95 28.49C260.089 30.8231 260.089 33.3869 260.95 35.72C261.357 36.7938 261.953 37.7861 262.71 38.65C263.428 39.4689 264.306 40.1324 265.29 40.6C266.281 41.069 267.364 41.3082 268.46 41.3C269.184 41.3019 269.905 41.2009 270.6 41C271.272 40.8096 271.918 40.534 272.52 40.18C273.081 39.85 273.596 39.4464 274.05 38.98C274.467 38.5606 274.788 38.0556 274.99 37.5L278.99 38.72C278.612 39.6331 278.081 40.4752 277.42 41.21C276.735 41.9692 275.935 42.6169 275.05 43.13C273.065 44.2755 270.812 44.8758 268.52 44.87C266.839 44.8891 265.173 44.5615 263.624 43.9077C262.076 43.2539 260.679 42.2879 259.52 41.07C258.413 39.8946 257.543 38.5159 256.96 37.01C256.363 35.4463 256.068 33.7836 256.09 32.11V32.11Z" fill="white"/>
<path d="M300.01 44.4101L291.56 32.4101L286.87 36.8201V44.3801H282.74V10.1401H286.87V32.6701L299.45 19.9501H304L294.24 30.0901L304.47 44.4101H300.01Z" fill="white"/>
</g>
<defs>
<clipPath id="clip0">
<rect width="304.48" height="49.63" fill="white"/>
</clipPath>
</defs>
</svg>