<svg width="29" height="29" viewBox="0 0 29 29" fill="none" xmlns="http://www.w3.org/2000/svg">
    <path
        d="M5.03679 21.4306C4.70623 21.4306 4.42934 21.3232 4.20612 21.1084C3.9829 20.8936 3.8709 20.6281 3.87012 20.3119C3.86934 19.9957 3.98134 19.7302 4.20612 19.5154C4.4309 19.3006 4.70779 19.1932 5.03679 19.1932H23.7035C24.034 19.1932 24.3113 19.3006 24.5353 19.5154C24.7593 19.7302 24.8709 19.9957 24.8701 20.3119C24.8693 20.6281 24.7573 20.894 24.5341 21.1095C24.3109 21.3251 24.034 21.4321 23.7035 21.4306H5.03679ZM5.03679 15.8372C4.70623 15.8372 4.42934 15.7298 4.20612 15.515C3.9829 15.3002 3.8709 15.0347 3.87012 14.7185C3.86934 14.4023 3.98134 14.1368 4.20612 13.922C4.4309 13.7072 4.70779 13.5998 5.03679 13.5998H23.7035C24.034 13.5998 24.3113 13.7072 24.5353 13.922C24.7593 14.1368 24.8709 14.4023 24.8701 14.7185C24.8693 15.0347 24.7573 15.3006 24.5341 15.5161C24.3109 15.7316 24.034 15.8386 23.7035 15.8372H5.03679ZM5.03679 10.2437C4.70623 10.2437 4.42934 10.1363 4.20612 9.92154C3.9829 9.70675 3.8709 9.44125 3.87012 9.12503C3.86934 8.80882 3.98134 8.54332 4.20612 8.32853C4.4309 8.11374 4.70779 8.00635 5.03679 8.00635H23.7035C24.034 8.00635 24.3113 8.11374 24.5353 8.32853C24.7593 8.54332 24.8709 8.80882 24.8701 9.12503C24.8693 9.44125 24.7573 9.70712 24.5341 9.92266C24.3109 10.1382 24.034 10.2452 23.7035 10.2437H5.03679Z"
        fill="currentColor" />
</svg>