<svg width="29" height="29" viewBox="0 0 29 29" fill="none" xmlns="http://www.w3.org/2000/svg">
    <path
        d="M22.3853 20.1279V14.0613C21.802 14.1779 21.2186 14.2946 20.6353 14.2946H20.052V21.2946H8.38529V13.1279C8.38529 9.86126 10.952 7.2946 14.2186 7.2946C14.3353 5.77793 15.0353 4.4946 15.9686 3.4446C15.6186 2.97793 14.9186 2.62793 14.2186 2.62793C12.9353 2.62793 11.8853 3.67793 11.8853 4.96126V5.31126C8.38529 6.36126 6.05196 9.51126 6.05196 13.1279V20.1279L3.71863 22.4613V23.6279H24.7186V22.4613L22.3853 20.1279Z"
        fill="currentColor" />
    <path
        d="M11.8853 24.7944C11.8853 26.0778 12.9353 27.1278 14.2186 27.1278C15.502 27.1278 16.552 26.0778 16.552 24.7944H11.8853ZM24.7187 7.87777C24.7187 10.0944 22.852 11.9611 20.6353 11.9611C18.4186 11.9611 16.552 10.0944 16.552 7.87777C16.552 5.6611 18.4186 3.79443 20.6353 3.79443C22.852 3.79443 24.7187 5.6611 24.7187 7.87777Z"
        fill="#01FF48" />
</svg>
<svg width="28" height="28" viewBox="0 0 28 28" fill="none" xmlns="http://www.w3.org/2000/svg">
<path d="M11.6667 24.5002H16.3333C16.3333 25.7835 15.2833 26.8335 14 26.8335C12.7167 26.8335 11.6667 25.7835 11.6667 24.5002ZM24.5 22.1668V23.3335H3.5V22.1668L5.83333 19.8335V12.8335C5.83333 9.21683 8.16667 6.06683 11.6667 5.01683V4.66683C11.6667 3.3835 12.7167 2.3335 14 2.3335C15.2833 2.3335 16.3333 3.3835 16.3333 4.66683V5.01683C19.8333 6.06683 22.1667 9.21683 22.1667 12.8335V19.8335L24.5 22.1668ZM19.8333 12.8335C19.8333 9.56683 17.2667 7.00016 14 7.00016C10.7333 7.00016 8.16667 9.56683 8.16667 12.8335V21.0002H19.8333V12.8335Z" fill="black"/>
</svg>
