<svg width="45" height="45" viewBox="0 0 45 45" fill="none" xmlns="http://www.w3.org/2000/svg">
<circle cx="22.5" cy="22.5" r="22.5" fill="#03A84E" fill-opacity="0.21"/>
<g clip-path="url(#clip0_13_1387)">
<path d="M29.8824 20.8571H25.1429V16.1176C25.1429 14.9531 24.1649 14 23 14C21.8351 14 20.8571 14.9531 20.8571 16.1176V20.8571H16.1176C14.9531 20.8571 14 21.8351 14 23C14 24.1649 14.9531 25.1429 16.1176 25.1429H20.8571V29.8824C20.8571 31.0469 21.8351 32 23 32C24.1649 32 25.1429 31.0469 25.1429 29.8824V25.1429H29.8824C31.0469 25.1429 32 24.1649 32 23C32 21.8351 31.0469 20.8571 29.8824 20.8571Z" fill="#03A84E"/>
</g>
<defs>
<clipPath id="clip0_13_1387">
<rect width="18" height="18" fill="white" transform="translate(14 14)"/>
</clipPath>
</defs>
</svg>
