<svg width="74" height="71" viewBox="0 0 74 71" fill="none" xmlns="http://www.w3.org/2000/svg">
    <g filter="url(#filter0_d_4663_10202)">
        <rect x="10" y="11" width="54" height="54" rx="27" fill="#01FF48" />
        <rect x="9" y="10" width="56" height="56" rx="28" stroke="white" stroke-width="2" />
        <path
            d="M38.583 39.3551V48.8405C38.583 49.1954 38.4459 49.51 38.1716 49.7842C37.8974 50.0585 37.5828 50.1956 37.2279 50.1956C36.873 50.1956 36.5585 50.0585 36.2842 49.7842C36.01 49.51 35.8729 49.1954 35.8729 48.8405L35.8729 39.3551L26.3874 39.3551C26.0325 39.3551 25.7179 39.2179 25.4437 38.9437C25.1695 38.6695 25.0323 38.3549 25.0323 38C25.0323 37.6451 25.1695 37.3305 25.4437 37.0563C25.7179 36.7821 26.0325 36.6449 26.3874 36.6449L35.8729 36.6449L35.8729 27.1595C35.8729 26.8046 36.01 26.49 36.2842 26.2158C36.5585 25.9415 36.873 25.8044 37.2279 25.8044C37.5828 25.8044 37.8974 25.9415 38.1716 26.2158C38.4459 26.49 38.583 26.8046 38.583 27.1595V36.6449L48.0684 36.6449C48.4233 36.6449 48.7379 36.7821 49.0121 37.0563C49.2864 37.3305 49.4235 37.6451 49.4235 38C49.4235 38.3549 49.2864 38.6695 49.0121 38.9437C48.7379 39.2179 48.4233 39.3551 48.0684 39.3551L38.583 39.3551Z"
            fill="black" stroke="black" />
    </g>
    <defs>
        <filter id="filter0_d_4663_10202" x="0" y="-3" width="74" height="74" filterUnits="userSpaceOnUse"
            color-interpolation-filters="sRGB">
            <feFlood flood-opacity="0" result="BackgroundImageFix" />
            <feColorMatrix in="SourceAlpha" type="matrix" values="0 0 0 0 0 0 0 0 0 0 0 0 0 0 0 0 0 0 127 0"
                result="hardAlpha" />
            <feOffset dy="-4" />
            <feGaussianBlur stdDeviation="4" />
            <feColorMatrix type="matrix" values="0 0 0 0 0 0 0 0 0 0 0 0 0 0 0 0 0 0 0.06 0" />
            <feBlend mode="normal" in2="BackgroundImageFix" result="effect1_dropShadow_4663_10202" />
            <feBlend mode="normal" in="SourceGraphic" in2="effect1_dropShadow_4663_10202" result="shape" />
        </filter>
    </defs>
</svg>