<svg width="49" height="48" viewBox="0 0 49 48" fill="none" xmlns="http://www.w3.org/2000/svg">
    <path
        d="M20.7061 23.75C18.5061 23.75 16.7061 23.05 15.3061 21.65C13.9061 20.25 13.2061 18.45 13.2061 16.25C13.2061 14.05 13.9061 12.25 15.3061 10.85C16.7061 9.45 18.5061 8.75 20.7061 8.75C22.9061 8.75 24.7061 9.45 26.1061 10.85C27.5061 12.25 28.2061 14.05 28.2061 16.25C28.2061 18.45 27.5061 20.25 26.1061 21.65C24.7061 23.05 22.9061 23.75 20.7061 23.75ZM6.20605 39.8C5.77272 39.8 5.41439 39.6583 5.13105 39.375C4.84772 39.0917 4.70605 38.7333 4.70605 38.3V35.1C4.70605 33.9333 4.99772 32.8833 5.58105 31.95C6.16439 31.0167 7.00605 30.3 8.10605 29.8C10.5061 28.7333 12.7311 27.9667 14.7811 27.5C16.8311 27.0333 18.8061 26.8 20.7061 26.8H21.8561C21.6561 27.2667 21.5061 27.725 21.4061 28.175C21.3061 28.625 21.2227 29.1667 21.1561 29.8H20.7061C18.7727 29.8 16.8811 30.0083 15.0311 30.425C13.1811 30.8417 11.2727 31.5333 9.30605 32.5C8.77272 32.7667 8.37272 33.1417 8.10605 33.625C7.83939 34.1083 7.70605 34.6 7.70605 35.1V36.8H21.1561C21.3227 37.4 21.5227 37.9417 21.7561 38.425C21.9894 38.9083 22.2727 39.3667 22.6061 39.8H6.20605ZM20.7061 20.75C22.0061 20.75 23.0811 20.325 23.9311 19.475C24.7811 18.625 25.2061 17.55 25.2061 16.25C25.2061 14.95 24.7811 13.875 23.9311 13.025C23.0811 12.175 22.0061 11.75 20.7061 11.75C19.4061 11.75 18.3311 12.175 17.4811 13.025C16.6311 13.875 16.2061 14.95 16.2061 16.25C16.2061 17.55 16.6311 18.625 17.4811 19.475C18.3311 20.325 19.4061 20.75 20.7061 20.75ZM35.4061 35.95C36.5061 35.95 37.4477 35.5583 38.2311 34.775C39.0144 33.9917 39.4061 33.05 39.4061 31.95C39.4061 30.85 39.0144 29.9083 38.2311 29.125C37.4477 28.3417 36.5061 27.95 35.4061 27.95C34.3061 27.95 33.3644 28.3417 32.5811 29.125C31.7977 29.9083 31.4061 30.85 31.4061 31.95C31.4061 33.05 31.7977 33.9917 32.5811 34.775C33.3644 35.5583 34.3061 35.95 35.4061 35.95ZM33.5561 38.7C32.9894 38.5333 32.4144 38.2917 31.8311 37.975C31.2477 37.6583 30.7561 37.3 30.3561 36.9L28.1561 37.4C27.9894 37.4667 27.8227 37.4667 27.6561 37.4C27.4894 37.3333 27.3727 37.2167 27.3061 37.05L26.6561 35.9C26.5561 35.7667 26.5227 35.6167 26.5561 35.45C26.5894 35.2833 26.6727 35.1333 26.8061 35L28.7061 33.2C28.6394 32.9 28.6061 32.4833 28.6061 31.95C28.6061 31.4167 28.6394 31 28.7061 30.7L26.8061 28.9C26.6727 28.7667 26.5894 28.6167 26.5561 28.45C26.5227 28.2833 26.5561 28.1333 26.6561 28L27.3061 26.85C27.3727 26.6833 27.4894 26.5667 27.6561 26.5C27.8227 26.4333 27.9894 26.4333 28.1561 26.5L30.3561 27C30.7561 26.6 31.2477 26.2417 31.8311 25.925C32.4144 25.6083 32.9894 25.3667 33.5561 25.2L33.9561 22.55C33.9894 22.35 34.0727 22.1917 34.2061 22.075C34.3394 21.9583 34.5061 21.9 34.7061 21.9H36.1061C36.3061 21.9 36.4727 21.9583 36.6061 22.075C36.7394 22.1917 36.8227 22.35 36.8561 22.55L37.2561 25.2C37.8227 25.3667 38.3977 25.6083 38.9811 25.925C39.5644 26.2417 40.0561 26.6 40.4561 27L42.6561 26.5C42.8227 26.4333 42.9894 26.4333 43.1561 26.5C43.3227 26.5667 43.4394 26.6833 43.5061 26.85L44.1561 28C44.2561 28.1333 44.2894 28.2833 44.2561 28.45C44.2227 28.6167 44.1394 28.7667 44.0061 28.9L42.1061 30.7C42.1727 31 42.2061 31.4167 42.2061 31.95C42.2061 32.4833 42.1727 32.9 42.1061 33.2L44.0061 35C44.1394 35.1333 44.2227 35.2833 44.2561 35.45C44.2894 35.6167 44.2561 35.7667 44.1561 35.9L43.5061 37.05C43.4394 37.2167 43.3227 37.3333 43.1561 37.4C42.9894 37.4667 42.8227 37.4667 42.6561 37.4L40.4561 36.9C40.0561 37.3 39.5644 37.6583 38.9811 37.975C38.3977 38.2917 37.8227 38.5333 37.2561 38.7L36.8561 41.35C36.8227 41.55 36.7394 41.7083 36.6061 41.825C36.4727 41.9417 36.3061 42 36.1061 42H34.7061C34.5061 42 34.3394 41.9417 34.2061 41.825C34.0727 41.7083 33.9894 41.55 33.9561 41.35L33.5561 38.7Z"
        fill="black" />
    <path
        d="M35.406 35.95C36.506 35.95 37.4477 35.5584 38.231 34.775C39.0144 33.9917 39.406 33.05 39.406 31.95C39.406 30.85 39.0144 29.9084 38.231 29.125C37.4477 28.3417 36.506 27.95 35.406 27.95C34.306 27.95 33.3644 28.3417 32.581 29.125C31.7977 29.9084 31.406 30.85 31.406 31.95C31.406 33.05 31.7977 33.9917 32.581 34.775C33.3644 35.5584 34.306 35.95 35.406 35.95ZM33.556 38.7C32.9894 38.5334 32.4144 38.2917 31.831 37.975C31.2477 37.6584 30.756 37.3 30.356 36.9L28.156 37.4C27.9894 37.4667 27.8227 37.4667 27.656 37.4C27.4894 37.3334 27.3727 37.2167 27.306 37.05L26.656 35.9C26.556 35.7667 26.5227 35.6167 26.556 35.45C26.5894 35.2834 26.6727 35.1334 26.806 35L28.706 33.2C28.6394 32.9 28.606 32.4834 28.606 31.95C28.606 31.4167 28.6394 31 28.706 30.7L26.806 28.9C26.6727 28.7667 26.5894 28.6167 26.556 28.45C26.5227 28.2834 26.556 28.1334 26.656 28L27.306 26.85C27.3727 26.6834 27.4894 26.5667 27.656 26.5C27.8227 26.4334 27.9894 26.4334 28.156 26.5L30.356 27C30.756 26.6 31.2477 26.2417 31.831 25.925C32.4144 25.6084 32.9894 25.3667 33.556 25.2L33.956 22.55C33.9894 22.35 34.0727 22.1917 34.206 22.075C34.3394 21.9584 34.506 21.9 34.706 21.9H36.106C36.306 21.9 36.4727 21.9584 36.606 22.075C36.7394 22.1917 36.8227 22.35 36.856 22.55L37.256 25.2C37.8227 25.3667 38.3977 25.6084 38.981 25.925C39.5644 26.2417 40.056 26.6 40.456 27L42.656 26.5C42.8227 26.4334 42.9894 26.4334 43.156 26.5C43.3227 26.5667 43.4394 26.6834 43.506 26.85L44.156 28C44.2561 28.1334 44.2894 28.2834 44.256 28.45C44.2227 28.6167 44.1394 28.7667 44.006 28.9L42.106 30.7C42.1727 31 42.206 31.4167 42.206 31.95C42.206 32.4834 42.1727 32.9 42.106 33.2L44.006 35C44.1394 35.1334 44.2227 35.2834 44.256 35.45C44.2894 35.6167 44.2561 35.7667 44.156 35.9L43.506 37.05C43.4394 37.2167 43.3227 37.3334 43.156 37.4C42.9894 37.4667 42.8227 37.4667 42.656 37.4L40.456 36.9C40.056 37.3 39.5644 37.6584 38.981 37.975C38.3977 38.2917 37.8227 38.5334 37.256 38.7L36.856 41.35C36.8227 41.55 36.7394 41.7084 36.606 41.825C36.4727 41.9417 36.306 42 36.106 42H34.706C34.506 42 34.3394 41.9417 34.206 41.825C34.0727 41.7084 33.9894 41.55 33.956 41.35L33.556 38.7Z"
        fill="#449B9C" />
</svg>