<svg width="20" height="20" viewBox="0 0 20 20" fill="none" xmlns="http://www.w3.org/2000/svg">
    <mask id="mask0_4618_9874" style="mask-type:alpha" maskUnits="userSpaceOnUse" x="0" y="0" width="20" height="20">
        <rect width="20" height="20" fill="#D9D9D9" />
    </mask>
    <g mask="url(#mask0_4618_9874)">
        <path
            d="M5.8335 15C4.44461 15 3.26405 14.5139 2.29183 13.5417C1.31961 12.5694 0.833496 11.3889 0.833496 10C0.833496 8.61111 1.31961 7.43056 2.29183 6.45833C3.26405 5.48611 4.44461 5 5.8335 5C6.75016 5 7.59044 5.22917 8.35433 5.6875C9.11822 6.14583 9.72239 6.75 10.1668 7.5H19.1668V12.5H17.5002V15H12.5002V12.5H10.1668C9.72239 13.25 9.11822 13.8542 8.35433 14.3125C7.59044 14.7708 6.75016 15 5.8335 15ZM5.8335 13.3333C6.75016 13.3333 7.48627 13.0521 8.04183 12.4896C8.59739 11.9271 8.93072 11.375 9.04183 10.8333H14.1668V13.3333H15.8335V10.8333H17.5002V9.16667H9.04183C8.93072 8.625 8.59739 8.07292 8.04183 7.51042C7.48627 6.94792 6.75016 6.66667 5.8335 6.66667C4.91683 6.66667 4.13211 6.99306 3.47933 7.64583C2.82655 8.29861 2.50016 9.08333 2.50016 10C2.50016 10.9167 2.82655 11.7014 3.47933 12.3542C4.13211 13.0069 4.91683 13.3333 5.8335 13.3333Z"
            fill="white" />
        <path
            d="M5.83317 11.6668C6.2915 11.6668 6.68386 11.5036 7.01025 11.1772C7.33664 10.8509 7.49984 10.4585 7.49984 10.0002C7.49984 9.54183 7.33664 9.14947 7.01025 8.82308C6.68386 8.49669 6.2915 8.3335 5.83317 8.3335C5.37484 8.3335 4.98248 8.49669 4.65609 8.82308C4.3297 9.14947 4.1665 9.54183 4.1665 10.0002C4.1665 10.4585 4.3297 10.8509 4.65609 11.1772C4.98248 11.5036 5.37484 11.6668 5.83317 11.6668Z"
            fill="#01FF48" />
    </g>
</svg>