<svg width="20" height="21" viewBox="0 0 20 21" fill="none" xmlns="http://www.w3.org/2000/svg">
<path d="M19.7165 1.38789C19.3386 1.01199 18.7259 1.01206 18.348 1.38795L17.3641 2.3667L15.2681 0.281896C14.8903 -0.0939333 14.2775 -0.0939974 13.8996 0.281896C13.5218 0.65779 13.5218 1.26719 13.8997 1.64308L15.9957 3.72795L14.0277 5.6857L13.0438 4.70702C12.666 4.33113 12.0532 4.33113 11.6753 4.70702C11.2974 5.08291 11.2974 5.69231 11.6753 6.06821L12.6593 7.04695L8.96437 10.7227C8.01186 10.0513 6.87749 9.68796 5.68636 9.68796C4.16756 9.68796 2.73954 10.2763 1.66556 11.3445C0.591505 12.4128 0 13.8331 0 15.3439C0 16.8546 0.591505 18.2751 1.66556 19.3433C2.73954 20.4116 4.1675 21 5.68636 21C7.20521 21 8.63317 20.4116 9.70716 19.3434C10.7812 18.2751 11.3727 16.8547 11.3727 15.3439C11.3727 14.1594 11.0076 13.0312 10.3328 12.084L14.7052 7.73438C14.7075 7.73207 14.7101 7.73021 14.7124 7.7279C14.7147 7.72559 14.7166 7.72302 14.7189 7.72071L18.0387 4.41827C18.042 4.41499 18.0457 4.4123 18.0491 4.40896C18.0524 4.40562 18.0552 4.40197 18.0584 4.39863L19.7167 2.74895C20.0945 2.37318 20.0945 1.76378 19.7165 1.38789ZM8.33861 17.9823C7.63015 18.687 6.68815 19.0751 5.68629 19.0751C4.68443 19.0751 3.74243 18.687 3.03397 17.9823C2.32551 17.2776 1.93528 16.3407 1.93528 15.3441C1.93528 14.3475 2.32544 13.4106 3.03397 12.706C3.74243 12.0013 4.68437 11.6132 5.68629 11.6132C6.68822 11.6132 7.63015 12.0013 8.33861 12.706C9.04708 13.4106 9.43731 14.3476 9.43731 15.3441C9.43731 16.3407 9.04708 17.2776 8.33861 17.9823Z" fill="#00A1A1"/>
</svg>