<svg width="40" height="40" viewBox="0 0 40 40" fill="none" xmlns="http://www.w3.org/2000/svg">
    <path d="M15 25L25 15" stroke="#01FF48" stroke-width="2.5" stroke-linecap="round" stroke-linejoin="round" />
    <path
        d="M15.8333 16.6667C16.2936 16.6667 16.6667 16.2936 16.6667 15.8333C16.6667 15.3731 16.2936 15 15.8333 15C15.3731 15 15 15.3731 15 15.8333C15 16.2936 15.3731 16.6667 15.8333 16.6667Z"
        fill="#01FF48" stroke="#01FF48" stroke-width="2.5" stroke-linecap="round" stroke-linejoin="round" />
    <path
        d="M24.1666 25.0002C24.6269 25.0002 25 24.6271 25 24.1668C25 23.7066 24.6269 23.3335 24.1666 23.3335C23.7064 23.3335 23.3333 23.7066 23.3333 24.1668C23.3333 24.6271 23.7064 25.0002 24.1666 25.0002Z"
        fill="#01FF48" stroke="#01FF48" stroke-width="2.5" stroke-linecap="round" stroke-linejoin="round" />
    <path
        d="M5 20C5 21.9698 5.38799 23.9204 6.14181 25.7403C6.89563 27.5601 8.00052 29.2137 9.3934 30.6066C10.7863 31.9995 12.4399 33.1044 14.2597 33.8582C16.0796 34.612 18.0302 35 20 35C21.9698 35 23.9204 34.612 25.7403 33.8582C27.5601 33.1044 29.2137 31.9995 30.6066 30.6066C31.9995 29.2137 33.1044 27.5601 33.8582 25.7403C34.612 23.9204 35 21.9698 35 20C35 18.0302 34.612 16.0796 33.8582 14.2597C33.1044 12.4399 31.9995 10.7863 30.6066 9.3934C29.2137 8.00052 27.5601 6.89563 25.7403 6.14181C23.9204 5.38799 21.9698 5 20 5C18.0302 5 16.0796 5.38799 14.2597 6.14181C12.4399 6.89563 10.7863 8.00052 9.3934 9.3934C8.00052 10.7863 6.89563 12.4399 6.14181 14.2597C5.38799 16.0796 5 18.0302 5 20Z"
        stroke="currentColor" stroke-width="2.5" stroke-linecap="round" stroke-linejoin="round" />
</svg>