<svg width="28" height="29" viewBox="0 0 28 29" fill="none" xmlns="http://www.w3.org/2000/svg">
    <circle cx="14" cy="14.5884" r="14" fill="#449ADF" fill-opacity="0.15" />
    <g clip-path="url(#clip0_703_2)">
        <path fill-rule="evenodd" clip-rule="evenodd"
            d="M18.6628 19.5538C19.5595 18.4114 20.0519 17.0039 20.0629 15.5517C20.074 14.0995 19.603 12.6846 18.7237 11.5288C18.0751 10.6754 17.2273 9.99395 16.2545 9.54391C15.2816 9.09388 14.2133 8.889 13.143 8.94717C12.0727 9.00535 11.0329 9.32482 10.1146 9.87765C9.19627 10.4305 8.42733 11.1998 7.875 12.1185V9.87504H6.9375V13.1563L7.40625 13.625H10.6875V12.6875H8.63531C9.2616 11.6048 10.2304 10.7614 11.3891 10.2902C12.5478 9.81903 13.8303 9.74692 15.0344 10.0852C16.2386 10.4236 17.2959 11.1531 18.0396 12.1588C18.7833 13.1645 19.1711 14.3891 19.1419 15.6395C19.1126 16.89 18.6679 18.0951 17.878 19.0649C17.0881 20.0347 15.9978 20.714 14.7792 20.9956C13.5605 21.2773 12.2828 21.1453 11.1474 20.6204C10.0121 20.0956 9.08371 19.2077 8.50875 18.0969L7.67719 18.53C8.18356 19.504 8.92616 20.3354 9.83701 20.9481C10.7479 21.5608 11.7979 21.9352 12.8909 22.0371C13.9839 22.1389 15.085 21.965 16.0934 21.5311C17.1018 21.0973 17.9852 20.4174 18.6628 19.5538ZM15.5119 18.6444L16.1756 17.9816L13.5 15.305V11.75H12.5625V15.5L12.6994 15.8319L15.5119 18.6444Z"
            fill="#449ADF" />
    </g>
    <defs>
        <clipPath id="clip0_703_2">
            <rect width="15" height="15" fill="white" transform="translate(6 8)" />
        </clipPath>
    </defs>
</svg>