<svg width="20" height="20" viewBox="0 0 20 20" fill="none" xmlns="http://www.w3.org/2000/svg">
    <path
        d="M3.68755 18.3333C3.31255 18.3333 3.05199 18.1633 2.90588 17.8233C2.75977 17.4833 2.81893 17.181 3.08338 16.9166L16.9167 3.08324C17.1806 2.81935 17.4828 2.76019 17.8234 2.90574C18.1639 3.0513 18.3339 3.31185 18.3334 3.68741V8.35409C18.3334 8.59017 18.2534 8.78463 18.0934 8.93742C17.9334 9.09017 17.7356 9.16659 17.5 9.16659C17.2645 9.16659 17.0667 9.09017 16.9067 8.93742C16.7467 8.78463 16.6667 8.59017 16.6667 8.35409V5.68742L5.68754 16.6666H9.60421C9.84033 16.6666 10.0348 16.7466 10.1875 16.9066C10.3403 17.0666 10.4167 17.2643 10.4167 17.4999C10.4167 17.7355 10.3403 17.9335 10.1875 18.0941C10.0348 18.2546 9.84033 18.3343 9.60421 18.3333H3.68755ZM5.68754 16.6666L16.6667 5.68742L11.1775 11.1766L5.68754 16.6666Z"
        fill="white" />
    <path
        d="M14.7501 17.9168C14.5835 17.8474 14.4274 17.7746 14.2818 17.6985C14.1363 17.6224 13.9868 17.5285 13.8335 17.4168L13.2293 17.6043C13.0488 17.6599 12.8718 17.653 12.6985 17.5835C12.5251 17.514 12.3896 17.403 12.2918 17.2502L12.1251 16.9585C12.0279 16.7918 11.9932 16.6113 12.021 16.4168C12.0488 16.2224 12.139 16.0627 12.2918 15.9377L12.7501 15.5418C12.7224 15.3752 12.7085 15.1946 12.7085 15.0002C12.7085 14.8057 12.7224 14.6252 12.7501 14.4585L12.2918 14.0627C12.139 13.9377 12.0488 13.7815 12.021 13.5943C11.9932 13.4071 12.0279 13.2299 12.1251 13.0627L12.3126 12.7502C12.4099 12.5974 12.5418 12.4863 12.7085 12.4168C12.8751 12.3474 13.0488 12.3405 13.2293 12.396L13.8335 12.5835C13.9863 12.4724 14.1357 12.3788 14.2818 12.3027C14.4279 12.2265 14.584 12.1535 14.7501 12.0835L14.8751 11.4793C14.9168 11.2849 15.0104 11.1288 15.156 11.011C15.3015 10.8932 15.4718 10.834 15.6668 10.8335H16.0001C16.1946 10.8335 16.3649 10.896 16.511 11.021C16.6571 11.146 16.7507 11.3057 16.7918 11.5002L16.9168 12.0835C17.0835 12.153 17.2396 12.2257 17.3851 12.3018C17.5307 12.378 17.6801 12.4718 17.8335 12.5835L18.4376 12.396C18.6182 12.3405 18.7954 12.3474 18.9693 12.4168C19.1432 12.4863 19.2785 12.5974 19.3751 12.7502L19.5418 13.0418C19.639 13.2085 19.6738 13.389 19.646 13.5835C19.6182 13.778 19.5279 13.9377 19.3751 14.0627L18.9168 14.4585C18.9446 14.6252 18.9585 14.8057 18.9585 15.0002C18.9585 15.1946 18.9446 15.3752 18.9168 15.5418L19.3751 15.9377C19.5279 16.0627 19.6182 16.219 19.646 16.4068C19.6738 16.5946 19.639 16.7715 19.5418 16.9377L19.3543 17.2502C19.2571 17.403 19.1251 17.514 18.9585 17.5835C18.7918 17.653 18.6182 17.6599 18.4376 17.6043L17.8335 17.4168C17.6807 17.528 17.5315 17.6215 17.386 17.6977C17.2404 17.7738 17.084 17.8468 16.9168 17.9168L16.7918 18.521C16.7501 18.7155 16.6565 18.8718 16.511 18.9902C16.3654 19.1085 16.1951 19.1674 16.0001 19.1668H15.6668C15.4724 19.1668 15.3024 19.1043 15.1568 18.9793C15.0113 18.8543 14.9174 18.6946 14.8751 18.5002L14.7501 17.9168ZM15.8335 16.6668C16.2918 16.6668 16.6843 16.5038 17.011 16.1777C17.3376 15.8515 17.5007 15.459 17.5001 15.0002C17.4996 14.5413 17.3365 14.149 17.011 13.8235C16.6854 13.498 16.2929 13.3346 15.8335 13.3335C15.374 13.3324 14.9818 13.4957 14.6568 13.8235C14.3318 14.1513 14.1685 14.5435 14.1668 15.0002C14.1651 15.4568 14.3285 15.8493 14.6568 16.1777C14.9851 16.506 15.3774 16.669 15.8335 16.6668Z"
        fill="#01FF48" />
</svg>