<svg width="15" height="15" viewBox="0 0 15 15" fill="none" xmlns="http://www.w3.org/2000/svg">
<g clip-path="url(#clip0_9_369)">
<path d="M14.8109 13.9256L10.5072 9.61881C11.3557 8.60129 11.866 7.30095 11.866 5.88073C11.866 2.64064 9.20689 0.00614929 5.93606 0.00614929C2.66523 0.00614929 0 2.64371 0 5.8838C0 9.12389 2.65908 11.7584 5.92991 11.7584C7.3194 11.7584 8.59822 11.2819 9.61267 10.4857L13.9318 14.8048C14.1838 15.0569 14.5589 15.0569 14.8109 14.8048C15.063 14.5527 15.063 14.1777 14.8109 13.9256ZM1.26038 5.8838C1.26038 3.33846 3.3569 1.2696 5.92991 1.2696C8.50292 1.2696 10.5994 3.33846 10.5994 5.8838C10.5994 8.42914 8.50292 10.498 5.92991 10.498C3.3569 10.498 1.26038 8.42607 1.26038 5.8838Z" fill="#00A1A1"/>
</g>
<defs>
<clipPath id="clip0_9_369">
<rect width="15" height="15" fill="white"/>
</clipPath>
</defs>
</svg>
