<svg width="48" height="48" viewBox="0 0 48 48" fill="none" xmlns="http://www.w3.org/2000/svg">
    <path
        d="M19.5 19.5H34.5C34.925 19.5 35.2812 19.3554 35.5688 19.0663C35.8563 18.7771 36 18.4187 36 17.9913C36 17.5638 35.8563 17.2083 35.5688 16.925C35.2812 16.6417 34.925 16.5 34.5 16.5H19.5C19.075 16.5 18.7188 16.6446 18.4313 16.9337C18.1438 17.2229 18 17.5813 18 18.0087C18 18.4362 18.1438 18.7917 18.4313 19.075C18.7188 19.3583 19.075 19.5 19.5 19.5ZM19.5 27.5H34.5C34.925 27.5 35.2812 27.3554 35.5688 27.0663C35.8563 26.7771 36 26.4187 36 25.9913C36 25.5638 35.8563 25.2083 35.5688 24.925C35.2812 24.6417 34.925 24.5 34.5 24.5H19.5C19.075 24.5 18.7188 24.6446 18.4313 24.9338C18.1438 25.2229 18 25.5813 18 26.0087C18 26.4362 18.1438 26.7917 18.4313 27.075C18.7188 27.3583 19.075 27.5 19.5 27.5ZM13.9991 19.65C14.4664 19.65 14.8583 19.492 15.175 19.1759C15.4917 18.8598 15.65 18.4681 15.65 18.0009C15.65 17.5336 15.492 17.1417 15.1759 16.825C14.8598 16.5083 14.4681 16.35 14.0009 16.35C13.5336 16.35 13.1417 16.508 12.825 16.8241C12.5083 17.1402 12.35 17.5319 12.35 17.9991C12.35 18.4664 12.508 18.8583 12.8241 19.175C13.1402 19.4917 13.5319 19.65 13.9991 19.65ZM13.9991 27.65C14.4664 27.65 14.8583 27.492 15.175 27.1759C15.4917 26.8598 15.65 26.4681 15.65 26.0009C15.65 25.5336 15.492 25.1417 15.1759 24.825C14.8598 24.5083 14.4681 24.35 14.0009 24.35C13.5336 24.35 13.1417 24.508 12.825 24.8241C12.5083 25.1402 12.35 25.5319 12.35 25.9991C12.35 26.4664 12.508 26.8583 12.8241 27.175C13.1402 27.4917 13.5319 27.65 13.9991 27.65ZM18 42C17.575 42 17.2188 41.8563 16.9313 41.5688C16.6438 41.2812 16.5 40.925 16.5 40.5V38H7C6.175 38 5.46875 37.7063 4.88125 37.1187C4.29375 36.5312 4 35.825 4 35V9C4 8.175 4.29375 7.46875 4.88125 6.88125C5.46875 6.29375 6.175 6 7 6H41C41.825 6 42.5312 6.29375 43.1188 6.88125C43.7062 7.46875 44 8.175 44 9V35C44 35.825 43.7062 36.5312 43.1188 37.1187C42.5312 37.7063 41.825 38 41 38H31.5V40.5C31.5 40.925 31.3563 41.2812 31.0688 41.5688C30.7812 41.8563 30.425 42 30 42H18ZM7 35H41V9H7V35Z"
        fill="black" />
    <path
        d="M19.5 19.5H34.5C34.925 19.5 35.2812 19.3554 35.5687 19.0662C35.8562 18.777 36 18.4187 36 17.9912C36 17.5637 35.8562 17.2083 35.5687 16.925C35.2812 16.6416 34.925 16.5 34.5 16.5H19.5C19.075 16.5 18.7187 16.6446 18.4312 16.9337C18.1437 17.2229 18 17.5813 18 18.0087C18 18.4362 18.1437 18.7916 18.4312 19.075C18.7187 19.3583 19.075 19.5 19.5 19.5ZM19.5 27.5H34.5C34.925 27.5 35.2812 27.3554 35.5687 27.0662C35.8562 26.777 36 26.4187 36 25.9912C36 25.5637 35.8562 25.2083 35.5687 24.925C35.2812 24.6416 34.925 24.5 34.5 24.5H19.5C19.075 24.5 18.7187 24.6446 18.4312 24.9337C18.1437 25.2229 18 25.5813 18 26.0087C18 26.4362 18.1437 26.7916 18.4312 27.075C18.7187 27.3583 19.075 27.5 19.5 27.5ZM13.9991 19.65C14.4663 19.65 14.8583 19.4919 15.175 19.1759C15.4916 18.8598 15.65 18.4681 15.65 18.0009C15.65 17.5336 15.4919 17.1416 15.1759 16.825C14.8598 16.5083 14.4681 16.35 14.0009 16.35C13.5336 16.35 13.1416 16.508 12.825 16.8241C12.5083 17.1402 12.35 17.5318 12.35 17.9991C12.35 18.4663 12.508 18.8583 12.8241 19.175C13.1402 19.4916 13.5318 19.65 13.9991 19.65ZM13.9991 27.65C14.4663 27.65 14.8583 27.4919 15.175 27.1759C15.4916 26.8598 15.65 26.4681 15.65 26.0009C15.65 25.5336 15.4919 25.1416 15.1759 24.825C14.8598 24.5083 14.4681 24.35 14.0009 24.35C13.5336 24.35 13.1416 24.508 12.825 24.8241C12.5083 25.1402 12.35 25.5318 12.35 25.9991C12.35 26.4663 12.508 26.8583 12.8241 27.175C13.1402 27.4916 13.5318 27.65 13.9991 27.65Z"
        fill="#449B9C" />
</svg>