<svg width="33" height="32" viewBox="0 0 33 32" fill="none" xmlns="http://www.w3.org/2000/svg">
    <path
        d="M13.15 12.9999H23.15C23.4334 12.9999 23.6709 12.9035 23.8625 12.7107C24.0542 12.5179 24.15 12.279 24.15 11.9941C24.15 11.7091 24.0542 11.4721 23.8625 11.2832C23.6709 11.0943 23.4334 10.9999 23.15 10.9999H13.15C12.8667 10.9999 12.6292 11.0963 12.4375 11.2891C12.2459 11.4819 12.15 11.7208 12.15 12.0057C12.15 12.2907 12.2459 12.5277 12.4375 12.7166C12.6292 12.9055 12.8667 12.9999 13.15 12.9999ZM13.15 18.3332H23.15C23.4334 18.3332 23.6709 18.2368 23.8625 18.0441C24.0542 17.8513 24.15 17.6124 24.15 17.3274C24.15 17.0424 24.0542 16.8055 23.8625 16.6166C23.6709 16.4277 23.4334 16.3332 23.15 16.3332H13.15C12.8667 16.3332 12.6292 16.4296 12.4375 16.6224C12.2459 16.8152 12.15 17.0541 12.15 17.3391C12.15 17.6241 12.2459 17.861 12.4375 18.0499C12.6292 18.2388 12.8667 18.3332 13.15 18.3332ZM9.48276 13.0999C9.79427 13.0999 10.0556 12.9945 10.2667 12.7838C10.4778 12.5731 10.5834 12.312 10.5834 12.0005C10.5834 11.689 10.478 11.4277 10.2673 11.2166C10.0566 11.0055 9.79545 10.8999 9.48396 10.8999C9.17245 10.8999 8.91114 11.0053 8.70003 11.216C8.48892 11.4267 8.38336 11.6878 8.38336 11.9993C8.38336 12.3108 8.48872 12.5721 8.69943 12.7832C8.91016 12.9943 9.17127 13.0999 9.48276 13.0999ZM9.48276 18.4332C9.79427 18.4332 10.0556 18.3279 10.2667 18.1172C10.4778 17.9064 10.5834 17.6453 10.5834 17.3338C10.5834 17.0223 10.478 16.761 10.2673 16.5499C10.0566 16.3388 9.79545 16.2332 9.48396 16.2332C9.17245 16.2332 8.91114 16.3386 8.70003 16.5493C8.48892 16.76 8.38336 17.0211 8.38336 17.3326C8.38336 17.6441 8.48872 17.9055 8.69943 18.1166C8.91016 18.3277 9.17127 18.4332 9.48276 18.4332Z"
        fill="#01FF48" />
    <path
        d="M12.15 28C11.8667 28 11.6292 27.9042 11.4375 27.7125C11.2459 27.5208 11.15 27.2833 11.15 27V25.3333H4.81671C4.26671 25.3333 3.79588 25.1375 3.40421 24.7458C3.01254 24.3542 2.81671 23.8833 2.81671 23.3333V6C2.81671 5.45 3.01254 4.97917 3.40421 4.5875C3.79588 4.19583 4.26671 4 4.81671 4H27.4834C28.0334 4 28.5042 4.19583 28.8959 4.5875C29.2875 4.97917 29.4834 5.45 29.4834 6V23.3333C29.4834 23.8833 29.2875 24.3542 28.8959 24.7458C28.5042 25.1375 28.0334 25.3333 27.4834 25.3333H21.15V27C21.15 27.2833 21.0542 27.5208 20.8625 27.7125C20.6709 27.9042 20.4334 28 20.15 28H12.15ZM4.81671 23.3333H27.4834V6H4.81671V23.3333Z"
        fill="currentColor" />
</svg>