<svg width="20" height="17" viewBox="0 0 20 17" fill="none" xmlns="http://www.w3.org/2000/svg">
<path d="M17.4778 3.07223H8.92779V2.52223C8.92779 1.6 8.1778 0.85 7.25556 0.85H2.52223C1.59999 0.85 0.85 1.60003 0.85 2.52223V14.5889C0.85 15.5111 1.6 16.2611 2.52223 16.2611H17.4778C18.4 16.2611 19.15 15.5111 19.15 14.5889V4.74446C19.15 3.82222 18.4 3.07223 17.4778 3.07223ZM2.03889 2.52223C2.03889 2.25587 2.25587 2.03889 2.52223 2.03889H7.25556C7.52193 2.03889 7.7389 2.25587 7.7389 2.52223V3.07223H2.03889V2.52223ZM17.9611 14.5889C17.9611 14.8553 17.7441 15.0723 17.4778 15.0723H2.52223C2.25587 15.0723 2.03889 14.8553 2.03889 14.5889V4.26112H17.4778C17.7441 4.26112 17.9611 4.47809 17.9611 4.74446V14.5889Z" fill="#00A1A1" stroke="#00A1A1" stroke-width="0.3"/>
</svg>
