<svg width="20" height="21" viewBox="0 0 20 21" fill="none" xmlns="http://www.w3.org/2000/svg">
    <path
        d="M2.15675 16.6113C2.48286 16.9374 2.87508 17.1004 3.33341 17.1004V9.97542V5.43376H7.64591L9.31258 7.10042H17.5001C17.7362 7.10153 17.934 7.02181 18.0934 6.86126C18.2529 6.7007 18.3329 6.50265 18.3334 6.26709C18.334 6.03153 18.2542 5.83376 18.0942 5.67376C17.9342 5.51376 17.7362 5.43376 17.5001 5.43376H10.0001L8.81258 4.24626C8.66036 4.09348 8.48341 3.97542 8.28175 3.89209C8.08008 3.80876 7.86814 3.76709 7.64591 3.76709H3.33341C2.87564 3.76765 2.48341 3.93098 2.15675 4.25709C1.83008 4.5832 1.66675 4.97542 1.66675 5.43376V15.4338C1.6673 15.8926 1.83064 16.2851 2.15675 16.6113Z"
        fill="#01FF48" />
    <path fill-rule="evenodd" clip-rule="evenodd"
        d="M3.33325 17.1004L4.97909 9.95459C5.0902 9.59348 5.2952 9.30542 5.59408 9.09042C5.89297 8.87542 6.2227 8.76765 6.58325 8.76709H17.3333C17.9027 8.76709 18.3508 8.99292 18.6774 9.44459C19.0041 9.89626 19.0908 10.3857 18.9374 10.9129L17.4374 15.9129C17.3263 16.274 17.1216 16.5624 16.8233 16.7779C16.5249 16.9935 16.1949 17.101 15.8333 17.1004H3.33325ZM15.8333 15.4338H5.08325L6.58325 10.4338H17.3333L15.8333 15.4338Z"
        fill="white" />
</svg>