<svg width="49" height="48" viewBox="0 0 49 48" fill="none" xmlns="http://www.w3.org/2000/svg">
    <path
        d="M3.87695 40C3.44362 40 3.08529 39.8583 2.80195 39.575C2.51862 39.2917 2.37695 38.9333 2.37695 38.5V35.3C2.37695 34.1333 2.67695 33.075 3.27695 32.125C3.87695 31.175 4.71029 30.4667 5.77695 30C8.21029 28.9333 10.402 28.1667 12.352 27.7C14.302 27.2333 16.3103 27 18.377 27C20.4436 27 22.4436 27.2333 24.377 27.7C26.3103 28.1667 28.4936 28.9333 30.927 30C31.9936 30.4667 32.8353 31.175 33.452 32.125C34.0686 33.075 34.377 34.1333 34.377 35.3V38.5C34.377 38.9333 34.2353 39.2917 33.952 39.575C33.6686 39.8583 33.3103 40 32.877 40H3.87695ZM36.277 40C36.6103 39.9333 36.877 39.7583 37.077 39.475C37.277 39.1917 37.377 38.8333 37.377 38.4V35.3C37.377 33.2 36.8436 31.475 35.777 30.125C34.7103 28.775 33.3103 27.6833 31.577 26.85C33.877 27.1167 36.0436 27.5083 38.077 28.025C40.1103 28.5417 41.7603 29.1333 43.027 29.8C44.127 30.4333 44.9936 31.2167 45.627 32.15C46.2603 33.0833 46.577 34.1333 46.577 35.3V38.5C46.577 38.9333 46.4353 39.2917 46.152 39.575C45.8686 39.8583 45.5103 40 45.077 40H36.277ZM18.377 23.95C16.177 23.95 14.377 23.25 12.977 21.85C11.577 20.45 10.877 18.65 10.877 16.45C10.877 14.25 11.577 12.45 12.977 11.05C14.377 9.65001 16.177 8.95001 18.377 8.95001C20.577 8.95001 22.377 9.65001 23.777 11.05C25.177 12.45 25.877 14.25 25.877 16.45C25.877 18.65 25.177 20.45 23.777 21.85C22.377 23.25 20.577 23.95 18.377 23.95ZM36.377 16.45C36.377 18.65 35.677 20.45 34.277 21.85C32.877 23.25 31.077 23.95 28.877 23.95C28.5103 23.95 28.102 23.925 27.652 23.875C27.202 23.825 26.7936 23.7333 26.427 23.6C27.227 22.7667 27.8353 21.7417 28.252 20.525C28.6686 19.3083 28.877 17.95 28.877 16.45C28.877 14.95 28.6686 13.625 28.252 12.475C27.8353 11.325 27.227 10.2667 26.427 9.30001C26.7936 9.20001 27.202 9.11668 27.652 9.05001C28.102 8.98335 28.5103 8.95001 28.877 8.95001C31.077 8.95001 32.877 9.65001 34.277 11.05C35.677 12.45 36.377 14.25 36.377 16.45ZM5.37695 37H31.377V35.3C31.377 34.7667 31.2186 34.25 30.902 33.75C30.5853 33.25 30.1936 32.9 29.727 32.7C27.327 31.6333 25.3103 30.9167 23.677 30.55C22.0436 30.1833 20.277 30 18.377 30C16.477 30 14.702 30.1833 13.052 30.55C11.402 30.9167 9.37695 31.6333 6.97695 32.7C6.51029 32.9 6.12695 33.25 5.82695 33.75C5.52695 34.25 5.37695 34.7667 5.37695 35.3V37ZM18.377 20.95C19.677 20.95 20.752 20.525 21.602 19.675C22.452 18.825 22.877 17.75 22.877 16.45C22.877 15.15 22.452 14.075 21.602 13.225C20.752 12.375 19.677 11.95 18.377 11.95C17.077 11.95 16.002 12.375 15.152 13.225C14.302 14.075 13.877 15.15 13.877 16.45C13.877 17.75 14.302 18.825 15.152 19.675C16.002 20.525 17.077 20.95 18.377 20.95Z"
        fill="black" />
    <path
        d="M36.277 40C36.6103 39.9333 36.877 39.7583 37.077 39.475C37.277 39.1917 37.377 38.8333 37.377 38.4V35.3C37.377 33.2 36.8437 31.475 35.777 30.125C34.7103 28.775 33.3103 27.6833 31.577 26.85C33.877 27.1167 36.0437 27.5083 38.077 28.025C40.1103 28.5417 41.7603 29.1333 43.027 29.8C44.127 30.4333 44.9937 31.2167 45.627 32.15C46.2603 33.0833 46.577 34.1333 46.577 35.3V38.5C46.577 38.9333 46.4353 39.2917 46.152 39.575C45.8687 39.8583 45.5103 40 45.077 40H36.277ZM36.377 16.45C36.377 18.65 35.677 20.45 34.277 21.85C32.877 23.25 31.077 23.95 28.877 23.95C28.5103 23.95 28.102 23.925 27.652 23.875C27.202 23.825 26.7937 23.7333 26.427 23.6C27.227 22.7667 27.8353 21.7417 28.252 20.525C28.6687 19.3083 28.877 17.95 28.877 16.45C28.877 14.95 28.6687 13.625 28.252 12.475C27.8353 11.325 27.227 10.2667 26.427 9.30001C26.7937 9.20001 27.202 9.11668 27.652 9.05001C28.102 8.98335 28.5103 8.95001 28.877 8.95001C31.077 8.95001 32.877 9.65001 34.277 11.05C35.677 12.45 36.377 14.25 36.377 16.45Z"
        fill="#449B9C" />
</svg>