<svg width="20" height="20" viewBox="0 0 20 20" fill="none" xmlns="http://www.w3.org/2000/svg">
    <path
        d="M1.41675 16.667C1.23619 16.667 1.08689 16.608 0.968831 16.4899C0.850776 16.3719 0.791748 16.2225 0.791748 16.042V14.7087C0.791748 14.2225 0.916748 13.7816 1.16675 13.3857C1.41675 12.9899 1.76397 12.6948 2.20841 12.5003C3.2223 12.0559 4.1355 11.7364 4.948 11.542C5.7605 11.3475 6.5973 11.2503 7.45842 11.2503C8.31953 11.2503 9.15286 11.3475 9.95842 11.542C10.764 11.7364 11.6737 12.0559 12.6876 12.5003C13.132 12.6948 13.4827 12.9899 13.7397 13.3857C13.9966 13.7816 14.1251 14.2225 14.1251 14.7087V16.042C14.1251 16.2225 14.0661 16.3719 13.948 16.4899C13.8299 16.608 13.6806 16.667 13.5001 16.667H1.41675ZM14.9167 16.667C15.0556 16.6392 15.1667 16.5663 15.2501 16.4482C15.3334 16.3302 15.3751 16.1809 15.3751 16.0003V14.7087C15.3751 13.8337 15.1529 13.1149 14.7084 12.5524C14.264 11.9899 13.6806 11.535 12.9584 11.1878C13.9167 11.2989 14.8195 11.4621 15.6667 11.6774C16.514 11.8927 17.2015 12.1392 17.7292 12.417C18.1876 12.6809 18.5487 13.0073 18.8126 13.3962C19.0765 13.785 19.2084 14.2225 19.2084 14.7087V16.042C19.2084 16.2225 19.1494 16.3719 19.0313 16.4899C18.9133 16.608 18.764 16.667 18.5834 16.667H14.9167ZM7.45842 9.97949C6.54175 9.97949 5.79175 9.68783 5.20842 9.10449C4.62508 8.52116 4.33341 7.77116 4.33341 6.85449C4.33341 5.93783 4.62508 5.18783 5.20842 4.60449C5.79175 4.02116 6.54175 3.72949 7.45842 3.72949C8.37508 3.72949 9.12508 4.02116 9.70842 4.60449C10.2917 5.18783 10.5834 5.93783 10.5834 6.85449C10.5834 7.77116 10.2917 8.52116 9.70842 9.10449C9.12508 9.68783 8.37508 9.97949 7.45842 9.97949ZM14.9584 6.85449C14.9584 7.77116 14.6667 8.52116 14.0834 9.10449C13.5001 9.68783 12.7501 9.97949 11.8334 9.97949C11.6806 9.97949 11.5105 9.96908 11.323 9.94824C11.1355 9.92741 10.9654 9.88921 10.8126 9.83366C11.1459 9.48644 11.3994 9.05935 11.573 8.55241C11.7466 8.04546 11.8334 7.47949 11.8334 6.85449C11.8334 6.22949 11.7466 5.67741 11.573 5.19824C11.3994 4.71908 11.1459 4.2781 10.8126 3.87533C10.9654 3.83366 11.1355 3.79894 11.323 3.77116C11.5105 3.74338 11.6806 3.72949 11.8334 3.72949C12.7501 3.72949 13.5001 4.02116 14.0834 4.60449C14.6667 5.18783 14.9584 5.93783 14.9584 6.85449ZM2.04175 15.417H12.8751V14.7087C12.8751 14.4864 12.8091 14.2712 12.6772 14.0628C12.5452 13.8545 12.382 13.7087 12.1876 13.6253C11.1876 13.1809 10.3473 12.8823 9.66675 12.7295C8.98619 12.5767 8.25008 12.5003 7.45842 12.5003C6.66675 12.5003 5.92717 12.5767 5.23967 12.7295C4.55217 12.8823 3.70841 13.1809 2.70841 13.6253C2.51397 13.7087 2.35425 13.8545 2.22925 14.0628C2.10425 14.2712 2.04175 14.4864 2.04175 14.7087V15.417ZM7.45842 8.72949C8.00008 8.72949 8.448 8.55241 8.80217 8.19824C9.15633 7.84408 9.33342 7.39616 9.33342 6.85449C9.33342 6.31283 9.15633 5.86491 8.80217 5.51074C8.448 5.15658 8.00008 4.97949 7.45842 4.97949C6.91675 4.97949 6.46883 5.15658 6.11467 5.51074C5.7605 5.86491 5.58342 6.31283 5.58342 6.85449C5.58342 7.39616 5.7605 7.84408 6.11467 8.19824C6.46883 8.55241 6.91675 8.72949 7.45842 8.72949Z"
        fill="white" />
    <path
        d="M14.9167 16.667C15.0556 16.6392 15.1667 16.5663 15.25 16.4482C15.3333 16.3302 15.375 16.1809 15.375 16.0003V14.7087C15.375 13.8337 15.1528 13.1149 14.7083 12.5524C14.2639 11.9899 13.6806 11.535 12.9583 11.1878C13.9167 11.2989 14.8194 11.4621 15.6667 11.6774C16.5139 11.8927 17.2014 12.1392 17.7292 12.417C18.1875 12.6809 18.5486 13.0073 18.8125 13.3962C19.0764 13.785 19.2083 14.2225 19.2083 14.7087V16.042C19.2083 16.2225 19.1493 16.3719 19.0312 16.4899C18.9132 16.608 18.7639 16.667 18.5833 16.667H14.9167ZM14.9583 6.85449C14.9583 7.77116 14.6667 8.52116 14.0833 9.10449C13.5 9.68783 12.75 9.97949 11.8333 9.97949C11.6806 9.97949 11.5104 9.96908 11.3229 9.94824C11.1354 9.92741 10.9653 9.88921 10.8125 9.83366C11.1458 9.48644 11.3993 9.05935 11.5729 8.55241C11.7465 8.04546 11.8333 7.47949 11.8333 6.85449C11.8333 6.22949 11.7465 5.67741 11.5729 5.19824C11.3993 4.71908 11.1458 4.2781 10.8125 3.87533C10.9653 3.83366 11.1354 3.79894 11.3229 3.77116C11.5104 3.74338 11.6806 3.72949 11.8333 3.72949C12.75 3.72949 13.5 4.02116 14.0833 4.60449C14.6667 5.18783 14.9583 5.93783 14.9583 6.85449Z"
        fill="#01FF48" />
</svg>