<svg width="29" height="29" viewBox="0 0 29 29" fill="none" xmlns="http://www.w3.org/2000/svg">
<path d="M14.5 7.23867C15.6214 7.23867 16.505 6.29277 16.505 5.23359C16.505 4.11211 15.6214 3.22852 14.5 3.22852C13.3785 3.22852 12.4949 4.11211 12.4949 5.23359C12.4949 6.34941 13.3785 7.23867 14.5 7.23867ZM14.5 4.28203C15.0324 4.28203 15.3835 4.69551 15.3835 5.16562C15.3835 5.63574 14.9701 6.04922 14.5 6.04922C14.0298 6.04922 13.6164 5.69238 13.6164 5.16562C13.6164 4.69551 13.9675 4.28203 14.5 4.28203Z" fill="#00A1A1"/>
<path d="M6.34932 18.4592C5.22783 18.4592 4.34424 19.3428 4.34424 20.4642C4.34424 21.5857 5.22783 22.4693 6.34932 22.4693C7.41416 22.4693 8.35439 21.5857 8.35439 20.4642C8.35439 19.3428 7.4708 18.4592 6.34932 18.4592ZM6.34932 21.2912C5.8792 21.2912 5.46572 20.8777 5.46572 20.4076C5.46572 19.9375 5.82256 19.524 6.34932 19.524C6.81943 19.524 7.23291 19.9375 7.23291 20.4076C7.23291 20.8777 6.88174 21.2912 6.34932 21.2912Z" fill="#00A1A1"/>
<path d="M22.6506 16.3918C20.7814 16.3918 19.1389 17.2641 18.0967 18.6291L15.0324 15.8367V12.5912C17.9211 12.3193 20.2264 9.83848 20.2264 6.8875C20.2264 3.69863 17.6889 1.16113 14.5 1.16113C11.3111 1.16113 8.77363 3.75527 8.77363 6.88184C8.77363 9.88945 11.0846 12.3193 13.9676 12.5855V15.7971L10.892 18.6064C9.8498 17.2527 8.20723 16.3861 6.34941 16.3861C3.16055 16.3918 0.623047 18.9293 0.623047 22.1182C0.623047 25.307 3.22285 27.8445 6.34941 27.8445C9.47598 27.8445 12.0758 25.307 12.0758 22.1182C12.0758 21.2062 11.8662 20.3453 11.498 19.5863L14.4773 16.8449L17.4963 19.5977C17.1281 20.3566 16.9242 21.2119 16.9242 22.1182C16.9242 25.307 19.524 27.8445 22.6506 27.8445C25.8395 27.8445 28.377 25.307 28.377 22.1182C28.377 18.9293 25.8395 16.3918 22.6506 16.3918ZM3.77227 25.9301C4.05547 25.0352 4.86543 24.4178 5.82266 24.4178H6.8875C7.83906 24.4178 8.64902 25.0352 8.93789 25.9301C8.20156 26.4285 7.3123 26.723 6.36074 26.723C5.39785 26.723 4.50859 26.4285 3.77227 25.9301ZM9.81016 25.1541C9.24941 24.0893 8.13926 23.3529 6.8875 23.3529H5.82266C4.51992 23.3529 3.4041 24.0496 2.87168 25.1201C2.175 24.3102 1.7502 23.2623 1.7502 22.1125C1.7502 19.575 3.81758 17.5076 6.35508 17.5076C8.83594 17.5076 10.96 19.575 10.96 22.1125C10.9543 23.2793 10.5238 24.3441 9.81016 25.1541ZM14.5 11.4867C13.5428 11.4867 12.6592 11.1922 11.9229 10.6938C12.2061 9.79883 13.016 9.18145 13.9732 9.18145H15.0381C15.9896 9.18145 16.7996 9.79883 17.0885 10.6938C16.3408 11.1979 15.4572 11.4867 14.5 11.4867ZM9.89512 6.88184C9.89512 4.34434 11.9625 2.27695 14.5 2.27695C17.0375 2.27695 19.1049 4.34434 19.1049 6.88184C19.1049 8.04297 18.6688 9.10781 17.9551 9.91777C17.3943 8.85293 16.2842 8.1166 15.0324 8.1166H13.9676C12.6648 8.1166 11.549 8.81328 11.0166 9.88379C10.3199 9.08516 9.89512 8.03164 9.89512 6.88184ZM20.0678 25.9301C20.351 25.0352 21.1609 24.4178 22.1182 24.4178H23.183C24.1346 24.4178 24.9445 25.0352 25.2334 25.9301C24.4971 26.4285 23.6078 26.723 22.6562 26.723C21.7047 26.723 20.8041 26.4285 20.0678 25.9301ZM26.1057 25.1541C25.5449 24.0893 24.4348 23.3529 23.183 23.3529H22.1182C20.8154 23.3529 19.6996 24.0496 19.1672 25.1201C18.4705 24.3102 18.0457 23.2623 18.0457 22.1125C18.0457 19.575 20.1131 17.5076 22.6506 17.5076C25.1881 17.5076 27.2555 19.575 27.2555 22.1125C27.2555 23.2793 26.8193 24.3441 26.1057 25.1541Z" fill="#00A1A1"/>
<path d="M22.6506 18.4592C21.5291 18.4592 20.6455 19.3428 20.6455 20.4642C20.6455 21.5857 21.5291 22.4693 22.6506 22.4693C23.7721 22.4693 24.6557 21.5857 24.6557 20.4642C24.6557 19.3428 23.7721 18.4592 22.6506 18.4592ZM22.6506 21.2912C22.1805 21.2912 21.767 20.8777 21.767 20.4076C21.767 19.9375 22.1238 19.524 22.6506 19.524C23.1773 19.524 23.5342 19.9375 23.5342 20.4076C23.5342 20.8777 23.183 21.2912 22.6506 21.2912Z" fill="#00A1A1"/>
</svg>
