<svg width="90" height="90" viewBox="0 0 90 90" fill="none" xmlns="http://www.w3.org/2000/svg">
    <circle cx="45" cy="45" r="44" stroke="currentColor" stroke-opacity="0.5" stroke-width="2" />
    <path
        d="M63.0701 45.6374C63.8237 44.3612 64.25 43 64.25 41.3543C64.25 37.5718 61.0516 33.9998 56.8748 33.9998H53.7398C54.1627 32.8989 54.5004 31.5823 54.5004 30.0002C54.5004 23.7445 51.2614 21 46.3131 21C41.0188 21 41.3208 29.1583 40.1462 30.3328C38.1914 32.2876 35.8825 36.0431 34.2372 37.5H25.75C24.2312 37.5 23 38.7312 23 40.25V60.875C23 62.3938 24.2312 63.625 25.75 63.625H31.25C32.5299 63.625 33.6054 62.7507 33.9122 61.5668C37.7372 61.6528 40.3626 64.9991 49.192 64.9991C49.8125 64.9991 50.5 65 51.1016 65C57.7288 65 60.7254 61.6121 60.8073 56.8076C61.9519 55.2242 62.5518 53.1018 62.2975 51.0506C63.1443 49.4649 63.4717 47.5836 63.0701 45.6374ZM57.7634 50.2634C58.8428 52.0793 57.8717 54.5096 56.5655 55.2109C57.2272 59.4029 55.0523 60.8741 52.0005 60.8741H48.7503C42.5938 60.8741 38.6072 57.624 34 57.624V41.625H34.9384C37.3756 41.625 40.7805 35.5329 43.063 33.2495C45.5002 30.8123 44.688 26.7501 46.3131 25.125C50.3754 25.125 50.3754 27.9592 50.3754 30.0002C50.3754 33.3664 47.9382 34.8746 47.9382 38.1248H56.8748C58.689 38.1248 60.1173 39.7498 60.125 41.3749C60.1327 42.9991 59.0233 44.6242 58.2112 44.6242C59.3704 45.875 59.6181 48.5117 57.7634 50.2634ZM30.5625 58.125C30.5625 59.2641 29.6391 60.1875 28.5 60.1875C27.3609 60.1875 26.4375 59.2641 26.4375 58.125C26.4375 56.9859 27.3609 56.0625 28.5 56.0625C29.6391 56.0625 30.5625 56.9859 30.5625 58.125Z"
        fill="currentColor" fill-opacity="0.72" />
</svg>