<svg width="20" height="21" viewBox="0 0 20 21" fill="none" xmlns="http://www.w3.org/2000/svg">
    <path
        d="M3.33341 16.2668C2.87508 16.2668 2.48286 16.1037 2.15675 15.7776C1.83064 15.4515 1.6673 15.059 1.66675 14.6001V6.26676C1.66675 5.80843 1.83008 5.41622 2.15675 5.0901C2.48341 4.76397 2.87564 4.60064 3.33341 4.6001H16.6667C17.1251 4.6001 17.5176 4.76343 17.8442 5.0901C18.1709 5.41676 18.334 5.80897 18.3334 6.26676V14.6001C18.3334 15.0584 18.1704 15.4509 17.8442 15.7776C17.5181 16.1043 17.1256 16.2673 16.6667 16.2668H3.33341ZM3.33341 14.6001H16.6667V6.26676H3.33341V14.6001ZM5.00008 8.76676C5.23621 8.76676 5.43425 8.68676 5.59425 8.52676C5.75425 8.36676 5.83396 8.16897 5.83341 7.93343C5.83287 7.69789 5.75287 7.5001 5.59341 7.3401C5.43396 7.1801 5.23621 7.1001 5.00008 7.1001C4.76396 7.1001 4.56621 7.1801 4.40675 7.3401C4.24729 7.5001 4.16729 7.69789 4.16675 7.93343C4.16619 8.16897 4.24621 8.36706 4.40675 8.5276C4.56729 8.68814 4.76508 8.76789 5.00008 8.76676ZM7.50008 8.76676C7.73621 8.76676 7.93425 8.68676 8.09425 8.52676C8.25425 8.36676 8.33396 8.16897 8.33341 7.93343C8.33287 7.69789 8.25287 7.5001 8.09341 7.3401C7.93396 7.1801 7.73621 7.1001 7.50008 7.1001C7.26396 7.1001 7.06621 7.1801 6.90675 7.3401C6.74729 7.5001 6.66729 7.69789 6.66675 7.93343C6.66621 8.16897 6.74621 8.36706 6.90675 8.5276C7.06729 8.68814 7.26508 8.76789 7.50008 8.76676ZM10.0001 8.76676C10.2362 8.76676 10.4342 8.68676 10.5942 8.52676C10.7542 8.36676 10.834 8.16897 10.8334 7.93343C10.8329 7.69789 10.7529 7.5001 10.5934 7.3401C10.434 7.1801 10.2362 7.1001 10.0001 7.1001C9.76396 7.1001 9.56621 7.1801 9.40675 7.3401C9.24729 7.5001 9.16729 7.69789 9.16675 7.93343C9.16621 8.16897 9.24621 8.36706 9.40675 8.5276C9.56729 8.68814 9.76508 8.76789 10.0001 8.76676ZM12.5001 8.76676C12.7362 8.76676 12.9342 8.68676 13.0942 8.52676C13.2542 8.36676 13.334 8.16897 13.3334 7.93343C13.3329 7.69789 13.2529 7.5001 13.0934 7.3401C12.934 7.1801 12.7362 7.1001 12.5001 7.1001C12.264 7.1001 12.0662 7.1801 11.9067 7.3401C11.7473 7.5001 11.6673 7.69789 11.6667 7.93343C11.6662 8.16897 11.7462 8.36706 11.9067 8.5276C12.0673 8.68814 12.2651 8.76789 12.5001 8.76676ZM15.0001 8.76676C15.2362 8.76676 15.4342 8.68676 15.5942 8.52676C15.7542 8.36676 15.834 8.16897 15.8334 7.93343C15.8329 7.69789 15.7529 7.5001 15.5934 7.3401C15.434 7.1801 15.2362 7.1001 15.0001 7.1001C14.764 7.1001 14.5662 7.1801 14.4067 7.3401C14.2473 7.5001 14.1673 7.69789 14.1667 7.93343C14.1662 8.16897 14.2462 8.36706 14.4067 8.5276C14.5673 8.68814 14.7651 8.76789 15.0001 8.76676ZM5.00008 11.2668C5.23621 11.2668 5.43425 11.1868 5.59425 11.0268C5.75425 10.8668 5.83396 10.669 5.83341 10.4334C5.83287 10.1979 5.75287 10.0001 5.59341 9.8401C5.43396 9.6801 5.23621 9.6001 5.00008 9.6001C4.76396 9.6001 4.56621 9.6801 4.40675 9.8401C4.24729 10.0001 4.16729 10.1979 4.16675 10.4334C4.16619 10.669 4.24621 10.8671 4.40675 11.0276C4.56729 11.1881 4.76508 11.2679 5.00008 11.2668ZM7.50008 11.2668C7.73621 11.2668 7.93425 11.1868 8.09425 11.0268C8.25425 10.8668 8.33396 10.669 8.33341 10.4334C8.33287 10.1979 8.25287 10.0001 8.09341 9.8401C7.93396 9.6801 7.73621 9.6001 7.50008 9.6001C7.26396 9.6001 7.06621 9.6801 6.90675 9.8401C6.74729 10.0001 6.66729 10.1979 6.66675 10.4334C6.66621 10.669 6.74621 10.8671 6.90675 11.0276C7.06729 11.1881 7.26508 11.2679 7.50008 11.2668ZM10.0001 11.2668C10.2362 11.2668 10.4342 11.1868 10.5942 11.0268C10.7542 10.8668 10.834 10.669 10.8334 10.4334C10.8329 10.1979 10.7529 10.0001 10.5934 9.8401C10.434 9.6801 10.2362 9.6001 10.0001 9.6001C9.76396 9.6001 9.56621 9.6801 9.40675 9.8401C9.24729 10.0001 9.16729 10.1979 9.16675 10.4334C9.16621 10.669 9.24621 10.8671 9.40675 11.0276C9.56729 11.1881 9.76508 11.2679 10.0001 11.2668ZM12.5001 11.2668C12.7362 11.2668 12.9342 11.1868 13.0942 11.0268C13.2542 10.8668 13.334 10.669 13.3334 10.4334C13.3329 10.1979 13.2529 10.0001 13.0934 9.8401C12.934 9.6801 12.7362 9.6001 12.5001 9.6001C12.264 9.6001 12.0662 9.6801 11.9067 9.8401C11.7473 10.0001 11.6673 10.1979 11.6667 10.4334C11.6662 10.669 11.7462 10.8671 11.9067 11.0276C12.0673 11.1881 12.2651 11.2679 12.5001 11.2668ZM15.0001 11.2668C15.2362 11.2668 15.4342 11.1868 15.5942 11.0268C15.7542 10.8668 15.834 10.669 15.8334 10.4334C15.8329 10.1979 15.7529 10.0001 15.5934 9.8401C15.434 9.6801 15.2362 9.6001 15.0001 9.6001C14.764 9.6001 14.5662 9.6801 14.4067 9.8401C14.2473 10.0001 14.1673 10.1979 14.1667 10.4334C14.1662 10.669 14.2462 10.8671 14.4067 11.0276C14.5673 11.1881 14.7651 11.2679 15.0001 11.2668Z"
        fill="white" />
    <path
        d="M7.50008 13.7668H12.5001C12.7362 13.7668 12.9343 13.6868 13.0943 13.5268C13.2543 13.3668 13.334 13.169 13.3334 12.9334C13.3329 12.6979 13.2529 12.5001 13.0934 12.3401C12.934 12.1801 12.7362 12.1001 12.5001 12.1001H7.50008C7.26396 12.1001 7.06621 12.1801 6.90675 12.3401C6.74729 12.5001 6.66729 12.6979 6.66675 12.9334C6.66621 13.169 6.74621 13.3671 6.90675 13.5276C7.06729 13.6881 7.26508 13.7679 7.50008 13.7668Z"
        fill="#01FF48" />
</svg>