<svg width="21" height="21" viewBox="0 0 21 21" fill="none" xmlns="http://www.w3.org/2000/svg">
<path d="M19.526 9.47927H12.0967C11.7773 9.47927 11.5188 9.22086 11.5188 8.90145V1.47782C11.5188 1.15841 11.7773 0.9 12.0967 0.9C16.5115 0.9 20.1 4.48758 20.1 8.90145C20.1 9.22474 19.8415 9.47927 19.526 9.47927ZM18.9247 8.32752C18.6486 5.00928 15.9937 2.35496 12.6746 2.07898V8.32752H18.9247Z" fill="#00A1A1" stroke="#00A1A1" stroke-width="0.2"/>
<path d="M18.3754 11.3644C18.3754 16.1822 14.4567 20.1 9.63772 20.1C4.81877 20.1 0.900045 16.1822 0.900045 11.3644C0.900045 6.54648 4.81877 2.6287 9.63772 2.6287C9.95714 2.6287 10.2156 2.88711 10.2156 3.20652V10.7904H17.7975C18.1164 10.7904 18.3754 11.0483 18.3754 11.3644ZM9.63772 11.9422C9.31829 11.9422 9.05979 11.6838 9.05979 11.3644V3.80301C5.14465 4.09645 2.05202 7.3784 2.05202 11.3644C2.05202 15.5473 5.45374 18.9483 9.63772 18.9483C13.6284 18.9483 16.9073 15.8526 17.2008 11.9422H9.63772Z" fill="#00A1A1" stroke="#00A1A1" stroke-width="0.2"/>
</svg>
